{"glyphs":{"0":{"ha":917,"x_min":88,"x_max":907,"o":"m 379 -121 q 216 -70 281 -121 q 119 66 151 -19 q 88 257 88 151 q 110 449 88 347 q 177 649 133 551 q 284 826 221 746 q 428 953 347 906 q 606 1000 508 1000 q 764 956 696 1000 q 869 825 832 911 q 907 614 907 739 q 881 408 907 513 q 808 210 856 304 q 696 40 761 115 q 551 -78 631 -35 q 379 -121 471 -121 m 399 -54 q 519 -8 461 -54 q 624 115 576 38 q 706 287 671 192 q 761 481 742 382 q 781 668 781 579 q 763 809 781 747 q 708 907 746 871 q 606 943 669 943 q 491 908 543 943 q 397 815 439 874 q 322 681 354 756 q 269 527 290 607 q 238 372 249 447 q 226 233 226 296 q 272 24 226 103 q 399 -54 318 -54 z "},"1":{"ha":544,"x_min":-47,"x_max":489,"o":"m 100 -121 q 17 -101 51 -121 q -47 -43 -18 -81 q -9 -46 -24 -44 q 25 -47 6 -47 q 94 -43 56 -47 q 169 -33 133 -39 q 215 104 193 22 q 257 280 238 186 q 293 468 276 374 q 325 644 310 563 q 353 783 340 726 q 248 719 279 735 q 197 704 217 704 q 168 716 179 704 q 157 761 157 728 q 237 810 185 775 q 351 895 289 846 q 471 999 414 944 q 485 976 481 990 q 489 944 489 961 q 477 878 489 913 q 458 794 465 843 q 427 601 444 703 q 387 392 410 499 q 333 180 364 285 q 260 -21 301 75 q 283 -19 272 -19 q 308 -18 294 -18 q 402 -37 361 -18 q 457 -117 443 -56 q 390 -110 422 -112 q 329 -108 357 -108 q 244 -111 289 -108 q 161 -117 200 -114 q 100 -121 122 -121 z "},"2":{"ha":832,"x_min":-8,"x_max":768,"o":"m 608 -121 q 505 -103 563 -121 q 385 -62 447 -86 q 267 -18 324 -39 q 180 -60 221 -44 q 101 -75 139 -75 q 23 -52 54 -75 q -8 10 -8 -29 q 19 63 -8 43 q 108 83 46 83 q 178 78 140 83 q 260 65 217 74 q 388 201 324 119 q 507 376 453 282 q 594 568 561 471 q 628 751 628 665 q 585 897 628 850 q 478 943 543 943 q 374 906 415 943 q 312 811 332 868 q 292 696 292 754 q 298 635 292 663 q 318 575 304 607 q 306 576 313 575 q 292 578 299 576 q 218 611 251 582 q 185 711 185 640 q 224 852 185 786 q 333 959 264 918 q 493 1000 403 1000 q 633 964 576 1000 q 717 866 689 928 q 746 726 746 804 q 731 610 746 671 q 690 489 717 550 q 602 324 656 406 q 485 172 549 243 q 353 46 421 101 q 518 13 443 26 q 639 0 593 0 q 699 10 674 0 q 768 43 725 19 q 708 -81 746 -42 q 608 -121 669 -121 m 99 -18 q 139 -10 118 -18 q 183 11 160 -3 q 134 24 157 19 q 96 28 111 28 q 63 20 71 28 q 54 6 54 13 q 69 -11 56 -4 q 99 -18 82 -18 z "},"3":{"ha":753,"x_min":26,"x_max":700,"o":"m 279 -121 q 132 -88 188 -121 q 51 -8 76 -56 q 26 86 26 40 q 40 158 26 122 q 81 217 54 193 q 150 240 108 240 q 167 240 157 240 q 199 235 176 239 q 156 175 172 214 q 140 100 140 136 q 159 25 140 61 q 212 -34 178 -11 q 290 -57 246 -57 q 394 -21 344 -57 q 477 80 444 15 q 510 228 510 144 q 493 333 510 281 q 435 426 476 385 q 322 485 394 467 q 456 575 400 518 q 542 698 511 632 q 572 821 572 764 q 533 916 572 889 q 447 943 494 943 q 374 928 410 943 q 316 883 339 913 q 293 811 293 853 q 300 765 293 789 q 321 715 307 740 q 292 683 313 699 q 253 667 272 667 q 218 685 233 667 q 195 733 203 704 q 188 789 188 761 q 228 903 188 856 q 332 975 268 950 q 464 1000 396 1000 q 577 978 524 1000 q 665 912 631 956 q 700 804 700 868 q 684 717 700 763 q 638 629 668 671 q 567 554 608 588 q 478 501 526 521 q 594 432 551 476 q 656 335 638 388 q 675 235 675 283 q 647 108 675 171 q 565 -8 618 44 q 439 -90 511 -60 q 279 -121 367 -121 z "},"4":{"ha":706,"x_min":4,"x_max":706,"o":"m 474 -121 q 376 -97 410 -117 q 343 -46 343 -76 q 345 -16 343 -37 q 355 51 347 6 q 376 174 363 96 q 390 242 383 203 q 404 319 397 282 q 347 324 376 322 q 307 325 318 325 q 261 324 293 325 q 189 320 229 322 q 109 315 149 318 q 41 308 69 311 q 4 300 13 304 q 25 361 4 336 q 74 413 46 386 q 195 527 124 458 q 347 676 267 596 q 501 841 428 757 q 629 1000 575 925 q 652 984 640 994 q 664 951 664 974 q 636 875 664 918 q 615 776 629 843 q 583 616 601 710 q 544 411 565 522 q 556 411 550 411 q 565 411 561 411 q 647 415 618 411 q 706 426 675 418 q 628 351 672 381 q 538 318 583 321 q 533 318 536 318 q 528 318 531 318 q 524 297 526 314 q 517 251 521 279 q 503 165 511 214 q 489 63 496 115 q 478 -39 482 10 q 474 -121 474 -87 m 165 414 q 224 417 193 417 q 290 418 254 418 q 360 417 326 418 q 425 415 394 417 q 460 576 443 500 q 499 721 478 653 q 410 640 457 682 q 318 557 364 599 q 229 476 272 515 q 197 444 213 460 q 165 414 181 429 z "},"5":{"ha":713,"x_min":13,"x_max":710,"o":"m 271 -121 q 117 -88 174 -121 q 37 -8 61 -56 q 13 85 13 39 q 26 157 13 121 q 66 217 39 193 q 135 240 93 240 q 152 240 142 240 q 185 235 163 239 q 142 176 158 214 q 126 96 126 138 q 141 24 126 58 q 188 -34 156 -11 q 269 -57 219 -57 q 366 -31 324 -57 q 438 39 408 -4 q 483 134 468 82 q 499 238 499 186 q 479 341 499 293 q 419 419 460 389 q 310 449 378 449 q 246 444 283 449 q 164 431 208 439 q 185 538 171 476 q 217 667 199 600 q 253 797 235 733 q 287 911 272 860 q 310 993 301 963 q 397 978 357 982 q 469 974 436 974 q 585 982 529 974 q 700 1001 640 990 q 707 973 704 985 q 710 949 710 961 q 681 885 710 908 q 610 851 653 861 q 524 842 567 842 q 433 850 472 842 q 365 858 393 858 q 355 854 360 858 q 346 843 350 850 q 321 789 333 825 q 297 710 308 753 q 274 624 285 667 q 256 547 264 581 q 242 496 247 513 q 298 504 269 501 q 356 507 326 507 q 522 472 456 507 q 622 375 589 436 q 656 235 656 314 q 608 56 656 138 q 473 -73 560 -25 q 271 -121 386 -121 z "},"6":{"ha":822,"x_min":81,"x_max":779,"o":"m 392 -121 q 213 -74 282 -121 q 113 53 144 -28 q 81 233 81 133 q 105 428 81 324 q 175 633 129 532 q 288 817 221 735 q 442 950 356 900 q 631 1000 528 1000 q 737 978 694 1000 q 779 911 779 957 q 763 868 779 889 q 696 833 747 847 q 698 857 697 844 q 699 879 699 869 q 685 928 699 908 q 626 949 671 949 q 504 906 561 949 q 401 790 447 863 q 319 631 354 718 q 261 454 283 543 q 368 510 308 490 q 492 529 428 529 q 628 500 565 529 q 731 410 692 471 q 769 251 769 349 q 722 63 769 147 q 590 -72 675 -22 q 392 -121 506 -121 m 399 -57 q 493 -30 451 -57 q 564 42 535 -3 q 609 144 593 88 q 625 257 625 200 q 601 374 625 329 q 535 441 578 419 q 439 463 493 463 q 316 425 363 463 q 249 328 269 388 q 228 201 228 269 q 235 119 228 164 q 261 35 243 75 q 313 -31 279 -6 q 399 -57 347 -57 z "},"7":{"ha":610,"x_min":94,"x_max":750,"o":"m 174 -121 q 133 -103 151 -121 q 114 -49 114 -85 q 136 55 114 -11 q 199 210 158 121 q 292 406 239 299 q 231 403 265 406 q 160 399 196 401 q 94 392 125 396 q 124 458 96 435 q 201 490 153 481 q 306 501 249 500 q 324 501 315 501 q 343 501 333 501 q 434 652 379 558 q 563 864 489 746 q 493 862 529 864 q 422 858 457 860 q 353 856 386 856 q 223 877 258 856 q 188 931 188 899 q 211 999 188 960 q 298 985 254 992 q 388 974 342 978 q 481 971 433 971 q 620 980 549 971 q 750 1007 692 989 q 706 949 728 978 q 665 893 685 921 q 548 709 601 803 q 438 496 494 615 q 492 492 465 493 q 546 490 518 490 q 591 492 568 490 q 636 500 614 494 q 570 431 603 456 q 500 406 538 406 q 450 406 476 406 q 396 406 424 406 q 343 281 371 349 q 296 147 315 213 q 276 33 276 82 q 281 0 276 15 q 299 -25 285 -15 q 233 -100 272 -79 q 174 -121 194 -121 z "},"8":{"ha":779,"x_min":60,"x_max":701,"o":"m 328 -121 q 200 -99 251 -121 q 118 -40 149 -76 q 74 38 88 -4 q 60 117 60 79 q 88 226 60 178 q 160 315 115 274 q 257 393 204 356 q 360 468 310 431 q 282 555 319 510 q 221 651 244 600 q 197 767 197 703 q 238 901 197 850 q 341 975 278 951 q 469 999 404 999 q 636 947 571 999 q 701 790 701 894 q 675 671 701 725 q 605 571 649 617 q 506 483 561 525 q 597 389 554 436 q 665 290 639 342 q 690 174 690 238 q 638 18 690 85 q 503 -85 586 -49 q 328 -121 421 -121 m 340 -47 q 439 -21 390 -47 q 520 54 488 6 q 553 167 553 103 q 511 299 553 240 q 413 415 469 357 q 295 328 351 374 q 203 232 239 283 q 167 118 167 181 q 192 29 167 67 q 258 -28 218 -8 q 340 -47 297 -47 m 454 538 q 559 651 518 590 q 600 789 600 711 q 563 903 600 865 q 472 942 525 942 q 408 926 442 942 q 351 876 375 911 q 328 783 328 842 q 365 653 328 711 q 454 538 401 594 z "},"9":{"ha":831,"x_min":133,"x_max":819,"o":"m 299 -121 q 190 -99 235 -121 q 146 -29 146 -76 q 162 15 146 -7 q 226 50 178 36 q 227 28 226 40 q 229 6 228 17 q 249 -47 233 -24 q 301 -69 264 -69 q 422 -26 367 -69 q 520 89 476 17 q 596 249 564 161 q 646 425 628 336 q 540 371 600 390 q 418 351 481 351 q 274 383 339 351 q 172 480 210 415 q 133 639 133 544 q 178 826 133 744 q 305 953 224 907 q 496 1000 386 1000 q 686 947 615 1000 q 788 805 757 893 q 819 613 819 717 q 797 417 819 519 q 730 220 774 315 q 623 48 686 125 q 478 -75 560 -29 q 299 -121 397 -121 m 474 418 q 623 483 575 418 q 671 654 671 547 q 663 745 671 696 q 634 838 654 794 q 578 908 614 881 q 490 936 543 936 q 400 910 440 936 q 333 841 360 885 q 291 744 306 797 q 276 635 276 690 q 301 514 276 563 q 371 442 326 465 q 474 418 415 418 z "}," ":{"ha":361,"x_min":0,"x_max":0,"o":""},"A":{"ha":876,"x_min":0,"x_max":869,"o":"m 64 -121 q 11 -75 22 -99 q 0 -35 0 -51 q 27 66 0 3 q 100 211 54 129 q 204 382 146 293 q 122 386 161 385 q 22 388 83 388 l 0 388 q 62 458 19 438 q 161 478 104 478 q 210 475 185 478 q 264 469 236 472 q 401 658 333 569 q 528 819 468 747 q 636 936 589 890 q 733 1003 703 1003 q 777 988 753 1003 q 828 949 801 972 q 792 892 814 938 q 747 776 771 846 q 698 622 722 706 q 654 453 674 539 q 623 288 635 367 q 611 150 611 210 q 622 67 611 94 q 660 40 633 40 q 739 89 692 40 q 844 247 786 138 l 869 221 q 758 33 826 107 q 611 -40 689 -40 q 517 17 544 -40 q 489 175 489 75 q 493 247 489 207 q 507 347 497 288 q 399 363 446 357 q 308 374 351 368 q 179 129 242 256 q 64 -121 117 3 m 521 415 q 563 581 539 497 q 615 742 588 665 q 668 881 642 819 q 575 785 626 847 q 467 638 524 722 q 353 453 411 553 q 436 435 394 444 q 521 415 478 425 z "},"B":{"ha":903,"x_min":57,"x_max":857,"o":"m 229 -121 q 101 -93 144 -121 q 57 -1 58 -65 q 72 13 57 13 q 110 6 85 13 q 208 0 136 0 q 433 26 331 0 q 612 95 536 51 q 729 194 688 139 q 771 308 771 249 q 738 395 771 363 q 652 445 706 428 q 535 468 599 463 q 411 474 472 474 q 358 473 385 474 q 308 472 332 472 q 249 254 278 367 q 188 33 219 142 q 115 56 146 33 q 85 110 85 78 q 90 142 85 122 q 104 190 94 163 q 133 278 113 217 q 181 422 153 339 q 242 598 208 506 q 313 779 276 690 q 386 939 350 868 q 294 910 331 926 q 238 881 258 893 q 206 868 217 868 q 184 878 197 868 q 160 900 171 888 q 150 922 150 913 q 306 976 225 953 q 500 1000 386 1000 q 610 992 550 1000 q 724 962 669 985 q 813 894 778 939 q 849 774 849 849 q 823 670 849 714 q 754 595 797 626 q 660 544 711 564 q 558 511 608 524 q 702 476 644 500 q 794 419 760 451 q 842 353 828 388 q 857 288 857 319 q 814 140 857 206 q 701 26 771 75 q 547 -55 631 -22 q 379 -104 463 -87 q 229 -121 296 -121 m 322 525 q 475 543 400 528 q 610 588 550 558 q 707 666 671 618 q 743 785 743 714 q 707 888 743 851 q 613 938 671 924 q 488 951 554 951 q 485 951 486 951 q 482 951 483 951 q 396 749 435 858 q 322 525 357 640 z "},"C":{"ha":792,"x_min":44,"x_max":801,"o":"m 347 -121 q 174 -71 242 -121 q 76 58 107 -21 q 44 222 44 138 q 78 442 44 332 q 170 653 111 553 q 304 831 229 753 q 465 953 379 908 q 635 999 550 999 q 738 970 696 999 q 779 872 779 942 q 765 779 779 831 q 726 680 750 728 q 671 601 701 632 q 608 571 640 571 q 579 581 594 571 q 551 614 564 590 q 599 672 572 638 q 649 744 625 706 q 688 819 672 782 q 703 883 703 856 q 689 923 703 908 q 640 938 675 938 q 515 892 579 938 q 390 769 450 846 q 283 597 331 692 q 207 401 235 501 q 179 210 179 300 q 199 83 179 143 q 264 -16 219 22 q 381 -54 308 -54 q 530 -12 456 -54 q 666 97 604 29 q 765 243 728 165 l 801 219 q 685 49 753 126 q 531 -74 617 -28 q 347 -121 446 -121 z "},"D":{"ha":954,"x_min":97,"x_max":953,"o":"m 265 -121 q 173 -108 217 -121 q 97 -51 129 -94 q 117 46 101 -18 q 157 191 133 110 q 207 358 181 272 q 259 523 233 444 q 305 660 285 601 q 335 746 325 719 q 349 779 339 757 q 374 825 358 801 q 409 865 389 849 q 453 881 429 881 q 506 861 476 881 q 419 645 463 764 q 335 401 375 526 q 263 156 296 275 q 210 -61 231 38 q 241 -67 221 -65 q 279 -69 261 -69 q 451 -26 369 -69 q 602 91 533 18 q 722 255 671 164 q 801 442 774 346 q 829 625 829 538 q 791 808 829 738 q 686 910 753 878 q 533 943 619 943 q 371 910 443 943 q 258 822 299 878 q 217 693 217 765 q 219 660 217 678 q 229 626 222 643 q 144 652 169 626 q 118 715 118 678 q 153 814 118 764 q 252 906 189 864 q 399 974 315 949 q 579 1000 482 1000 q 797 948 715 1000 q 916 808 879 896 q 953 611 953 719 q 915 383 953 492 q 809 182 876 274 q 653 22 742 90 q 466 -83 565 -46 q 265 -121 367 -121 z "},"E":{"ha":740,"x_min":-6,"x_max":750,"o":"m 290 -121 q 135 -85 201 -121 q 31 9 68 -50 q -6 140 -6 68 q 21 261 -6 201 q 95 370 47 321 q 208 453 143 419 q 349 499 272 488 q 274 597 299 543 q 249 708 249 651 q 286 849 249 782 q 392 957 324 915 q 550 999 460 999 q 681 958 635 999 q 726 839 726 917 q 707 735 726 785 q 660 656 688 686 q 607 625 633 625 q 570 642 588 625 q 540 682 553 660 q 627 771 592 724 q 663 868 663 818 q 635 931 663 910 q 563 953 607 953 q 458 915 500 953 q 394 817 415 876 q 372 696 372 758 q 394 576 372 636 q 475 471 417 515 q 301 402 375 456 q 188 278 228 349 q 147 138 147 207 q 165 50 147 96 q 222 -27 182 4 q 328 -58 261 -58 q 478 -16 404 -58 q 613 96 551 26 q 713 243 675 165 l 750 219 q 629 47 699 124 q 475 -76 560 -31 q 290 -121 390 -121 z "},"F":{"ha":725,"x_min":101,"x_max":929,"o":"m 261 -121 q 165 -85 188 -115 q 142 -8 142 -54 q 160 115 142 43 q 207 269 178 188 q 271 432 236 351 q 223 428 256 431 q 156 422 190 425 q 101 414 122 418 q 134 481 106 457 q 208 517 163 506 q 306 529 253 528 q 380 724 342 629 q 457 899 418 819 q 438 901 449 900 q 407 901 426 901 q 276 883 322 901 q 212 832 229 865 q 194 750 194 799 q 201 687 194 715 q 222 625 208 658 q 129 667 157 636 q 101 746 101 699 q 155 874 101 818 q 299 961 208 929 q 504 993 390 993 q 651 983 578 993 q 789 974 725 974 q 856 978 824 974 q 929 994 888 983 q 820 896 863 921 q 738 871 778 871 q 651 880 704 871 q 538 893 599 889 q 499 790 519 849 q 456 665 478 732 q 413 528 435 599 q 543 515 485 522 q 672 506 601 508 q 638 470 656 483 q 592 451 621 457 q 515 443 564 446 q 386 439 465 440 q 363 354 375 397 q 341 281 350 311 q 329 243 332 250 q 276 26 290 110 q 261 -121 261 -58 z "},"G":{"ha":813,"x_min":44,"x_max":796,"o":"m 331 -121 q 188 -80 253 -121 q 83 40 122 -39 q 44 228 44 118 q 78 444 44 335 q 169 653 111 554 q 303 831 228 753 q 462 953 378 908 q 631 999 546 999 q 728 976 692 999 q 780 915 764 953 q 796 835 796 878 q 778 738 796 786 q 731 657 761 689 q 665 625 701 625 q 635 635 649 625 q 607 671 621 644 q 653 719 628 685 q 699 797 679 754 q 718 872 718 839 q 701 919 718 900 q 643 938 683 938 q 515 891 581 938 q 389 767 449 844 q 281 595 329 690 q 206 401 233 500 q 178 213 178 301 q 233 16 178 86 q 364 -54 288 -54 q 469 -18 421 -54 q 553 77 517 18 q 613 206 590 136 q 640 342 635 275 q 569 352 606 349 q 492 356 532 356 q 447 355 469 356 q 400 353 425 354 q 440 424 413 401 q 511 447 467 447 q 595 434 553 447 q 681 406 638 421 q 767 381 725 390 l 753 338 q 712 210 728 261 q 688 124 696 160 q 676 60 679 89 q 674 1 674 32 q 675 -56 674 -26 q 678 -129 676 -86 q 616 -105 636 -124 q 590 -61 596 -86 q 583 -12 583 -36 q 583 1 583 -6 q 585 15 583 8 q 473 -83 536 -44 q 331 -121 410 -121 z "},"H":{"ha":921,"x_min":100,"x_max":939,"o":"m 100 -121 q 119 -19 108 -71 q 145 94 129 32 q 185 238 161 157 q 244 425 210 318 q 199 421 224 424 q 154 417 175 418 q 188 485 154 461 q 275 519 221 508 q 285 550 281 539 q 294 578 289 561 q 311 624 300 594 q 341 710 322 654 q 390 856 360 765 q 400 883 393 863 q 407 922 407 904 q 403 938 407 933 q 389 942 400 942 q 333 917 361 942 q 281 853 304 892 q 243 774 257 815 q 229 701 229 733 q 232 676 229 690 q 243 639 235 663 q 159 665 185 639 q 133 731 133 690 q 162 825 133 778 q 235 912 190 872 q 331 976 281 951 q 425 1000 382 1000 q 486 976 469 1000 q 503 924 503 953 q 499 893 503 908 q 492 864 496 878 l 390 531 q 424 532 407 532 q 460 532 442 532 q 588 529 528 532 q 703 521 647 526 q 762 713 738 638 q 805 837 786 788 q 839 924 824 886 q 855 953 844 935 q 885 987 865 972 q 939 1001 906 1001 q 895 873 921 953 q 843 699 869 793 q 793 514 817 606 q 848 512 813 514 q 914 510 883 510 q 838 456 871 467 q 776 446 804 446 q 749 324 761 382 q 728 215 736 265 q 703 60 711 126 q 696 -47 696 -6 q 698 -87 696 -69 q 703 -121 700 -104 q 606 -87 632 -114 q 581 8 581 -60 q 585 79 581 40 q 603 171 590 118 q 633 289 614 222 q 681 444 653 356 q 540 443 596 444 q 443 440 485 442 q 360 435 401 439 q 353 411 358 429 q 333 347 347 393 q 292 213 319 301 q 217 -26 264 124 q 164 -99 201 -78 q 100 -121 126 -121 z "},"I":{"ha":699,"x_min":-25,"x_max":835,"o":"m -25 -122 q 14 -35 -19 -62 q 100 0 47 -8 q 214 8 153 8 q 262 135 239 61 q 306 294 285 210 q 348 467 328 379 q 386 638 368 556 q 421 789 404 721 q 453 901 438 857 q 327 896 382 900 q 224 885 272 892 q 124 868 175 878 q 211 968 139 938 q 432 999 283 999 q 585 993 506 999 q 731 981 664 988 q 835 968 797 974 q 746 913 788 924 q 674 903 704 903 q 592 903 628 903 q 524 901 557 903 q 502 786 514 854 q 476 640 490 718 q 447 485 461 563 q 419 340 433 407 q 394 228 406 272 q 351 96 376 156 q 294 6 326 36 q 443 -8 368 0 q 608 -19 518 -17 q 503 -84 553 -71 q 421 -97 453 -97 q 266 -98 328 -97 q 158 -101 204 -99 q 70 -108 113 -103 q -25 -122 28 -114 z "},"J":{"ha":611,"x_min":-25,"x_max":767,"o":"m 144 -119 q 69 -106 108 -119 q 2 -53 29 -93 q -25 68 -25 -12 q -12 178 -25 124 q 26 270 1 233 q 89 307 51 307 q 143 292 108 307 q 103 169 117 226 q 90 68 90 113 q 114 -19 90 13 q 176 -51 138 -51 q 238 -22 210 -51 q 294 85 267 8 q 339 228 315 144 q 386 407 363 313 q 431 596 410 501 q 468 772 451 690 q 494 908 485 853 q 377 903 428 907 q 284 893 326 900 q 197 876 242 886 q 267 969 207 942 q 447 997 326 997 q 568 992 506 997 q 684 979 631 986 q 767 967 738 972 q 705 919 744 929 q 640 910 665 910 q 594 909 618 910 q 560 908 571 908 q 574 881 569 896 q 578 854 578 867 q 568 776 578 836 q 541 628 558 715 q 500 444 524 542 q 448 254 476 347 q 386 88 419 161 q 310 -38 349 7 q 229 -101 271 -83 q 144 -119 188 -119 z "},"K":{"ha":885,"x_min":60,"x_max":896,"o":"m 753 -121 q 677 -87 719 -121 q 587 3 635 -53 q 493 125 539 58 q 406 259 447 192 q 336 382 365 326 l 210 -26 q 174 -74 200 -60 q 118 -92 149 -89 q 60 -96 88 -96 q 99 -3 79 -53 q 142 115 118 46 q 199 283 165 185 q 282 522 233 382 q 400 856 331 663 q 410 883 403 865 q 417 915 417 900 q 410 935 417 928 q 389 942 404 942 q 326 916 356 942 q 274 852 297 890 q 237 774 250 814 q 224 703 224 733 q 238 639 224 671 q 152 665 178 639 q 126 729 126 690 q 156 824 126 776 q 230 912 185 872 q 326 976 275 951 q 419 1000 376 1000 q 481 974 467 1000 q 496 919 496 949 q 493 890 496 904 q 486 864 490 876 l 383 531 q 419 556 399 540 q 479 601 439 571 q 629 729 557 663 q 763 866 701 796 q 868 1004 824 936 q 890 966 885 989 q 896 929 896 943 q 860 835 896 886 q 767 731 825 785 q 642 624 710 676 q 506 525 574 571 q 383 444 438 479 q 469 315 428 376 q 560 195 510 254 q 677 73 610 136 q 839 -62 744 10 q 801 -103 826 -86 q 753 -121 776 -121 z "},"L":{"ha":847,"x_min":-89,"x_max":843,"o":"m 607 -121 q 492 -100 556 -121 q 360 -50 428 -79 q 229 6 293 -21 q 154 -53 194 -32 q 68 -74 114 -74 q -16 -52 19 -74 q -70 0 -51 -31 q -89 56 -89 31 q -64 104 -89 83 q 25 125 -39 125 q 108 117 63 125 q 200 97 153 110 q 259 228 232 153 q 313 385 286 303 q 365 547 339 468 q 258 613 296 571 q 221 699 221 656 q 235 753 221 726 q 275 799 249 781 q 338 818 301 818 q 315 768 319 796 q 310 724 310 740 q 331 646 310 678 q 382 596 351 614 q 438 748 408 675 q 505 877 468 821 q 587 967 542 933 q 689 1000 632 1000 q 756 987 721 1000 q 817 942 792 974 q 843 850 843 910 q 823 749 843 803 q 760 645 803 694 q 649 563 717 596 q 486 528 582 531 q 480 528 483 528 q 474 528 476 528 q 418 365 447 447 q 356 208 389 283 q 283 75 322 133 q 403 40 338 60 q 535 8 469 21 q 651 -6 601 -6 q 713 2 685 -6 q 774 25 742 10 q 705 -87 746 -53 q 607 -121 664 -121 m 54 -22 q 113 -6 90 -22 q 157 33 135 10 q 76 59 114 49 q 11 69 39 69 q -27 60 -15 69 q -39 36 -39 50 q -11 -4 -39 14 q 54 -22 17 -22 m 489 574 q 597 613 550 578 q 678 696 644 647 q 728 795 711 744 q 746 883 746 846 q 732 933 746 919 q 700 946 718 946 q 624 894 660 946 q 555 759 588 843 q 489 574 522 675 z "},"M":{"ha":1119,"x_min":-7,"x_max":1100,"o":"m -7 -121 q 34 -26 0 -100 q 126 173 68 49 q 263 468 183 297 q 439 853 342 639 q 448 876 444 864 q 451 899 451 889 q 443 921 451 913 q 411 929 435 929 q 316 894 353 929 q 262 807 279 858 q 244 706 244 756 q 246 676 244 693 q 250 639 247 660 q 195 659 217 639 q 163 709 174 679 q 151 765 151 739 q 177 851 151 810 q 244 927 203 893 q 337 981 286 961 q 438 1000 388 1000 q 525 972 489 1000 q 581 869 561 943 q 600 656 600 794 q 594 473 600 565 q 581 300 588 381 q 574 163 574 219 q 642 337 601 244 q 731 520 683 429 q 824 692 778 611 q 906 833 869 772 q 963 922 943 893 q 997 968 982 953 q 1039 983 1013 983 q 1100 968 1058 983 q 1071 884 1088 942 q 1035 750 1054 826 q 993 567 1014 667 q 956 367 972 468 q 928 174 939 265 q 918 14 918 83 q 922 -43 918 -22 q 931 -80 925 -64 q 946 -121 938 -96 q 855 -103 886 -121 q 813 -45 824 -85 q 803 60 803 -6 q 838 384 803 214 q 921 735 874 554 q 840 603 882 679 q 758 442 799 526 q 682 274 718 357 q 618 122 646 192 q 575 4 590 51 q 558 -1 563 0 q 546 -3 553 -3 q 484 56 497 -3 q 471 218 471 115 q 472 334 471 272 q 476 460 474 396 q 481 589 479 525 q 482 711 482 653 q 481 753 482 732 q 481 793 481 774 q 302 373 375 547 q 178 90 229 199 q 83 -70 126 -19 q -7 -121 40 -121 z "},"N":{"ha":936,"x_min":78,"x_max":982,"o":"m 78 -121 q 125 31 99 -51 q 186 226 151 114 q 267 492 221 338 q 372 856 313 646 q 378 876 374 860 q 382 910 382 893 q 378 925 382 921 q 364 929 375 929 q 308 906 335 929 q 259 847 281 882 q 226 773 238 811 q 214 704 214 735 q 228 639 214 671 q 142 665 167 639 q 117 729 117 690 q 146 824 117 776 q 220 912 175 872 q 315 976 265 951 q 404 1000 364 1000 q 484 965 453 1000 q 535 868 515 929 q 569 729 556 807 q 596 565 583 651 q 622 388 613 454 q 638 283 632 322 q 649 218 644 244 q 660 158 654 192 q 694 299 676 225 q 729 450 711 374 q 765 599 747 526 q 800 736 782 672 q 835 849 818 800 q 869 928 853 899 q 909 976 882 950 q 982 1001 936 1001 q 928 847 958 939 q 868 647 899 754 q 809 427 838 539 q 758 210 781 315 q 723 19 736 106 q 710 -121 710 -67 q 626 -97 658 -121 q 576 -1 593 -72 q 560 78 571 22 q 535 209 549 133 q 506 368 521 285 q 476 531 490 451 q 451 674 463 611 q 433 771 440 738 q 326 385 371 543 q 249 128 282 228 q 189 -25 215 29 q 136 -100 163 -79 q 78 -121 110 -121 z "},"O":{"ha":910,"x_min":44,"x_max":894,"o":"m 336 -121 q 189 -78 256 -121 q 83 42 122 -36 q 44 228 44 119 q 78 444 44 335 q 169 652 111 553 q 306 830 228 751 q 472 953 383 908 q 653 999 560 999 q 694 993 667 999 q 747 960 721 988 q 728 962 739 961 q 707 963 718 963 q 561 917 635 963 q 421 796 488 872 q 302 623 354 719 q 219 422 250 526 q 189 219 189 318 q 208 85 189 147 q 271 -16 228 22 q 385 -54 314 -54 q 528 -8 461 -54 q 649 115 594 38 q 742 287 703 192 q 801 483 781 382 q 822 675 822 583 q 817 762 822 715 q 798 842 811 808 q 760 875 785 875 q 708 845 736 875 q 654 769 681 815 q 608 673 628 724 q 579 582 588 622 q 512 613 532 592 q 492 663 492 633 q 518 746 492 700 q 587 834 544 792 q 676 904 629 876 q 763 932 722 932 q 830 902 804 932 q 869 825 856 872 q 889 724 883 778 q 894 625 894 671 q 860 366 894 483 q 766 158 825 249 q 634 6 707 68 q 484 -89 561 -57 q 336 -121 407 -121 z "},"P":{"ha":776,"x_min":47,"x_max":872,"o":"m 163 -121 q 84 -99 121 -121 q 47 -42 47 -76 q 53 -3 47 -24 q 65 36 60 18 q 146 283 108 168 q 222 503 183 397 q 302 717 260 610 q 397 940 344 824 q 307 912 344 929 q 246 881 269 894 q 211 868 222 868 q 191 878 204 868 q 168 900 178 888 q 158 922 158 913 q 249 957 197 939 q 363 988 301 975 q 485 1000 424 1000 q 618 983 550 1000 q 744 931 686 965 q 837 847 801 897 q 872 728 872 796 q 839 601 872 654 q 751 513 806 549 q 632 454 696 476 q 505 421 568 432 q 392 406 442 410 q 317 401 342 401 l 308 401 q 232 127 269 264 q 163 -121 194 -10 m 321 444 q 476 471 399 450 q 617 528 554 492 q 719 621 681 565 q 757 750 757 676 q 720 863 757 819 q 626 928 683 906 q 504 951 568 950 q 408 722 454 854 q 321 444 363 589 z "},"Q":{"ha":1011,"x_min":61,"x_max":940,"o":"m 776 -165 q 652 -131 710 -165 q 542 -54 594 -97 q 470 -80 507 -71 q 393 -89 433 -89 q 306 -74 339 -89 q 257 -39 274 -60 q 234 3 240 -18 q 228 36 228 24 q 253 93 228 64 q 342 122 278 122 q 456 97 400 122 q 571 36 511 71 q 677 172 631 90 q 756 345 724 253 q 804 527 788 438 q 821 689 821 617 q 776 872 821 801 q 631 943 732 943 q 481 898 550 943 q 356 777 411 853 q 262 607 301 701 q 201 412 222 513 q 181 218 181 311 q 184 155 181 190 q 197 79 188 119 q 115 108 144 79 q 73 182 85 136 q 61 279 61 228 q 89 485 61 382 q 167 681 117 589 q 289 846 218 774 q 447 959 360 918 q 631 1000 533 1000 q 857 908 774 1000 q 940 656 940 817 q 917 479 940 571 q 853 299 894 388 q 755 133 811 210 q 632 3 699 57 q 728 -35 678 -19 q 831 -51 778 -51 q 883 -44 867 -51 q 929 -31 900 -37 q 885 -118 913 -89 q 830 -156 858 -147 q 776 -165 801 -165 m 368 -47 q 438 -35 406 -47 q 492 -14 469 -24 q 410 44 451 19 q 326 69 369 69 q 284 58 299 69 q 269 26 269 46 q 278 -5 269 13 q 309 -35 288 -22 q 368 -47 331 -47 z "},"R":{"ha":856,"x_min":43,"x_max":864,"o":"m 701 -168 q 625 -132 668 -168 q 535 -37 582 -96 q 444 91 489 21 q 358 232 399 161 q 290 360 318 303 q 219 108 253 232 q 154 -122 185 -17 q 78 -100 114 -122 q 43 -42 43 -78 q 50 -6 43 -26 q 63 35 57 15 q 135 251 103 156 q 195 426 167 346 q 253 584 224 506 q 319 749 283 663 q 403 943 356 835 q 308 914 349 932 q 241 882 267 896 q 206 868 215 868 q 185 877 199 868 q 160 899 171 886 q 150 922 150 913 q 241 956 189 938 q 356 987 293 974 q 485 1000 418 1000 q 614 985 547 1000 q 738 939 681 971 q 829 856 794 907 q 864 732 864 804 q 835 619 864 667 q 757 538 806 571 q 650 483 708 504 q 532 451 592 463 q 422 435 472 439 q 338 429 371 431 q 425 292 382 358 q 517 159 468 225 q 632 27 567 93 q 786 -107 697 -39 q 752 -151 781 -135 q 701 -168 724 -168 m 322 471 q 476 496 400 476 q 613 550 551 515 q 712 637 675 585 q 749 760 749 689 q 713 873 749 832 q 619 932 676 914 q 500 951 563 950 q 408 733 453 858 q 322 471 364 607 z "},"S":{"ha":788,"x_min":6,"x_max":732,"o":"m 324 -121 q 170 -93 243 -121 q 51 -8 97 -65 q 6 133 6 49 q 39 251 6 208 q 122 310 72 293 q 219 326 172 326 q 152 229 175 279 q 129 133 129 179 q 153 45 129 86 q 226 -22 178 4 q 347 -47 275 -47 q 469 -26 410 -47 q 566 36 528 -6 q 604 140 604 78 q 572 238 604 197 q 488 312 539 279 q 379 374 436 344 q 271 439 322 404 q 187 519 219 474 q 154 629 154 565 q 183 751 154 686 q 264 872 211 815 q 392 965 317 929 q 558 1000 467 1000 q 693 960 654 1000 q 732 854 732 919 q 714 744 732 803 q 670 633 696 686 q 621 543 644 581 q 575 567 590 550 q 560 614 560 585 q 572 679 560 643 q 599 754 583 715 q 627 830 615 793 q 639 894 639 867 q 624 933 639 919 q 565 947 610 947 q 443 918 499 947 q 347 844 388 889 q 283 751 306 800 q 261 661 261 701 q 293 576 261 611 q 376 511 325 540 q 483 453 426 482 q 590 388 539 424 q 672 301 640 351 q 704 179 704 251 q 672 51 704 107 q 583 -42 639 -4 q 460 -101 528 -81 q 324 -121 393 -121 z "},"T":{"ha":750,"x_min":106,"x_max":967,"o":"m 324 -121 q 218 -91 247 -121 q 188 -14 189 -61 q 203 83 188 26 q 236 190 219 139 q 306 385 269 289 q 378 569 342 481 q 449 739 415 658 q 513 888 483 819 q 349 882 418 886 q 224 872 281 878 q 106 854 167 865 q 160 944 113 913 q 289 988 208 975 q 474 1000 369 1000 q 576 998 528 1000 q 667 992 624 996 q 753 983 711 988 q 892 972 840 975 q 967 969 944 969 q 862 913 925 931 q 729 892 799 896 q 597 888 660 888 q 475 547 531 724 q 372 199 419 371 q 342 85 354 132 q 325 1 331 39 q 319 -81 319 -37 q 320 -97 319 -87 q 324 -121 321 -106 z "},"U":{"ha":1042,"x_min":46,"x_max":1061,"o":"m 817 -137 q 728 -92 765 -137 q 692 18 692 -46 q 692 49 692 29 q 694 90 693 68 q 572 -62 644 -3 q 399 -122 500 -122 q 253 -67 306 -122 q 201 89 201 -11 q 218 222 201 150 q 260 369 235 293 q 310 523 285 446 q 351 675 335 600 q 368 817 368 750 q 293 942 368 942 q 229 918 256 942 q 185 859 203 894 q 160 788 168 824 q 151 726 151 751 q 157 681 151 706 q 169 638 163 657 q 74 668 103 638 q 46 744 46 699 q 67 832 46 788 q 126 915 88 876 q 215 976 164 953 q 326 999 267 999 q 449 950 411 999 q 488 819 488 901 q 475 706 488 768 q 443 576 463 643 q 404 447 424 510 q 347 252 369 335 q 325 104 325 169 q 351 -3 325 40 q 440 -47 378 -47 q 544 -12 497 -47 q 627 80 592 24 q 688 199 663 136 q 725 315 713 261 q 768 490 744 397 q 817 674 792 583 q 869 838 843 764 q 922 955 896 911 q 972 999 947 999 q 1010 984 986 999 q 1061 944 1035 969 q 1025 886 1049 935 q 972 761 1001 838 q 913 593 943 685 q 859 405 883 501 q 819 219 835 308 q 804 61 804 131 q 833 -53 804 -25 q 935 -81 863 -81 q 883 -122 919 -107 q 817 -137 847 -137 z "},"V":{"ha":929,"x_min":47,"x_max":965,"o":"m 340 -121 q 287 -112 318 -121 q 231 -76 256 -103 q 207 3 207 -49 q 224 107 207 46 q 265 243 240 168 q 315 405 290 318 q 357 585 340 492 q 374 776 374 679 q 367 863 374 825 q 342 921 360 900 q 289 942 324 942 q 228 921 253 942 q 187 867 203 900 q 163 797 171 833 q 156 729 156 761 q 160 683 156 706 q 176 639 165 661 q 78 671 108 639 q 47 750 47 703 q 68 836 47 792 q 126 917 89 881 q 212 977 163 954 q 317 1000 261 1000 q 460 931 411 1000 q 508 743 508 863 q 491 583 508 667 q 449 416 474 500 q 398 253 424 332 q 355 106 372 174 q 338 -11 338 39 q 344 -46 338 -33 q 371 -58 350 -58 q 462 -21 411 -58 q 567 81 513 17 q 672 228 621 146 q 765 399 724 310 q 831 575 807 488 q 856 736 856 663 q 829 849 856 810 q 763 901 803 888 q 810 962 782 943 q 861 981 839 981 q 932 933 899 981 q 965 800 965 886 q 937 628 965 725 q 858 428 908 532 q 745 227 808 325 q 612 51 682 129 q 472 -74 542 -28 q 340 -121 403 -121 z "},"W":{"ha":1324,"x_min":47,"x_max":1361,"o":"m 342 -121 q 306 -117 328 -121 q 260 -101 283 -112 q 222 -64 238 -89 q 207 3 207 -39 q 221 94 207 38 q 268 258 235 150 q 317 420 293 340 q 358 586 342 500 q 374 769 374 672 q 367 865 374 826 q 341 924 360 904 q 289 944 322 944 q 231 926 256 944 q 189 878 206 908 q 164 813 172 849 q 156 740 156 776 q 176 639 156 679 q 78 671 108 639 q 47 750 47 703 q 68 836 47 792 q 126 917 89 881 q 211 977 163 954 q 315 1000 260 1000 q 459 931 410 1000 q 508 733 508 861 q 483 534 508 638 q 418 308 457 431 q 385 210 404 264 q 352 101 367 157 q 338 -11 338 44 q 344 -48 338 -37 q 368 -58 350 -58 q 448 -26 406 -58 q 533 60 490 6 q 616 181 576 114 q 689 317 656 247 q 744 451 722 388 q 774 561 767 514 q 856 532 826 561 q 885 476 885 503 q 873 429 885 463 q 833 331 861 396 q 788 219 811 278 q 748 102 764 160 q 732 -6 732 44 q 740 -46 732 -33 q 768 -58 747 -58 q 858 -20 807 -58 q 963 84 908 18 q 1068 233 1017 150 q 1161 404 1119 315 q 1227 579 1203 493 q 1251 736 1251 665 q 1224 844 1251 813 q 1157 890 1197 876 q 1210 949 1182 931 q 1261 968 1239 968 q 1327 927 1293 968 q 1361 799 1361 886 q 1333 629 1361 725 q 1255 430 1304 533 q 1142 228 1206 326 q 1008 51 1079 131 q 864 -74 936 -28 q 726 -121 792 -121 q 662 -106 690 -121 q 617 -65 633 -92 q 601 -1 601 -37 q 606 33 601 15 q 615 69 610 51 q 478 -69 547 -17 q 342 -121 410 -121 z "},"X":{"ha":981,"x_min":63,"x_max":988,"o":"m 63 -156 q 76 -89 67 -114 q 99 -45 85 -64 q 135 -4 114 -26 q 217 83 181 44 q 288 160 253 122 q 362 246 322 199 q 454 357 401 293 q 444 448 449 404 q 438 531 440 492 q 433 606 435 571 q 431 672 432 642 q 422 831 426 769 q 401 921 417 892 q 349 950 386 950 q 289 930 314 950 q 247 877 264 910 q 222 808 231 844 q 214 739 214 772 q 232 650 214 690 q 136 681 164 650 q 108 756 108 711 q 131 844 108 800 q 190 924 153 888 q 276 982 228 960 q 379 1004 325 1004 q 485 969 446 1004 q 542 878 524 935 q 567 756 561 822 q 573 626 572 690 q 576 514 574 563 q 759 784 683 658 q 885 1011 835 910 q 910 981 896 1004 q 924 938 924 958 q 897 856 924 910 q 822 731 869 803 q 713 577 775 660 q 579 408 650 494 q 593 240 583 321 q 619 97 603 160 q 658 -3 635 33 q 713 -40 682 -40 q 817 37 757 -40 q 957 253 876 114 l 988 228 q 883 40 931 115 q 786 -73 835 -35 q 678 -111 738 -111 q 579 -76 618 -111 q 517 15 540 -42 q 481 137 493 71 q 463 265 469 203 q 303 84 382 169 q 160 -65 224 -1 q 63 -156 97 -128 z "},"Y":{"ha":981,"x_min":44,"x_max":1057,"o":"m 397 -260 q 255 -224 313 -260 q 197 -122 197 -189 q 224 -44 197 -79 q 303 1 251 -10 q 291 -56 294 -36 q 288 -93 288 -75 q 318 -180 288 -149 q 414 -211 349 -211 q 498 -195 461 -211 q 563 -151 535 -179 q 613 -85 592 -122 q 651 -3 635 -47 q 678 86 667 40 q 713 260 700 175 q 742 399 725 346 q 617 256 688 311 q 451 201 546 201 q 319 253 358 201 q 281 379 281 304 q 294 491 281 431 q 325 615 307 551 q 356 737 343 678 q 369 842 369 796 q 353 913 369 883 q 294 942 338 942 q 230 920 257 942 q 185 864 203 899 q 160 790 168 829 q 151 715 151 751 q 155 678 151 693 q 168 638 158 663 q 72 669 100 638 q 44 744 44 700 q 65 831 44 786 q 124 915 86 876 q 214 976 163 953 q 325 1000 265 1000 q 417 979 381 1000 q 470 924 453 958 q 488 847 488 889 q 478 774 488 817 q 449 660 468 731 q 414 526 429 589 q 399 407 399 463 q 421 313 399 349 q 497 276 443 276 q 587 303 544 276 q 667 377 629 331 q 735 483 704 424 q 788 610 765 543 q 824 728 806 663 q 865 857 843 794 q 910 960 886 919 q 963 1000 935 1000 q 1005 986 978 1000 q 1057 947 1032 972 q 1005 860 1026 901 q 965 769 983 818 q 926 655 946 721 q 883 495 907 589 q 828 268 860 401 q 787 122 810 196 q 731 -21 764 47 q 653 -143 699 -89 q 544 -228 607 -197 q 397 -260 482 -260 z "},"Z":{"ha":944,"x_min":-11,"x_max":996,"o":"m 681 -121 q 558 -100 622 -121 q 431 -51 493 -79 q 318 0 369 -22 q 224 -55 269 -35 q 133 -75 178 -75 q 56 -56 88 -75 q 6 -9 24 -37 q -11 46 -11 19 q 15 101 -11 76 q 107 125 40 125 q 199 115 149 125 q 303 90 249 106 q 435 247 368 156 q 564 436 503 339 q 482 431 524 435 q 376 418 440 426 l 335 413 q 368 485 338 460 q 448 521 399 511 q 554 531 497 531 q 589 530 575 531 q 618 528 603 529 q 711 696 671 617 q 774 833 751 775 q 720 850 744 842 q 663 871 696 858 q 487 926 551 911 q 382 942 422 942 q 304 924 339 942 q 249 863 269 907 q 229 736 229 818 q 231 738 229 746 q 235 716 232 729 q 242 696 239 703 q 163 733 188 706 q 139 806 139 761 q 212 950 139 900 q 424 1000 285 1000 q 567 987 500 1000 q 695 956 635 974 q 813 926 756 939 q 926 913 869 913 q 961 914 940 913 q 996 918 982 915 q 944 872 965 888 q 908 850 924 857 q 835 696 879 782 q 736 518 792 610 q 822 510 789 514 q 894 507 856 507 q 849 463 872 476 q 790 444 826 449 q 689 439 754 440 q 547 235 622 333 q 396 65 471 138 q 575 17 486 39 q 728 -6 664 -6 q 792 2 763 -6 q 853 25 821 10 q 782 -89 822 -57 q 681 -121 742 -121 m 122 -29 q 175 -12 147 -29 q 238 32 203 6 q 157 61 194 49 q 90 74 119 74 q 48 63 61 74 q 35 38 35 53 q 60 -7 35 15 q 122 -29 85 -29 z "},"a":{"ha":617,"x_min":-36,"x_max":676,"o":"m 78 -65 q -2 -35 32 -65 q -36 57 -36 -4 q -14 163 -36 106 q 47 275 8 219 q 136 376 86 331 q 243 449 186 421 q 357 476 300 476 q 458 446 417 476 q 500 365 500 415 q 474 311 500 328 q 411 301 447 294 q 416 326 414 314 q 418 353 418 339 q 407 403 418 381 q 360 425 396 425 q 281 399 321 425 q 203 330 240 372 q 138 237 167 288 q 92 138 108 186 q 75 50 75 89 q 107 6 75 6 q 178 37 139 6 q 256 115 217 68 q 332 212 296 163 q 394 296 368 261 q 406 303 399 303 q 427 297 411 301 q 457 282 443 292 q 471 257 471 272 q 459 222 471 243 q 431 174 447 200 q 403 123 415 149 q 392 74 392 97 q 401 40 392 56 q 433 24 411 24 q 527 73 467 24 q 650 240 588 122 l 676 214 q 597 81 643 139 q 499 -9 550 24 q 394 -42 447 -42 q 310 -6 338 -42 q 279 72 282 31 q 279 76 279 75 q 279 79 279 78 q 177 -26 224 13 q 78 -65 131 -65 z "},"b":{"ha":568,"x_min":-15,"x_max":625,"o":"m 146 -101 q 26 -52 67 -101 q -15 83 -15 -3 q 8 244 -15 151 q 71 440 32 338 q 158 640 110 542 q 256 817 206 738 q 350 944 306 897 q 426 992 394 992 q 468 960 454 992 q 483 896 482 928 q 467 801 483 857 q 419 683 450 746 q 349 560 389 621 q 260 449 308 499 q 161 369 213 399 q 137 307 151 351 q 110 206 122 263 q 99 92 99 149 q 115 -3 99 36 q 171 -43 131 -43 q 249 -10 207 -43 q 317 71 290 24 q 239 149 265 99 q 213 254 213 199 q 249 364 213 322 q 339 406 286 406 q 413 372 383 406 q 442 267 442 338 q 431 181 442 226 q 400 92 421 136 q 412 91 407 92 q 425 90 417 90 q 508 117 474 90 q 567 179 543 143 q 604 244 590 215 l 625 215 q 540 90 590 133 q 407 47 489 47 q 392 47 400 47 q 378 49 385 47 q 281 -58 339 -14 q 146 -101 224 -101 m 340 117 q 359 173 353 144 q 365 235 365 201 q 353 308 365 285 q 325 332 342 332 q 294 307 307 332 q 281 247 281 282 q 293 179 281 218 q 340 117 306 140 m 188 457 q 255 531 222 489 q 316 620 288 574 q 366 712 344 667 q 401 794 388 757 q 418 853 415 831 q 418 858 418 856 q 418 861 418 860 q 377 821 406 857 q 313 727 349 785 q 244 599 278 669 q 188 457 211 529 z "},"c":{"ha":463,"x_min":-8,"x_max":522,"o":"m 157 -78 q 38 -33 85 -78 q -8 106 -8 13 q 18 239 -8 174 q 89 356 44 304 q 188 439 133 408 q 300 469 243 469 q 384 440 358 469 q 410 372 410 411 q 391 297 410 333 q 340 260 372 260 q 297 286 314 260 q 326 322 311 296 q 342 390 342 349 q 336 408 342 401 q 315 414 331 414 q 242 383 281 414 q 172 302 204 351 q 119 198 139 253 q 99 97 99 143 q 119 26 99 58 q 197 -7 139 -7 q 307 24 250 -7 q 414 109 364 54 q 494 240 464 164 l 522 215 q 430 65 489 131 q 299 -40 371 -1 q 157 -78 228 -78 z "},"d":{"ha":682,"x_min":-22,"x_max":790,"o":"m 96 -42 q 42 -28 69 -42 q -3 13 15 -15 q -22 83 -22 40 q 0 186 -22 129 q 60 300 22 243 q 149 404 99 357 q 257 481 200 451 q 372 510 314 510 q 422 499 404 510 q 440 465 440 489 q 438 449 440 458 q 424 433 435 440 q 404 445 418 442 q 375 449 390 449 q 288 423 329 449 q 211 357 246 397 q 151 269 176 317 q 111 178 125 222 q 97 103 97 135 q 108 60 97 76 q 142 44 119 44 q 231 88 179 44 q 338 215 283 132 q 438 413 393 297 q 501 574 468 492 q 568 733 535 657 q 634 869 601 810 q 697 965 667 929 q 751 1000 726 1000 q 778 988 767 1000 q 790 958 790 976 q 767 883 790 935 q 709 758 744 831 q 633 602 674 686 q 556 430 592 518 q 498 256 521 342 q 475 96 475 171 q 481 51 475 63 q 503 39 488 39 q 571 63 533 39 q 647 133 608 86 q 718 244 686 179 l 744 222 q 667 88 714 146 q 565 -3 619 29 q 458 -36 511 -36 q 379 0 401 -36 q 357 85 357 36 q 360 130 357 107 q 368 175 364 153 q 277 63 325 113 q 183 -14 229 14 q 96 -42 138 -42 z "},"e":{"ha":474,"x_min":-24,"x_max":535,"o":"m 161 -61 q 24 -13 72 -61 q -24 107 -24 35 q 8 237 -24 168 q 92 366 39 306 q 208 464 144 426 q 336 501 272 501 q 405 483 372 501 q 438 408 438 464 q 407 310 438 356 q 325 228 376 264 q 212 169 274 192 q 88 139 150 146 q 85 127 86 133 q 85 107 85 121 q 87 83 85 100 q 99 46 89 65 q 131 13 108 26 q 192 -1 153 -1 q 309 31 250 -1 q 420 118 368 64 q 507 239 472 172 l 535 217 q 438 71 497 133 q 308 -26 379 8 q 161 -61 236 -61 m 103 190 q 183 215 139 194 q 269 268 228 236 q 336 338 310 300 q 363 415 363 376 q 357 436 363 431 q 339 442 351 442 q 272 419 307 442 q 204 359 238 396 q 144 278 171 322 q 103 190 118 233 z "},"f":{"ha":458,"x_min":-92,"x_max":572,"o":"m -1 -389 q -38 -379 -17 -389 q -76 -341 -60 -369 q -92 -256 -92 -312 q -72 -99 -92 -196 q -16 115 -51 -3 q 67 356 19 232 q 170 594 115 479 q 284 800 225 708 q 401 946 343 892 q 514 1000 460 1000 q 561 978 550 1000 q 572 929 572 957 q 540 799 572 869 q 453 656 507 728 q 331 521 399 585 q 193 411 264 457 q 182 383 188 397 q 171 356 176 369 q 195 336 186 350 q 206 307 204 322 q 228 201 217 247 q 262 128 239 154 q 328 101 285 101 q 414 138 376 101 q 490 239 451 174 l 521 217 q 421 87 476 128 q 321 46 365 46 q 272 56 297 46 q 222 83 246 65 q 202 -87 221 -3 q 151 -239 183 -171 q 80 -348 119 -307 q -1 -389 40 -389 m 38 -303 q 70 -276 53 -303 q 104 -207 88 -250 q 135 -112 121 -164 q 157 -9 149 -60 q 165 83 165 42 q 156 155 165 124 q 125 225 147 186 q 68 40 93 129 q 29 -122 43 -49 q 15 -243 15 -194 q 38 -303 15 -303 m 233 508 q 378 663 318 588 q 469 795 438 738 q 500 876 500 853 q 489 888 500 888 q 413 837 456 888 q 324 700 369 786 q 233 508 278 614 z "},"g":{"ha":560,"x_min":-25,"x_max":619,"o":"m 69 -389 q 5 -368 35 -389 q -25 -300 -25 -347 q 1 -220 -25 -256 q 69 -155 26 -185 q 160 -100 111 -125 q 254 -53 208 -75 q 283 28 269 -15 q 310 121 297 71 q 208 19 261 60 q 99 -21 154 -21 q 10 18 43 -21 q -22 121 -22 57 q 15 259 -22 194 q 110 374 51 324 q 235 453 168 425 q 363 482 301 482 q 429 466 407 482 q 451 429 451 450 q 442 403 451 413 q 429 392 432 393 q 401 412 415 407 q 367 417 386 417 q 263 386 313 417 q 174 308 213 356 q 114 208 136 260 q 92 115 92 157 q 104 73 92 88 q 135 58 117 58 q 229 109 174 58 q 336 232 285 160 q 341 252 339 243 q 344 269 343 261 q 378 351 358 325 q 432 378 397 378 q 449 376 439 378 q 472 372 460 375 q 458 290 472 347 q 421 158 444 233 q 368 3 397 82 q 456 53 411 21 q 538 133 500 86 q 594 236 575 179 l 619 211 q 551 94 597 147 q 450 3 504 42 q 350 -56 396 -35 q 269 -223 313 -147 q 176 -344 225 -299 q 69 -389 126 -389 m 64 -325 q 133 -278 89 -325 q 228 -118 176 -231 q 133 -169 176 -143 q 64 -225 90 -196 q 38 -286 38 -254 q 45 -315 38 -304 q 64 -325 53 -325 z "},"h":{"ha":686,"x_min":7,"x_max":746,"o":"m 64 -53 q 20 -6 33 -53 q 7 104 7 42 q 28 258 7 168 q 87 449 50 349 q 169 644 124 549 q 262 819 214 740 q 353 944 310 897 q 431 992 397 992 q 475 960 460 992 q 490 893 490 928 q 473 801 490 856 q 425 683 456 746 q 353 560 394 621 q 265 450 313 500 q 165 369 217 400 q 137 281 147 322 q 122 204 126 240 q 118 133 118 168 q 119 119 118 126 q 119 104 119 111 q 138 147 125 113 q 172 228 150 182 q 225 320 193 275 q 300 395 257 365 q 399 425 343 425 q 472 403 446 425 q 510 351 499 382 q 521 288 521 319 q 506 204 521 243 q 477 131 492 165 q 463 67 463 97 q 474 32 463 42 q 500 22 485 22 q 572 53 531 22 q 653 134 613 83 q 724 246 694 185 l 746 222 q 671 94 714 153 q 576 1 628 36 q 465 -33 525 -33 q 385 -6 413 -33 q 357 64 357 22 q 367 128 357 93 q 388 200 378 164 q 397 265 397 236 q 383 311 397 299 q 347 324 368 324 q 285 297 313 324 q 235 226 257 269 q 193 135 213 183 q 154 44 174 88 q 113 -26 135 1 q 64 -53 92 -53 m 194 458 q 264 535 231 490 q 326 627 297 579 q 376 720 354 675 q 410 801 397 765 q 424 857 422 838 q 424 859 424 858 q 424 861 424 860 q 388 827 415 861 q 326 735 361 793 q 255 606 290 678 q 194 458 219 533 z "},"i":{"ha":339,"x_min":-11,"x_max":396,"o":"m 111 -42 q 19 -6 50 -42 q -11 82 -11 31 q 0 163 -11 114 q 31 265 11 211 q 78 365 51 318 q 135 442 104 413 q 196 472 165 472 q 225 463 213 472 q 238 432 238 453 q 216 378 238 414 q 166 294 194 342 q 116 197 138 247 q 94 100 94 146 q 110 41 94 56 q 157 26 126 26 q 260 74 204 26 q 375 239 315 121 l 396 217 q 272 26 347 94 q 111 -42 197 -42 m 275 585 q 227 598 249 585 q 206 639 206 611 q 242 696 206 672 q 317 719 278 719 q 359 708 342 719 q 376 668 376 697 q 344 612 376 639 q 275 585 313 585 z "},"j":{"ha":315,"x_min":-274,"x_max":372,"o":"m -186 -389 q -250 -366 -226 -389 q -274 -307 -274 -343 q -224 -196 -274 -253 q -96 -92 -174 -139 q -49 -67 -72 -79 q 0 -46 -25 -56 q 44 82 24 11 q 79 236 64 153 q 55 197 68 217 q 31 157 42 178 l 7 194 q 51 292 32 242 q 89 387 71 343 q 126 458 107 431 q 172 486 146 486 q 203 472 192 486 q 215 435 215 457 q 208 378 215 419 q 189 278 201 338 q 158 149 176 218 q 115 8 139 79 q 194 57 156 31 q 270 124 232 83 q 347 231 308 165 l 372 214 q 281 76 329 125 q 184 1 232 28 q 93 -54 136 -26 q 20 -215 63 -137 q -74 -340 -22 -292 q -186 -389 -126 -389 m -201 -322 q -129 -271 -176 -322 q -32 -118 -82 -219 q -172 -213 -125 -165 q -218 -299 -218 -261 q -213 -317 -218 -312 q -201 -322 -208 -322 m 193 589 q 145 602 167 589 q 124 642 124 615 q 142 684 124 665 q 186 714 160 703 q 238 725 213 725 q 278 713 261 725 q 294 676 294 701 q 264 615 294 642 q 193 589 233 589 z "},"k":{"ha":642,"x_min":3,"x_max":699,"o":"m 440 -53 q 365 -25 397 -53 q 314 44 333 3 q 285 130 294 86 q 275 206 275 174 q 324 218 294 210 q 383 241 353 226 q 434 277 414 256 q 454 329 454 299 q 438 369 454 354 q 393 385 422 385 q 319 359 354 385 q 255 292 285 333 q 201 201 225 250 q 158 107 176 153 q 126 28 139 61 q 97 -28 111 -14 q 57 -43 83 -43 q 34 -37 47 -43 q 12 -10 21 -32 q 3 61 3 13 q 26 247 3 146 q 90 453 50 349 q 176 654 129 558 q 272 826 224 750 q 363 947 321 903 q 433 992 406 992 q 473 963 457 992 q 489 890 489 935 q 468 785 489 843 q 409 669 447 728 q 318 557 371 610 q 201 467 265 504 q 142 288 163 376 q 115 132 121 200 q 172 249 140 189 q 243 360 204 308 q 327 444 282 413 q 424 476 372 476 q 521 438 479 476 q 563 340 563 399 q 540 268 563 299 q 485 217 518 238 q 419 188 453 197 q 363 176 386 178 q 374 131 367 158 q 394 76 382 103 q 426 32 407 50 q 472 14 446 14 q 544 46 507 14 q 616 131 581 78 q 679 247 651 183 l 699 224 q 634 90 675 154 q 543 -13 593 26 q 440 -53 493 -53 m 242 561 q 321 644 279 594 q 392 749 363 693 q 424 857 422 806 q 424 859 424 858 q 424 861 424 860 q 380 813 410 856 q 314 706 350 771 q 242 561 278 640 z "},"l":{"ha":340,"x_min":3,"x_max":503,"o":"m 119 -42 q 28 2 54 -42 q 3 106 3 46 q 28 265 3 174 q 94 458 53 357 q 184 655 135 558 q 283 829 233 751 q 376 953 333 907 q 444 1000 418 1000 q 475 981 463 1000 q 495 937 488 963 q 503 889 503 911 q 484 791 503 851 q 431 658 465 731 q 351 510 397 586 q 248 367 304 435 q 128 249 192 299 q 117 180 122 214 q 113 118 113 146 q 129 45 113 68 q 172 22 146 22 q 244 55 207 22 q 315 138 281 88 q 374 243 349 189 l 407 225 q 274 30 347 101 q 119 -42 200 -42 m 153 335 q 242 447 200 386 q 320 569 285 507 q 382 690 356 632 q 423 795 408 749 q 439 869 438 842 q 439 872 439 871 q 439 874 439 872 q 403 842 428 874 q 346 757 379 811 q 277 633 313 703 q 209 487 242 564 q 153 335 176 410 z "},"m":{"ha":917,"x_min":-49,"x_max":975,"o":"m 726 -43 q 646 -11 672 -43 q 619 65 619 21 q 629 129 619 97 q 649 192 639 161 q 658 249 658 224 q 649 281 658 272 q 626 290 640 290 q 552 242 594 290 q 447 100 510 193 q 406 30 425 67 q 371 -32 386 -7 q 338 -28 358 -32 q 303 -16 318 -24 q 288 4 288 -8 q 301 53 288 17 q 333 137 315 89 q 365 231 351 185 q 379 310 379 278 q 372 340 379 329 q 350 351 365 351 q 280 317 321 351 q 194 226 239 282 q 109 101 149 169 q 44 -37 69 32 q 7 -31 29 -37 q -32 -16 -15 -25 q -49 0 -49 -7 q -39 40 -49 1 q -15 135 -29 78 q 14 251 -1 192 q 40 356 29 311 q 71 383 44 371 q 117 394 97 394 q 150 382 136 394 q 164 349 164 369 q 158 308 164 335 q 144 249 153 282 q 206 326 174 288 q 274 394 239 364 q 345 443 310 425 q 415 461 381 461 q 485 424 467 461 q 503 344 503 388 q 500 309 503 326 q 492 274 497 292 q 479 233 488 257 q 537 305 506 272 q 604 357 568 338 q 681 376 640 376 q 756 344 735 376 q 776 272 776 311 q 765 197 776 236 q 741 122 753 157 q 729 61 729 86 q 736 35 729 47 q 764 24 743 24 q 836 58 801 24 q 901 144 871 93 q 951 240 931 194 l 975 211 q 917 95 953 154 q 835 -3 882 36 q 726 -43 788 -43 z "},"n":{"ha":657,"x_min":-53,"x_max":717,"o":"m 468 -28 q 385 -1 414 -28 q 357 68 357 26 q 367 127 357 96 q 386 190 376 158 q 396 251 396 222 q 381 294 396 282 q 347 306 367 306 q 262 272 306 306 q 177 186 218 238 q 100 79 136 135 q 38 -21 64 24 q -12 -12 11 -21 q -53 19 -36 -3 q -37 62 -51 26 q -4 147 -22 97 q 28 250 14 196 q 42 349 42 304 q 72 371 51 360 q 114 382 92 382 q 163 340 163 382 q 156 291 163 324 q 139 217 150 258 q 218 308 175 265 q 308 378 261 351 q 401 406 354 406 q 490 365 461 406 q 518 276 518 325 q 504 199 518 235 q 477 131 490 163 q 464 68 464 99 q 474 37 464 46 q 497 28 485 28 q 567 60 531 28 q 635 141 603 92 q 693 240 668 190 l 717 221 q 651 97 688 153 q 569 6 614 40 q 468 -28 524 -28 z "},"o":{"ha":517,"x_min":-17,"x_max":574,"o":"m 92 -44 q 6 -3 29 -44 q -17 86 -17 38 q -3 177 -17 131 q 35 264 11 224 q 90 328 60 304 q 150 353 119 353 q 173 349 160 353 q 192 339 186 346 q 158 288 175 318 q 126 223 140 257 q 103 154 111 189 q 94 90 94 119 q 105 44 94 63 q 142 26 115 26 q 205 56 168 26 q 275 125 242 86 q 211 213 231 165 q 192 329 192 261 q 206 396 192 358 q 253 461 221 433 q 342 489 286 489 q 426 456 401 489 q 450 376 450 422 q 423 261 450 325 q 358 140 396 197 q 397 132 375 132 q 447 142 418 132 q 504 174 476 151 q 549 236 532 197 l 574 218 q 492 115 543 147 q 393 82 442 82 q 357 85 375 82 q 324 94 339 89 q 215 -3 276 39 q 92 -44 154 -44 m 311 169 q 368 274 344 218 q 392 376 392 329 q 382 423 392 408 q 353 438 372 438 q 299 400 326 438 q 271 306 271 363 q 281 235 271 276 q 311 169 292 193 z "},"p":{"ha":574,"x_min":-133,"x_max":532,"o":"m -78 -389 q -101 -383 -89 -389 q -123 -368 -114 -376 q -133 -354 -132 -360 q -74 -178 -99 -253 q -33 -38 -50 -104 q -3 99 -17 28 q 23 263 10 171 q 53 486 36 356 q 60 510 56 503 q 86 518 64 518 q 149 495 129 518 q 168 444 168 472 q 163 396 168 431 q 149 314 158 361 q 209 390 175 354 q 285 449 243 426 q 375 472 326 472 q 488 426 443 472 q 532 306 532 381 q 508 191 532 251 q 439 77 483 131 q 332 -10 394 24 q 194 -44 269 -44 q 124 -33 150 -44 q 97 -8 97 -22 q 108 3 97 1 q 131 6 118 6 q 249 33 196 7 q 342 102 303 60 q 401 193 381 144 q 422 289 422 242 q 403 361 422 331 q 344 392 385 392 q 274 369 310 392 q 208 313 239 347 q 154 242 178 279 q 118 178 131 206 q 70 -5 92 86 q 29 -174 49 -96 q -10 -306 10 -251 q -54 -379 -31 -360 q -78 -389 -65 -389 z "},"q":{"ha":579,"x_min":-19,"x_max":639,"o":"m 300 -389 q 259 -366 278 -389 q 240 -279 240 -343 q 248 -171 240 -236 q 270 -32 256 -106 q 303 107 285 42 q 196 -6 247 39 q 96 -50 144 -50 q 45 -37 72 -50 q -1 4 18 -24 q -19 78 -19 32 q 3 183 -19 126 q 66 296 26 240 q 157 397 106 351 q 267 469 208 442 q 385 496 325 496 q 474 474 438 496 q 510 418 510 453 q 505 392 510 407 q 488 371 500 378 q 453 372 475 364 q 432 419 453 401 q 376 438 411 438 q 287 412 329 438 q 210 346 244 386 q 149 259 175 306 q 110 169 124 213 q 96 96 96 126 q 108 53 96 71 q 142 35 119 35 q 199 61 168 35 q 264 130 231 88 q 331 222 297 172 q 399 319 365 272 q 419 347 411 338 q 438 367 428 357 q 467 368 444 374 q 497 356 490 363 q 508 329 508 344 q 486 265 508 300 q 435 176 464 229 q 388 40 407 122 q 503 93 444 47 q 614 235 563 139 l 639 213 q 522 60 588 110 q 388 -1 456 10 q 405 -72 399 -35 q 411 -147 411 -110 q 397 -270 411 -215 q 358 -357 383 -325 q 300 -389 333 -389 m 329 -299 q 342 -274 338 -299 q 349 -212 347 -250 q 351 -139 351 -175 q 351 -101 351 -115 q 347 -74 350 -87 q 330 -177 336 -129 q 324 -269 324 -225 q 325 -293 324 -287 q 329 -299 326 -299 z "},"r":{"ha":504,"x_min":0,"x_max":568,"o":"m 257 -36 q 174 -9 206 -36 q 142 64 142 18 q 161 147 142 103 q 201 235 181 192 q 221 311 221 278 q 200 365 221 343 q 151 400 179 386 q 83 252 121 324 q 21 140 44 181 l 0 181 q 51 283 19 217 q 113 432 83 350 q 99 469 99 446 q 121 538 99 506 q 164 569 143 569 q 188 551 181 569 q 196 525 196 532 q 190 500 196 518 q 181 474 183 482 q 205 444 182 458 q 257 410 228 429 q 308 361 286 390 q 331 288 331 332 q 313 206 331 247 q 276 128 294 164 q 258 65 258 92 q 269 40 258 46 q 293 33 279 33 q 363 53 326 33 q 433 106 399 74 q 494 173 468 138 q 535 238 521 208 l 568 213 q 492 95 542 153 q 381 1 442 38 q 257 -36 319 -36 z "},"s":{"ha":488,"x_min":-28,"x_max":543,"o":"m 163 -71 q 51 -42 93 -71 q -10 30 8 -14 q -28 119 -28 74 q -17 182 -28 160 q 11 215 -6 204 q 42 231 28 225 q 64 243 57 236 q 135 327 99 279 q 199 433 172 375 l 199 447 q 217 526 199 503 q 261 549 236 549 q 285 540 278 549 q 294 521 293 532 q 291 501 294 513 q 288 471 288 490 q 308 376 288 429 q 348 263 328 322 q 368 140 368 203 q 367 110 368 124 q 363 83 365 96 q 447 131 406 94 q 526 240 489 168 l 543 228 q 467 101 517 149 q 350 42 417 53 q 277 -43 328 -15 q 163 -71 226 -71 m 153 -10 q 204 4 181 -10 q 242 44 228 18 q 139 89 185 57 q 68 154 93 121 q 49 117 49 150 q 75 31 49 71 q 153 -10 101 -10 m 253 86 q 256 109 256 96 q 257 129 257 122 q 240 253 256 192 q 210 378 225 314 q 151 285 185 335 q 89 204 118 235 q 154 133 111 167 q 253 86 197 100 z "},"t":{"ha":400,"x_min":-10,"x_max":461,"o":"m 126 -64 q 28 -28 65 -64 q -10 82 -10 8 q 12 224 -10 139 q 67 399 33 308 q 44 403 57 401 q 18 411 31 406 l 18 454 q 55 450 40 451 q 85 447 69 449 q 148 590 114 521 q 216 713 182 658 q 281 798 250 767 q 335 829 311 829 q 361 819 349 829 q 374 789 374 808 q 345 710 374 761 q 275 590 317 658 q 194 443 233 521 q 217 443 206 443 q 238 443 228 443 q 348 445 299 443 q 449 453 397 447 l 449 407 q 308 396 372 400 q 186 390 244 392 q 178 390 182 390 q 169 390 174 390 q 119 251 140 322 q 97 111 97 179 q 115 31 97 54 q 172 7 133 7 q 315 70 242 7 q 442 242 388 133 l 461 228 q 372 79 425 146 q 256 -26 318 13 q 126 -64 193 -64 z "},"u":{"ha":613,"x_min":-1,"x_max":669,"o":"m 106 -42 q 28 2 58 -42 q -1 103 -1 46 q 11 194 -1 142 q 44 297 24 247 q 85 381 64 347 q 125 414 107 414 q 155 403 135 414 q 190 378 175 393 q 153 310 175 356 q 115 211 132 264 q 99 115 99 158 q 101 89 99 110 q 111 50 103 68 q 140 32 119 32 q 191 58 164 32 q 247 124 218 83 q 302 213 275 165 q 351 304 329 260 q 386 379 372 349 q 419 372 399 378 q 454 358 439 367 q 469 332 469 349 q 456 298 469 328 q 426 226 443 268 q 395 141 408 185 q 382 64 382 97 q 390 30 382 44 q 419 15 397 15 q 489 42 449 15 q 572 118 529 68 q 649 238 615 168 l 669 221 q 590 86 639 146 q 486 -8 542 26 q 378 -42 431 -42 q 317 -23 338 -42 q 290 26 297 -4 q 282 86 283 56 q 282 101 282 93 q 282 114 282 108 q 231 41 258 76 q 172 -18 203 6 q 106 -42 140 -42 z "},"v":{"ha":569,"x_min":11,"x_max":622,"o":"m 103 -54 q 31 -8 51 -54 q 11 113 11 39 q 13 167 11 128 q 17 278 14 207 q 26 335 18 319 q 69 350 33 350 q 109 337 103 350 q 115 283 115 324 q 112 194 115 242 q 108 103 108 147 q 113 40 108 60 q 133 19 117 19 q 188 47 158 19 q 247 116 217 74 q 303 208 276 158 q 351 303 331 257 q 374 429 354 397 q 424 461 393 461 q 471 439 458 461 q 483 400 483 417 q 472 363 483 379 q 450 317 461 346 q 439 228 439 288 q 442 185 439 208 q 459 147 446 163 q 499 131 472 131 q 552 153 526 131 q 607 233 578 176 l 622 221 q 551 114 590 144 q 475 83 511 83 q 401 120 429 83 q 357 213 372 157 q 281 89 324 150 q 193 -13 239 28 q 103 -54 147 -54 z "},"w":{"ha":876,"x_min":-1,"x_max":933,"o":"m 404 -53 q 341 -12 357 -53 q 322 86 325 29 q 324 132 324 103 q 326 181 325 161 q 263 76 297 128 q 189 -8 228 25 q 107 -42 150 -42 q 29 1 60 -42 q -1 103 -1 43 q 12 196 -1 143 q 45 299 25 249 q 87 382 65 349 q 125 415 108 415 q 159 404 135 415 q 189 375 183 393 q 152 307 174 353 q 115 209 131 261 q 99 114 99 157 q 101 85 99 106 q 113 49 103 65 q 142 32 122 32 q 206 69 172 32 q 275 164 240 107 q 340 281 310 221 q 361 367 353 340 q 378 400 369 393 q 400 407 388 407 q 441 397 426 407 q 456 367 456 386 q 453 355 456 365 q 449 342 450 344 q 433 272 440 313 q 422 184 426 231 q 418 90 418 138 q 422 38 418 57 q 443 19 426 19 q 488 43 463 19 q 542 106 514 67 q 598 191 571 144 q 647 285 625 238 q 658 394 647 357 q 685 447 668 432 q 724 461 703 461 q 772 439 758 461 q 785 401 785 417 q 778 376 785 388 q 767 354 771 364 q 748 304 757 333 q 739 231 739 275 q 744 183 739 207 q 762 143 749 158 q 800 128 775 128 q 851 150 825 128 q 907 233 876 172 l 933 213 q 864 113 903 140 q 789 86 825 86 q 711 119 743 86 q 661 201 679 153 q 584 83 626 142 q 496 -15 542 24 q 404 -53 450 -53 z "},"x":{"ha":597,"x_min":11,"x_max":654,"o":"m 76 -82 q 58 -72 64 -82 q 51 -54 51 -62 q 81 8 51 -35 q 157 106 110 50 q 258 219 204 161 q 238 324 249 288 q 196 360 226 360 q 139 328 165 360 q 88 251 113 297 q 35 161 63 206 l 11 200 q 48 274 31 235 q 87 350 65 314 q 140 409 108 386 q 221 432 172 432 q 305 400 276 432 q 349 314 333 368 q 463 419 411 376 q 533 461 514 461 q 557 453 542 461 q 579 425 572 444 q 527 401 561 425 q 449 335 493 376 q 360 243 406 294 q 367 189 364 224 q 378 117 371 154 q 399 56 385 81 q 439 31 414 31 q 490 51 463 31 q 545 105 518 72 q 595 173 572 138 q 632 238 618 208 l 654 217 q 590 96 631 154 q 499 0 549 38 q 396 -37 449 -37 q 328 -12 353 -37 q 290 53 303 14 q 269 133 276 92 q 169 16 214 71 q 100 -69 124 -39 q 76 -82 90 -82 z "},"y":{"ha":556,"x_min":-28,"x_max":610,"o":"m 67 -389 q 2 -367 32 -389 q -28 -299 -28 -346 q -1 -219 -28 -254 q 67 -153 25 -183 q 156 -99 108 -124 q 249 -54 204 -75 q 283 48 264 -14 q 315 163 301 110 q 224 57 272 103 q 115 11 175 11 q 63 22 90 11 q 16 58 35 32 q -3 126 -3 83 q 10 214 -3 163 q 44 315 24 265 q 86 397 64 364 q 125 429 108 429 q 149 423 133 429 q 181 406 165 417 q 200 383 196 396 q 172 335 188 367 q 143 266 157 304 q 120 192 129 228 q 111 129 111 156 q 119 93 111 108 q 151 78 128 78 q 215 103 182 78 q 278 167 247 128 q 335 246 310 206 q 340 276 338 256 q 350 319 343 297 q 374 363 357 343 q 424 382 392 382 q 444 381 435 382 q 468 376 454 379 q 453 295 468 356 q 415 156 439 235 q 363 -3 392 76 q 484 76 421 21 q 586 232 547 131 l 610 213 q 547 92 589 143 q 451 4 504 40 q 344 -56 399 -32 q 263 -222 307 -146 q 171 -344 219 -299 q 67 -389 122 -389 m 53 -337 q 126 -282 79 -337 q 222 -115 174 -226 q 133 -167 178 -137 q 57 -231 88 -197 q 26 -299 26 -264 q 33 -325 26 -312 q 53 -337 39 -337 z "},"z":{"ha":460,"x_min":-94,"x_max":511,"o":"m 11 -389 q -66 -370 -37 -389 q -94 -308 -94 -351 q -65 -224 -94 -261 q 16 -153 -35 -186 q 128 -85 67 -119 q 253 -8 190 -50 q 226 76 251 36 q 136 163 200 117 q 228 210 190 178 q 285 283 265 243 q 304 357 304 322 q 292 402 304 382 q 247 422 279 422 q 169 386 206 422 q 101 293 133 350 q 38 171 68 236 l 11 193 q 76 342 42 275 q 156 450 110 410 q 268 490 203 490 q 365 458 325 490 q 406 365 406 426 q 384 281 406 322 q 327 206 363 240 q 249 150 292 172 q 302 96 279 126 q 339 36 325 65 q 429 122 389 75 q 493 231 469 169 l 511 208 q 449 94 490 147 q 353 0 408 40 q 357 -20 356 -10 q 358 -46 358 -31 q 331 -167 358 -107 q 253 -278 303 -228 q 142 -358 204 -328 q 11 -389 81 -389 m -8 -336 q 56 -317 17 -336 q 137 -263 96 -299 q 209 -178 178 -228 q 250 -64 240 -128 q 146 -126 199 -97 q 50 -184 93 -156 q -19 -240 7 -212 q -46 -299 -46 -268 q -35 -327 -46 -318 q -8 -336 -24 -336 z "},"!":{"ha":410,"x_min":0,"x_max":513,"o":"m 160 413 q 224 575 190 492 q 290 734 257 658 q 356 870 324 810 q 417 965 388 931 q 474 1000 447 1000 q 501 988 489 1000 q 513 958 513 976 q 490 882 513 939 q 429 746 467 825 q 346 578 392 667 q 254 403 300 489 q 168 250 208 318 q 101 144 128 182 q 93 147 97 146 q 85 150 89 149 q 98 232 86 186 q 127 326 110 278 q 160 413 144 374 m 56 -14 q 17 -3 33 -14 q 0 33 0 8 q 28 79 0 60 q 90 99 57 99 q 124 89 111 99 q 138 56 138 79 q 113 9 138 32 q 56 -14 88 -14 z "},"":{"ha":413,"x_min":-83,"x_max":429,"o":"m -44 -346 q -71 -334 -58 -346 q -83 -304 -83 -322 q -60 -228 -83 -285 q 0 -92 -37 -171 q 83 76 38 -12 q 175 251 129 165 q 261 405 221 336 q 328 510 301 474 q 336 507 332 508 q 344 504 340 506 q 332 423 344 469 q 302 329 319 376 q 269 242 285 282 q 206 79 239 163 q 139 -80 172 -4 q 74 -216 106 -156 q 12 -311 42 -276 q -44 -346 -18 -346 m 339 556 q 305 565 318 556 q 292 599 292 575 q 317 645 292 622 q 374 668 343 668 q 413 657 396 668 q 429 621 429 646 q 401 575 429 594 q 339 556 372 556 z "},"?":{"ha":642,"x_min":164,"x_max":679,"o":"m 368 165 q 322 198 333 183 q 310 243 310 213 q 336 362 310 308 q 402 463 363 415 q 481 560 442 511 q 547 665 521 608 q 574 790 574 721 q 543 905 574 865 q 467 944 513 944 q 372 907 419 944 q 294 807 325 869 q 263 668 263 744 q 266 623 263 644 q 278 574 269 601 q 187 615 210 585 q 164 690 164 646 q 201 840 164 769 q 308 956 239 911 q 471 1000 378 1000 q 622 951 565 1000 q 679 808 679 901 q 657 699 679 747 q 601 610 635 651 q 528 528 567 569 q 458 440 490 488 q 406 329 425 392 q 388 247 392 282 q 368 165 385 211 m 308 -14 q 269 -2 286 -14 q 253 32 253 10 q 283 79 253 60 q 343 99 313 99 q 378 89 364 99 q 392 58 392 79 q 366 9 392 32 q 308 -14 340 -14 z "},"":{"ha":607,"x_min":-57,"x_max":458,"o":"m 151 -389 q 1 -340 58 -389 q -57 -197 -57 -290 q -35 -103 -57 -144 q 22 -28 -12 -62 q 95 40 57 6 q 166 117 133 75 q 217 213 199 158 q 235 296 232 261 q 254 376 238 331 q 301 344 289 358 q 313 299 313 331 q 286 195 313 242 q 220 107 260 149 q 141 23 181 65 q 75 -69 101 -19 q 49 -179 49 -118 q 79 -294 49 -254 q 156 -333 110 -333 q 251 -296 204 -333 q 328 -195 297 -258 q 360 -57 360 -132 q 356 -11 360 -33 q 344 38 353 11 q 435 -3 413 28 q 458 -79 458 -35 q 421 -229 458 -158 q 315 -344 383 -300 q 151 -389 246 -389 m 279 443 q 244 453 258 443 q 231 483 231 463 q 256 533 231 511 q 314 556 282 556 q 353 544 336 556 q 369 510 369 533 q 340 463 369 482 q 279 443 310 443 z "},",":{"ha":300,"x_min":7,"x_max":139,"o":"m 44 -122 q 17 -95 26 -111 q 7 -61 7 -79 q 19 0 7 -33 q 52 58 32 33 q 94 82 72 82 q 126 68 113 82 q 139 36 139 54 q 88 -36 106 -1 q 44 -122 69 -71 z "},".":{"ha":336,"x_min":39,"x_max":172,"o":"m 100 -14 q 53 3 67 -14 q 39 39 39 21 q 53 72 39 54 q 88 101 67 89 q 126 113 108 113 q 157 103 142 113 q 172 69 172 94 q 164 38 172 58 q 140 2 156 18 q 100 -14 124 -14 z "},":":{"ha":349,"x_min":44,"x_max":258,"o":"m 178 317 q 140 328 158 317 q 122 363 122 339 q 152 408 122 389 q 213 428 182 428 q 246 418 233 428 q 258 385 258 408 q 234 340 258 363 q 178 317 210 317 m 100 -14 q 63 -3 81 -14 q 44 32 44 8 q 74 78 44 58 q 135 97 103 97 q 168 88 156 97 q 181 54 181 78 q 156 9 181 32 q 100 -14 132 -14 z "},";":{"ha":347,"x_min":32,"x_max":260,"o":"m 71 -122 q 42 -94 51 -111 q 32 -60 32 -78 q 45 5 32 -31 q 80 67 58 40 q 125 93 101 93 q 158 79 143 93 q 174 46 172 65 q 117 -30 139 7 q 71 -122 96 -67 m 178 318 q 139 329 156 318 q 122 365 122 340 q 151 411 122 392 q 211 431 179 431 q 246 421 232 431 q 260 388 260 411 q 235 342 260 365 q 178 318 210 318 z "},"":{"ha":763,"x_min":39,"x_max":599,"o":"m 526 -14 q 479 3 493 -14 q 465 39 465 21 q 479 72 465 54 q 514 101 493 89 q 553 113 535 113 q 583 103 568 113 q 599 69 599 94 q 590 38 599 58 q 566 2 582 18 q 526 -14 550 -14 m 100 -14 q 53 3 67 -14 q 39 39 39 21 q 53 72 39 54 q 88 101 67 89 q 126 113 108 113 q 157 103 142 113 q 172 69 172 94 q 164 38 172 58 q 140 2 156 18 q 100 -14 124 -14 m 307 -14 q 260 3 274 -14 q 246 39 246 21 q 260 72 246 54 q 294 101 274 89 q 333 113 315 113 q 364 103 349 113 q 379 69 379 94 q 371 38 379 58 q 347 2 363 18 q 307 -14 331 -14 z "},"":{"ha":335,"x_min":81,"x_max":215,"o":"m 138 160 q 92 176 104 160 q 81 211 81 193 q 95 242 81 226 q 131 269 110 258 q 169 279 151 279 q 200 272 185 279 q 215 239 215 264 q 206 209 215 228 q 178 175 196 190 q 138 160 161 160 z "},"-":{"ha":704,"x_min":76,"x_max":597,"o":"m 76 197 q 115 246 86 228 q 181 272 144 264 q 249 283 217 281 q 297 285 281 285 q 357 283 315 285 q 447 281 399 282 q 538 278 496 279 q 597 275 579 276 q 534 222 583 243 q 428 200 485 200 q 353 204 399 200 q 254 208 307 208 q 182 206 219 208 q 116 201 144 204 q 76 197 88 199 z "},"'":{"ha":217,"x_min":210,"x_max":343,"o":"m 249 800 q 219 827 228 811 q 210 861 210 843 q 222 922 210 889 q 255 978 235 954 q 297 1003 275 1003 q 328 989 314 1003 q 343 951 342 975 q 286 878 313 921 q 249 800 260 835 z "},"\"":{"ha":375,"x_min":210,"x_max":501,"o":"m 407 800 q 377 827 386 811 q 368 861 368 843 q 381 922 368 889 q 413 978 393 954 q 456 1003 433 1003 q 486 989 472 1003 q 501 951 500 975 q 444 878 471 921 q 407 800 418 835 m 249 800 q 219 827 228 811 q 210 861 210 843 q 222 922 210 889 q 255 978 235 954 q 297 1003 275 1003 q 328 989 314 1003 q 343 951 342 975 q 286 878 313 921 q 249 800 260 835 z "},"":{"ha":254,"x_min":204,"x_max":354,"o":"m 307 796 q 266 851 290 822 q 224 909 242 881 q 204 957 206 938 q 221 991 204 976 q 257 1006 238 1006 q 289 953 265 981 q 333 901 313 926 q 354 853 354 875 q 339 821 354 836 q 307 796 324 806 z "},"":{"ha":228,"x_min":199,"x_max":349,"o":"m 246 793 q 214 818 229 803 q 199 850 199 833 q 219 898 199 872 q 264 951 240 924 q 296 1003 288 978 q 332 988 315 1003 q 349 954 349 974 q 330 906 349 935 q 288 849 311 878 q 246 793 264 819 z "},"":{"ha":300,"x_min":7,"x_max":139,"o":"m 44 -122 q 17 -95 26 -111 q 7 -61 7 -79 q 19 0 7 -33 q 52 58 32 33 q 94 82 72 82 q 126 68 113 82 q 139 36 139 54 q 88 -36 106 -1 q 44 -122 69 -71 z "},"":{"ha":426,"x_min":204,"x_max":526,"o":"m 479 796 q 438 851 463 822 q 396 909 414 881 q 376 957 378 938 q 393 991 376 976 q 429 1006 410 1006 q 461 953 438 981 q 506 901 485 926 q 526 853 526 875 q 511 821 526 836 q 479 796 496 806 m 307 796 q 266 851 290 822 q 224 909 242 881 q 204 957 206 938 q 221 991 204 976 q 257 1006 238 1006 q 289 953 265 981 q 333 901 313 926 q 354 853 354 875 q 339 821 354 836 q 307 796 324 806 z "},"":{"ha":403,"x_min":200,"x_max":522,"o":"m 419 796 q 388 821 403 806 q 372 853 372 836 q 393 901 372 875 q 438 953 414 926 q 469 1006 461 981 q 506 991 489 1006 q 522 957 522 976 q 503 909 522 938 q 461 851 485 881 q 419 796 438 822 m 247 796 q 215 821 231 806 q 200 853 200 836 q 221 901 200 875 q 265 953 242 926 q 297 1006 289 981 q 333 991 317 1006 q 350 957 350 976 q 331 909 350 938 q 289 851 313 881 q 247 796 265 822 z "},"":{"ha":453,"x_min":7,"x_max":292,"o":"m 197 -122 q 169 -95 179 -111 q 160 -61 160 -79 q 172 0 160 -33 q 205 58 185 33 q 247 82 225 82 q 278 68 265 82 q 292 36 292 54 q 240 -36 258 -1 q 197 -122 222 -71 m 44 -122 q 17 -95 26 -111 q 7 -61 7 -79 q 19 0 7 -33 q 52 58 32 33 q 94 82 72 82 q 126 68 113 82 q 139 36 139 54 q 88 -36 106 -1 q 44 -122 69 -71 z "},"(":{"ha":410,"x_min":107,"x_max":546,"o":"m 247 -121 q 176 -43 208 -100 q 126 95 144 14 q 107 267 107 176 q 139 512 107 399 q 222 715 171 625 q 331 869 272 806 q 447 966 390 932 q 546 1000 504 1000 q 393 844 457 932 q 289 656 329 756 q 229 453 249 557 q 210 251 210 350 q 231 57 210 142 q 286 -81 251 -28 q 268 -106 278 -97 q 247 -121 258 -115 z "},")":{"ha":438,"x_min":-47,"x_max":410,"o":"m 0 -121 q -26 -103 -12 -121 q -47 -74 -40 -86 q 136 96 54 -7 q 267 333 218 199 q 317 631 317 468 q 294 813 317 721 q 193 1007 272 906 q 290 944 239 996 q 375 806 340 893 q 410 601 410 719 q 378 367 410 476 q 298 167 347 257 q 192 13 249 78 q 85 -86 136 -51 q 0 -121 33 -121 z "},"[":{"ha":608,"x_min":67,"x_max":669,"o":"m 324 -121 q 227 -115 278 -121 q 133 -102 176 -110 q 67 -90 90 -94 q 75 -73 71 -83 q 85 -38 79 -62 q 101 35 92 -14 q 126 167 111 83 q 165 378 142 250 q 219 689 188 506 q 273 870 240 808 q 342 955 306 932 q 410 978 379 978 q 457 976 429 978 q 515 974 485 974 q 592 980 553 974 q 669 1007 632 986 q 645 917 668 946 q 587 879 622 888 q 510 871 551 871 q 436 878 475 871 q 360 893 397 886 q 322 756 340 836 q 286 585 303 676 q 253 402 269 494 q 223 226 238 310 q 197 76 208 142 q 174 -25 185 11 q 299 -24 249 -25 q 385 -19 349 -22 q 451 -11 421 -17 q 514 4 481 -6 q 469 -90 514 -60 q 324 -121 424 -121 z "},"]":{"ha":635,"x_min":19,"x_max":615,"o":"m 19 -122 q 48 -47 24 -72 q 109 -12 72 -21 q 183 -3 146 -3 q 266 -7 219 -3 q 354 -14 313 -11 q 400 149 378 51 q 444 356 422 246 q 485 575 465 467 q 521 774 504 683 q 550 921 538 865 l 457 921 q 302 913 368 919 q 174 889 236 906 q 223 982 174 961 q 356 1003 272 1003 q 485 995 421 1003 q 615 974 550 988 q 607 897 614 949 q 590 775 600 844 q 569 627 581 706 q 544 469 557 549 q 519 318 532 390 q 496 189 507 246 q 478 108 490 156 q 446 14 467 61 q 392 -65 425 -33 q 307 -96 358 -96 q 154 -99 228 -96 q 19 -122 81 -103 z "},"{":{"ha":422,"x_min":86,"x_max":492,"o":"m 194 -121 q 110 -90 133 -121 q 86 -21 86 -60 q 101 59 86 17 q 137 147 117 101 q 172 239 157 193 q 188 329 188 285 q 174 398 188 361 q 115 468 160 435 q 202 511 174 474 q 241 606 231 549 q 257 725 251 663 q 267 825 261 776 q 286 913 272 874 q 328 976 300 953 q 404 1000 356 1000 q 443 992 421 1000 q 478 965 465 985 q 479 906 492 944 q 443 923 454 919 q 425 926 432 926 q 384 895 399 926 q 362 815 369 864 q 347 710 354 765 q 331 592 340 647 q 306 497 322 536 q 256 446 289 458 q 278 407 271 428 q 285 351 285 386 q 269 240 285 293 q 234 140 254 188 q 199 51 214 93 q 183 -32 183 8 q 196 -59 183 -50 q 225 -68 208 -68 q 269 -54 249 -68 q 243 -109 267 -97 q 194 -121 219 -121 z "},"}":{"ha":418,"x_min":6,"x_max":418,"o":"m 97 -121 q 58 -112 79 -121 q 21 -81 36 -103 q 8 -19 6 -58 q 68 -44 46 -44 q 110 -10 94 -44 q 134 76 125 24 q 149 186 143 129 q 165 307 156 247 q 194 414 175 367 q 250 485 214 461 q 225 530 232 506 q 218 579 218 554 q 233 673 218 624 q 266 769 247 722 q 299 856 285 817 q 314 915 314 894 q 304 939 314 933 q 283 944 294 944 q 263 940 274 944 q 240 929 251 936 q 256 985 235 957 q 332 1013 278 1013 q 394 997 371 1013 q 418 947 418 982 q 403 880 418 918 q 368 797 388 842 q 333 701 349 751 q 318 601 318 651 q 331 530 318 567 q 388 467 344 493 q 301 411 331 453 q 260 311 271 369 q 243 189 249 253 q 234 76 239 132 q 217 -24 229 21 q 176 -94 204 -68 q 97 -121 149 -121 z "},"&":{"ha":938,"x_min":24,"x_max":968,"o":"m 321 -121 q 165 -85 232 -121 q 60 8 97 -50 q 24 138 24 67 q 50 260 24 200 q 124 369 76 319 q 236 453 171 419 q 378 499 301 488 q 303 597 329 543 q 278 707 278 651 q 315 849 278 782 q 422 957 353 915 q 581 999 490 999 q 708 959 664 999 q 751 844 751 919 q 733 741 751 792 q 689 658 715 690 q 636 625 663 625 q 599 642 617 625 q 569 682 582 660 q 655 769 621 724 q 689 864 689 815 q 667 927 689 903 q 596 951 644 951 q 490 915 533 951 q 425 822 447 879 q 403 696 403 764 q 409 625 403 664 q 438 547 415 586 q 504 471 460 507 q 331 402 404 456 q 217 278 257 349 q 176 138 176 207 q 194 51 176 96 q 251 -24 211 7 q 357 -54 292 -54 q 500 -19 432 -54 q 624 74 568 15 q 717 207 681 133 q 763 358 753 281 q 712 354 736 357 q 656 346 688 351 q 574 331 625 340 q 621 425 575 401 q 731 449 667 449 q 812 443 775 449 q 885 431 849 438 q 968 425 922 425 q 928 370 946 379 q 894 361 911 361 q 852 360 869 361 q 817 360 835 360 q 763 179 807 265 q 651 25 719 93 q 499 -82 583 -43 q 321 -121 414 -121 z "},"":{"ha":876,"x_min":0,"x_max":978,"o":"m 64 -121 q 11 -75 22 -99 q 0 -35 0 -51 q 27 66 0 3 q 100 211 54 129 q 204 382 146 293 q 122 386 161 385 q 22 388 83 388 l 0 388 q 62 458 19 438 q 161 478 104 478 q 210 475 185 478 q 264 469 236 472 q 401 658 333 569 q 528 819 468 747 q 636 936 589 890 q 733 1003 703 1003 q 777 988 753 1003 q 828 949 801 972 q 792 892 814 938 q 747 776 771 846 q 698 622 722 706 q 654 453 674 539 q 623 288 635 367 q 611 150 611 210 q 622 67 611 94 q 660 40 633 40 q 739 89 692 40 q 844 247 786 138 l 869 221 q 758 33 826 107 q 611 -40 689 -40 q 517 17 544 -40 q 489 175 489 75 q 493 247 489 207 q 507 347 497 288 q 399 363 446 357 q 308 374 351 368 q 179 129 242 256 q 64 -121 117 3 m 521 415 q 563 581 539 497 q 615 742 588 665 q 668 881 642 819 q 575 785 626 847 q 467 638 524 722 q 353 453 411 553 q 436 435 394 444 q 521 415 478 425 m 826 1039 q 801 1062 808 1046 q 793 1085 793 1078 q 807 1122 793 1096 q 843 1176 821 1147 q 890 1224 865 1204 q 936 1244 914 1244 q 963 1234 951 1244 q 978 1196 975 1224 q 892 1113 929 1149 q 826 1039 856 1078 z "},"":{"ha":876,"x_min":0,"x_max":1010,"o":"m 64 -121 q 11 -75 22 -99 q 0 -35 0 -51 q 27 66 0 3 q 100 211 54 129 q 204 382 146 293 q 122 386 161 385 q 22 388 83 388 l 0 388 q 62 458 19 438 q 161 478 104 478 q 210 475 185 478 q 264 469 236 472 q 401 658 333 569 q 528 819 468 747 q 636 936 589 890 q 733 1003 703 1003 q 777 988 753 1003 q 828 949 801 972 q 792 892 814 938 q 747 776 771 846 q 698 622 722 706 q 654 453 674 539 q 623 288 635 367 q 611 150 611 210 q 622 67 611 94 q 660 40 633 40 q 739 89 692 40 q 844 247 786 138 l 869 221 q 758 33 826 107 q 611 -40 689 -40 q 517 17 544 -40 q 489 175 489 75 q 493 247 489 207 q 507 347 497 288 q 399 363 446 357 q 308 374 351 368 q 179 129 242 256 q 64 -121 117 3 m 521 415 q 563 581 539 497 q 615 742 588 665 q 668 881 642 819 q 575 785 626 847 q 467 638 524 722 q 353 453 411 553 q 436 435 394 444 q 521 415 478 425 m 861 1053 q 769 1075 804 1053 q 720 1128 735 1097 q 706 1185 706 1158 q 716 1226 706 1210 q 744 1253 726 1243 q 779 1177 751 1213 q 864 1142 807 1142 q 944 1164 914 1142 q 990 1210 975 1186 q 1006 1188 1001 1200 q 1010 1164 1010 1175 q 965 1085 1010 1117 q 861 1053 919 1053 z "},"":{"ha":876,"x_min":0,"x_max":1010,"o":"m 64 -121 q 11 -75 22 -99 q 0 -35 0 -51 q 27 66 0 3 q 100 211 54 129 q 204 382 146 293 q 122 386 161 385 q 22 388 83 388 l 0 388 q 62 458 19 438 q 161 478 104 478 q 210 475 185 478 q 264 469 236 472 q 401 658 333 569 q 528 819 468 747 q 636 936 589 890 q 733 1003 703 1003 q 777 988 753 1003 q 828 949 801 972 q 792 892 814 938 q 747 776 771 846 q 698 622 722 706 q 654 453 674 539 q 623 288 635 367 q 611 150 611 210 q 622 67 611 94 q 660 40 633 40 q 739 89 692 40 q 844 247 786 138 l 869 221 q 758 33 826 107 q 611 -40 689 -40 q 517 17 544 -40 q 489 175 489 75 q 493 247 489 207 q 507 347 497 288 q 399 363 446 357 q 308 374 351 368 q 179 129 242 256 q 64 -121 117 3 m 521 415 q 563 581 539 497 q 615 742 588 665 q 668 881 642 819 q 575 785 626 847 q 467 638 524 722 q 353 453 411 553 q 436 435 394 444 q 521 415 478 425 m 861 1053 q 769 1075 804 1053 q 720 1128 735 1097 q 706 1185 706 1158 q 716 1226 706 1210 q 744 1253 726 1243 q 779 1177 751 1213 q 864 1142 807 1142 q 944 1164 914 1142 q 990 1210 975 1186 q 1006 1188 1001 1200 q 1010 1164 1010 1175 q 965 1085 1010 1117 q 861 1053 919 1053 m 869 1197 q 844 1217 851 1204 q 836 1243 836 1229 q 849 1278 836 1256 q 881 1325 861 1301 q 922 1365 900 1349 q 964 1382 944 1382 q 991 1372 979 1382 q 1006 1333 1003 1361 q 965 1297 990 1321 q 913 1245 939 1272 q 869 1197 888 1218 z "},"":{"ha":876,"x_min":0,"x_max":1010,"o":"m 64 -121 q 11 -75 22 -99 q 0 -35 0 -51 q 27 66 0 3 q 100 211 54 129 q 204 382 146 293 q 122 386 161 385 q 22 388 83 388 l 0 388 q 62 458 19 438 q 161 478 104 478 q 210 475 185 478 q 264 469 236 472 q 401 658 333 569 q 528 819 468 747 q 636 936 589 890 q 733 1003 703 1003 q 777 988 753 1003 q 828 949 801 972 q 792 892 814 938 q 747 776 771 846 q 698 622 722 706 q 654 453 674 539 q 623 288 635 367 q 611 150 611 210 q 622 67 611 94 q 660 40 633 40 q 739 89 692 40 q 844 247 786 138 l 869 221 q 758 33 826 107 q 611 -40 689 -40 q 517 17 544 -40 q 489 175 489 75 q 493 247 489 207 q 507 347 497 288 q 399 363 446 357 q 308 374 351 368 q 179 129 242 256 q 64 -121 117 3 m 521 415 q 563 581 539 497 q 615 742 588 665 q 668 881 642 819 q 575 785 626 847 q 467 638 524 722 q 353 453 411 553 q 436 435 394 444 q 521 415 478 425 m 861 1053 q 769 1075 804 1053 q 720 1128 735 1097 q 706 1185 706 1158 q 716 1226 706 1210 q 744 1253 726 1243 q 779 1177 751 1213 q 864 1142 807 1142 q 944 1164 914 1142 q 990 1210 975 1186 q 1006 1188 1001 1200 q 1010 1164 1010 1175 q 965 1085 1010 1117 q 861 1053 919 1053 m 279 -268 q 235 -253 253 -268 q 217 -212 217 -239 q 249 -161 217 -181 q 313 -142 281 -142 q 355 -156 342 -142 q 368 -192 368 -169 q 340 -245 368 -222 q 279 -268 313 -268 z "},"":{"ha":876,"x_min":0,"x_max":1010,"o":"m 64 -121 q 11 -75 22 -99 q 0 -35 0 -51 q 27 66 0 3 q 100 211 54 129 q 204 382 146 293 q 122 386 161 385 q 22 388 83 388 l 0 388 q 62 458 19 438 q 161 478 104 478 q 210 475 185 478 q 264 469 236 472 q 401 658 333 569 q 528 819 468 747 q 636 936 589 890 q 733 1003 703 1003 q 777 988 753 1003 q 828 949 801 972 q 792 892 814 938 q 747 776 771 846 q 698 622 722 706 q 654 453 674 539 q 623 288 635 367 q 611 150 611 210 q 622 67 611 94 q 660 40 633 40 q 739 89 692 40 q 844 247 786 138 l 869 221 q 758 33 826 107 q 611 -40 689 -40 q 517 17 544 -40 q 489 175 489 75 q 493 247 489 207 q 507 347 497 288 q 399 363 446 357 q 308 374 351 368 q 179 129 242 256 q 64 -121 117 3 m 521 415 q 563 581 539 497 q 615 742 588 665 q 668 881 642 819 q 575 785 626 847 q 467 638 524 722 q 353 453 411 553 q 436 435 394 444 q 521 415 478 425 m 861 1053 q 769 1075 804 1053 q 720 1128 735 1097 q 706 1185 706 1158 q 716 1226 706 1210 q 744 1253 726 1243 q 779 1177 751 1213 q 864 1142 807 1142 q 944 1164 914 1142 q 990 1210 975 1186 q 1006 1188 1001 1200 q 1010 1164 1010 1175 q 965 1085 1010 1117 q 861 1053 919 1053 m 883 1200 q 840 1248 867 1221 q 789 1299 814 1275 q 747 1336 764 1324 q 762 1374 750 1364 q 789 1385 774 1385 q 831 1368 808 1385 q 872 1328 853 1351 q 904 1281 892 1304 q 917 1246 917 1258 q 909 1219 917 1232 q 883 1200 901 1207 z "},"":{"ha":876,"x_min":0,"x_max":1010,"o":"m 64 -121 q 11 -75 22 -99 q 0 -35 0 -51 q 27 66 0 3 q 100 211 54 129 q 204 382 146 293 q 122 386 161 385 q 22 388 83 388 l 0 388 q 62 458 19 438 q 161 478 104 478 q 210 475 185 478 q 264 469 236 472 q 401 658 333 569 q 528 819 468 747 q 636 936 589 890 q 733 1003 703 1003 q 777 988 753 1003 q 828 949 801 972 q 792 892 814 938 q 747 776 771 846 q 698 622 722 706 q 654 453 674 539 q 623 288 635 367 q 611 150 611 210 q 622 67 611 94 q 660 40 633 40 q 739 89 692 40 q 844 247 786 138 l 869 221 q 758 33 826 107 q 611 -40 689 -40 q 517 17 544 -40 q 489 175 489 75 q 493 247 489 207 q 507 347 497 288 q 399 363 446 357 q 308 374 351 368 q 179 129 242 256 q 64 -121 117 3 m 521 415 q 563 581 539 497 q 615 742 588 665 q 668 881 642 819 q 575 785 626 847 q 467 638 524 722 q 353 453 411 553 q 436 435 394 444 q 521 415 478 425 m 861 1053 q 769 1075 804 1053 q 720 1128 735 1097 q 706 1185 706 1158 q 716 1226 706 1210 q 744 1253 726 1243 q 779 1177 751 1213 q 864 1142 807 1142 q 944 1164 914 1142 q 990 1210 975 1186 q 1006 1188 1001 1200 q 1010 1164 1010 1175 q 965 1085 1010 1117 q 861 1053 919 1053 m 876 1196 q 849 1201 861 1196 q 828 1211 836 1206 q 892 1232 864 1218 q 919 1276 919 1246 q 889 1316 919 1304 q 792 1328 858 1328 q 811 1380 792 1358 q 871 1401 831 1401 q 949 1370 918 1401 q 979 1294 979 1339 q 951 1224 979 1251 q 876 1196 922 1196 z "},"":{"ha":876,"x_min":0,"x_max":1115,"o":"m 64 -121 q 11 -75 22 -99 q 0 -35 0 -51 q 27 66 0 3 q 100 211 54 129 q 204 382 146 293 q 122 386 161 385 q 22 388 83 388 l 0 388 q 62 458 19 438 q 161 478 104 478 q 210 475 185 478 q 264 469 236 472 q 401 658 333 569 q 528 819 468 747 q 636 936 589 890 q 733 1003 703 1003 q 777 988 753 1003 q 828 949 801 972 q 792 892 814 938 q 747 776 771 846 q 698 622 722 706 q 654 453 674 539 q 623 288 635 367 q 611 150 611 210 q 622 67 611 94 q 660 40 633 40 q 739 89 692 40 q 844 247 786 138 l 869 221 q 758 33 826 107 q 611 -40 689 -40 q 517 17 544 -40 q 489 175 489 75 q 493 247 489 207 q 507 347 497 288 q 399 363 446 357 q 308 374 351 368 q 179 129 242 256 q 64 -121 117 3 m 521 415 q 563 581 539 497 q 615 742 588 665 q 668 881 642 819 q 575 785 626 847 q 467 638 524 722 q 353 453 411 553 q 436 435 394 444 q 521 415 478 425 m 861 1053 q 769 1075 804 1053 q 720 1128 735 1097 q 706 1185 706 1158 q 716 1226 706 1210 q 744 1253 726 1243 q 779 1177 751 1213 q 864 1142 807 1142 q 944 1164 914 1142 q 990 1210 975 1186 q 1006 1188 1001 1200 q 1010 1164 1010 1175 q 965 1085 1010 1117 q 861 1053 919 1053 m 999 1238 q 918 1254 960 1238 q 835 1288 876 1271 q 758 1304 794 1304 q 713 1301 735 1304 q 668 1286 692 1297 q 717 1348 685 1328 q 793 1368 749 1368 q 873 1351 832 1368 q 954 1318 914 1335 q 1033 1301 994 1301 q 1115 1315 1075 1301 q 1069 1258 1096 1278 q 999 1238 1042 1238 z "},"":{"ha":876,"x_min":0,"x_max":985,"o":"m 64 -121 q 11 -75 22 -99 q 0 -35 0 -51 q 27 66 0 3 q 100 211 54 129 q 204 382 146 293 q 122 386 161 385 q 22 388 83 388 l 0 388 q 62 458 19 438 q 161 478 104 478 q 210 475 185 478 q 264 469 236 472 q 401 658 333 569 q 528 819 468 747 q 636 936 589 890 q 733 1003 703 1003 q 777 988 753 1003 q 828 949 801 972 q 792 892 814 938 q 747 776 771 846 q 698 622 722 706 q 654 453 674 539 q 623 288 635 367 q 611 150 611 210 q 622 67 611 94 q 660 40 633 40 q 739 89 692 40 q 844 247 786 138 l 869 221 q 758 33 826 107 q 611 -40 689 -40 q 517 17 544 -40 q 489 175 489 75 q 493 247 489 207 q 507 347 497 288 q 399 363 446 357 q 308 374 351 368 q 179 129 242 256 q 64 -121 117 3 m 521 415 q 563 581 539 497 q 615 742 588 665 q 668 881 642 819 q 575 785 626 847 q 467 638 524 722 q 353 453 411 553 q 436 435 394 444 q 521 415 478 425 m 950 1033 q 903 1097 928 1071 q 850 1149 879 1122 q 778 1118 813 1136 q 708 1076 744 1100 q 694 1096 699 1083 q 690 1115 690 1108 q 709 1157 690 1136 q 756 1195 728 1178 q 810 1224 783 1213 q 851 1235 836 1235 q 891 1220 868 1235 q 935 1183 914 1206 q 971 1134 957 1160 q 985 1088 985 1108 q 977 1058 985 1074 q 950 1033 969 1043 z "},"":{"ha":876,"x_min":0,"x_max":1154,"o":"m 64 -121 q 11 -75 22 -99 q 0 -35 0 -51 q 27 66 0 3 q 100 211 54 129 q 204 382 146 293 q 122 386 161 385 q 22 388 83 388 l 0 388 q 62 458 19 438 q 161 478 104 478 q 210 475 185 478 q 264 469 236 472 q 401 658 333 569 q 528 819 468 747 q 636 936 589 890 q 733 1003 703 1003 q 777 988 753 1003 q 828 949 801 972 q 792 892 814 938 q 747 776 771 846 q 698 622 722 706 q 654 453 674 539 q 623 288 635 367 q 611 150 611 210 q 622 67 611 94 q 660 40 633 40 q 739 89 692 40 q 844 247 786 138 l 869 221 q 758 33 826 107 q 611 -40 689 -40 q 517 17 544 -40 q 489 175 489 75 q 493 247 489 207 q 507 347 497 288 q 399 363 446 357 q 308 374 351 368 q 179 129 242 256 q 64 -121 117 3 m 521 415 q 563 581 539 497 q 615 742 588 665 q 668 881 642 819 q 575 785 626 847 q 467 638 524 722 q 353 453 411 553 q 436 435 394 444 q 521 415 478 425 m 1018 1169 q 992 1189 1000 1176 q 985 1215 985 1201 q 997 1251 985 1228 q 1029 1297 1010 1274 q 1071 1338 1049 1321 q 1113 1354 1093 1354 q 1140 1344 1128 1354 q 1154 1306 1151 1333 q 1113 1269 1139 1293 q 1062 1217 1088 1244 q 1018 1169 1036 1190 m 950 1033 q 903 1097 928 1071 q 850 1149 879 1122 q 778 1118 813 1136 q 708 1076 744 1100 q 694 1096 699 1083 q 690 1115 690 1108 q 709 1157 690 1136 q 756 1195 728 1178 q 810 1224 783 1213 q 851 1235 836 1235 q 891 1220 868 1235 q 935 1183 914 1206 q 971 1134 957 1160 q 985 1088 985 1108 q 977 1058 985 1074 q 950 1033 969 1043 z "},"":{"ha":876,"x_min":0,"x_max":985,"o":"m 64 -121 q 11 -75 22 -99 q 0 -35 0 -51 q 27 66 0 3 q 100 211 54 129 q 204 382 146 293 q 122 386 161 385 q 22 388 83 388 l 0 388 q 62 458 19 438 q 161 478 104 478 q 210 475 185 478 q 264 469 236 472 q 401 658 333 569 q 528 819 468 747 q 636 936 589 890 q 733 1003 703 1003 q 777 988 753 1003 q 828 949 801 972 q 792 892 814 938 q 747 776 771 846 q 698 622 722 706 q 654 453 674 539 q 623 288 635 367 q 611 150 611 210 q 622 67 611 94 q 660 40 633 40 q 739 89 692 40 q 844 247 786 138 l 869 221 q 758 33 826 107 q 611 -40 689 -40 q 517 17 544 -40 q 489 175 489 75 q 493 247 489 207 q 507 347 497 288 q 399 363 446 357 q 308 374 351 368 q 179 129 242 256 q 64 -121 117 3 m 521 415 q 563 581 539 497 q 615 742 588 665 q 668 881 642 819 q 575 785 626 847 q 467 638 524 722 q 353 453 411 553 q 436 435 394 444 q 521 415 478 425 m 950 1033 q 903 1097 928 1071 q 850 1149 879 1122 q 778 1118 813 1136 q 708 1076 744 1100 q 694 1096 699 1083 q 690 1115 690 1108 q 709 1157 690 1136 q 756 1195 728 1178 q 810 1224 783 1213 q 851 1235 836 1235 q 891 1220 868 1235 q 935 1183 914 1206 q 971 1134 957 1160 q 985 1088 985 1108 q 977 1058 985 1074 q 950 1033 969 1043 m 279 -268 q 235 -253 253 -268 q 217 -212 217 -239 q 249 -161 217 -181 q 313 -142 281 -142 q 355 -156 342 -142 q 368 -192 368 -169 q 340 -245 368 -222 q 279 -268 313 -268 z "},"":{"ha":876,"x_min":0,"x_max":1061,"o":"m 64 -121 q 11 -75 22 -99 q 0 -35 0 -51 q 27 66 0 3 q 100 211 54 129 q 204 382 146 293 q 122 386 161 385 q 22 388 83 388 l 0 388 q 62 458 19 438 q 161 478 104 478 q 210 475 185 478 q 264 469 236 472 q 401 658 333 569 q 528 819 468 747 q 636 936 589 890 q 733 1003 703 1003 q 777 988 753 1003 q 828 949 801 972 q 792 892 814 938 q 747 776 771 846 q 698 622 722 706 q 654 453 674 539 q 623 288 635 367 q 611 150 611 210 q 622 67 611 94 q 660 40 633 40 q 739 89 692 40 q 844 247 786 138 l 869 221 q 758 33 826 107 q 611 -40 689 -40 q 517 17 544 -40 q 489 175 489 75 q 493 247 489 207 q 507 347 497 288 q 399 363 446 357 q 308 374 351 368 q 179 129 242 256 q 64 -121 117 3 m 521 415 q 563 581 539 497 q 615 742 588 665 q 668 881 642 819 q 575 785 626 847 q 467 638 524 722 q 353 453 411 553 q 436 435 394 444 q 521 415 478 425 m 1029 1165 q 992 1218 1015 1189 q 947 1274 969 1247 q 910 1317 925 1301 q 926 1347 915 1339 q 951 1356 936 1356 q 990 1338 971 1356 q 1026 1294 1010 1319 q 1051 1243 1042 1268 q 1061 1206 1061 1218 q 1029 1165 1061 1176 m 950 1033 q 903 1097 928 1071 q 850 1149 879 1122 q 778 1118 813 1136 q 708 1076 744 1100 q 694 1096 699 1083 q 690 1115 690 1108 q 709 1157 690 1136 q 756 1195 728 1178 q 810 1224 783 1213 q 851 1235 836 1235 q 891 1220 868 1235 q 935 1183 914 1206 q 971 1134 957 1160 q 985 1088 985 1108 q 977 1058 985 1074 q 950 1033 969 1043 z "},"":{"ha":876,"x_min":0,"x_max":1128,"o":"m 64 -121 q 11 -75 22 -99 q 0 -35 0 -51 q 27 66 0 3 q 100 211 54 129 q 204 382 146 293 q 122 386 161 385 q 22 388 83 388 l 0 388 q 62 458 19 438 q 161 478 104 478 q 210 475 185 478 q 264 469 236 472 q 401 658 333 569 q 528 819 468 747 q 636 936 589 890 q 733 1003 703 1003 q 777 988 753 1003 q 828 949 801 972 q 792 892 814 938 q 747 776 771 846 q 698 622 722 706 q 654 453 674 539 q 623 288 635 367 q 611 150 611 210 q 622 67 611 94 q 660 40 633 40 q 739 89 692 40 q 844 247 786 138 l 869 221 q 758 33 826 107 q 611 -40 689 -40 q 517 17 544 -40 q 489 175 489 75 q 493 247 489 207 q 507 347 497 288 q 399 363 446 357 q 308 374 351 368 q 179 129 242 256 q 64 -121 117 3 m 521 415 q 563 581 539 497 q 615 742 588 665 q 668 881 642 819 q 575 785 626 847 q 467 638 524 722 q 353 453 411 553 q 436 435 394 444 q 521 415 478 425 m 1047 1158 q 1022 1162 1033 1158 q 1001 1169 1010 1165 q 1051 1190 1033 1176 q 1068 1226 1068 1204 q 1038 1271 1068 1256 q 940 1286 1007 1286 q 960 1338 940 1317 q 1019 1360 979 1360 q 1097 1327 1067 1360 q 1128 1246 1128 1294 q 1106 1183 1128 1207 q 1047 1158 1083 1158 m 950 1033 q 903 1097 928 1071 q 850 1149 879 1122 q 778 1118 813 1136 q 708 1076 744 1100 q 694 1096 699 1083 q 690 1115 690 1108 q 709 1157 690 1136 q 756 1195 728 1178 q 810 1224 783 1213 q 851 1235 836 1235 q 891 1220 868 1235 q 935 1183 914 1206 q 971 1134 957 1160 q 985 1088 985 1108 q 977 1058 985 1074 q 950 1033 969 1043 z "},"":{"ha":876,"x_min":0,"x_max":1115,"o":"m 64 -121 q 11 -75 22 -99 q 0 -35 0 -51 q 27 66 0 3 q 100 211 54 129 q 204 382 146 293 q 122 386 161 385 q 22 388 83 388 l 0 388 q 62 458 19 438 q 161 478 104 478 q 210 475 185 478 q 264 469 236 472 q 401 658 333 569 q 528 819 468 747 q 636 936 589 890 q 733 1003 703 1003 q 777 988 753 1003 q 828 949 801 972 q 792 892 814 938 q 747 776 771 846 q 698 622 722 706 q 654 453 674 539 q 623 288 635 367 q 611 150 611 210 q 622 67 611 94 q 660 40 633 40 q 739 89 692 40 q 844 247 786 138 l 869 221 q 758 33 826 107 q 611 -40 689 -40 q 517 17 544 -40 q 489 175 489 75 q 493 247 489 207 q 507 347 497 288 q 399 363 446 357 q 308 374 351 368 q 179 129 242 256 q 64 -121 117 3 m 521 415 q 563 581 539 497 q 615 742 588 665 q 668 881 642 819 q 575 785 626 847 q 467 638 524 722 q 353 453 411 553 q 436 435 394 444 q 521 415 478 425 m 861 1053 q 769 1075 804 1053 q 720 1128 735 1097 q 706 1185 706 1158 q 716 1226 706 1210 q 744 1253 726 1243 q 779 1177 751 1213 q 864 1142 807 1142 q 944 1164 914 1142 q 990 1210 975 1186 q 1006 1188 1001 1200 q 1010 1164 1010 1175 q 965 1085 1010 1117 q 861 1053 919 1053 m 999 1238 q 918 1254 960 1238 q 835 1288 876 1271 q 758 1304 794 1304 q 713 1301 735 1304 q 668 1286 692 1297 q 717 1348 685 1328 q 793 1368 749 1368 q 873 1351 832 1368 q 954 1318 914 1335 q 1033 1301 994 1301 q 1115 1315 1075 1301 q 1069 1258 1096 1278 q 999 1238 1042 1238 z "},"":{"ha":876,"x_min":0,"x_max":903,"o":"m 64 -121 q 11 -75 22 -99 q 0 -35 0 -51 q 27 66 0 3 q 100 211 54 129 q 204 382 146 293 q 122 386 161 385 q 22 388 83 388 l 0 388 q 62 458 19 438 q 161 478 104 478 q 210 475 185 478 q 264 469 236 472 q 401 658 333 569 q 528 819 468 747 q 636 936 589 890 q 733 1003 703 1003 q 777 988 753 1003 q 828 949 801 972 q 792 892 814 938 q 747 776 771 846 q 698 622 722 706 q 654 453 674 539 q 623 288 635 367 q 611 150 611 210 q 622 67 611 94 q 660 40 633 40 q 739 89 692 40 q 844 247 786 138 l 869 221 q 758 33 826 107 q 611 -40 689 -40 q 517 17 544 -40 q 489 175 489 75 q 493 247 489 207 q 507 347 497 288 q 399 363 446 357 q 308 374 351 368 q 179 129 242 256 q 64 -121 117 3 m 521 415 q 563 581 539 497 q 615 742 588 665 q 668 881 642 819 q 575 785 626 847 q 467 638 524 722 q 353 453 411 553 q 436 435 394 444 q 521 415 478 425 m 768 1046 q 702 1130 738 1086 q 625 1219 667 1174 q 649 1238 636 1231 q 678 1246 661 1246 q 716 1226 696 1246 q 753 1179 736 1207 q 782 1126 771 1151 q 793 1088 793 1100 q 768 1046 793 1058 m 868 1047 q 823 1125 849 1083 q 765 1206 797 1167 q 784 1231 772 1221 q 813 1242 796 1242 q 849 1225 832 1242 q 877 1184 865 1208 q 896 1135 889 1160 q 903 1096 903 1111 q 892 1060 903 1071 q 868 1047 881 1050 z "},"":{"ha":876,"x_min":0,"x_max":1013,"o":"m 64 -121 q 11 -75 22 -99 q 0 -35 0 -51 q 27 66 0 3 q 100 211 54 129 q 204 382 146 293 q 122 386 161 385 q 22 388 83 388 l 0 388 q 62 458 19 438 q 161 478 104 478 q 210 475 185 478 q 264 469 236 472 q 401 658 333 569 q 528 819 468 747 q 636 936 589 890 q 733 1003 703 1003 q 777 988 753 1003 q 828 949 801 972 q 792 892 814 938 q 747 776 771 846 q 698 622 722 706 q 654 453 674 539 q 623 288 635 367 q 611 150 611 210 q 622 67 611 94 q 660 40 633 40 q 739 89 692 40 q 844 247 786 138 l 869 221 q 758 33 826 107 q 611 -40 689 -40 q 517 17 544 -40 q 489 175 489 75 q 493 247 489 207 q 507 347 497 288 q 399 363 446 357 q 308 374 351 368 q 179 129 242 256 q 64 -121 117 3 m 521 415 q 563 581 539 497 q 615 742 588 665 q 668 881 642 819 q 575 785 626 847 q 467 638 524 722 q 353 453 411 553 q 436 435 394 444 q 521 415 478 425 m 926 1046 q 886 1058 904 1046 q 868 1093 868 1069 q 899 1140 868 1121 q 961 1160 931 1160 q 997 1150 982 1160 q 1013 1114 1013 1140 q 985 1068 1013 1090 q 926 1046 958 1046 m 726 1074 q 685 1085 704 1074 q 667 1121 667 1096 q 698 1167 667 1147 q 760 1188 729 1188 q 796 1178 782 1188 q 810 1143 810 1168 q 784 1097 810 1119 q 726 1074 758 1074 z "},"":{"ha":876,"x_min":0,"x_max":869,"o":"m 64 -121 q 11 -75 22 -99 q 0 -35 0 -51 q 27 66 0 3 q 100 211 54 129 q 204 382 146 293 q 122 386 161 385 q 22 388 83 388 l 0 388 q 62 458 19 438 q 161 478 104 478 q 210 475 185 478 q 264 469 236 472 q 401 658 333 569 q 528 819 468 747 q 636 936 589 890 q 733 1003 703 1003 q 777 988 753 1003 q 828 949 801 972 q 792 892 814 938 q 747 776 771 846 q 698 622 722 706 q 654 453 674 539 q 623 288 635 367 q 611 150 611 210 q 622 67 611 94 q 660 40 633 40 q 739 89 692 40 q 844 247 786 138 l 869 221 q 758 33 826 107 q 611 -40 689 -40 q 517 17 544 -40 q 489 175 489 75 q 493 247 489 207 q 507 347 497 288 q 399 363 446 357 q 308 374 351 368 q 179 129 242 256 q 64 -121 117 3 m 521 415 q 563 581 539 497 q 615 742 588 665 q 668 881 642 819 q 575 785 626 847 q 467 638 524 722 q 353 453 411 553 q 436 435 394 444 q 521 415 478 425 m 279 -268 q 235 -253 253 -268 q 217 -212 217 -239 q 249 -161 217 -181 q 313 -142 281 -142 q 355 -156 342 -142 q 368 -192 368 -169 q 340 -245 368 -222 q 279 -268 313 -268 z "},"":{"ha":876,"x_min":0,"x_max":869,"o":"m 64 -121 q 11 -75 22 -99 q 0 -35 0 -51 q 27 66 0 3 q 100 211 54 129 q 204 382 146 293 q 122 386 161 385 q 22 388 83 388 l 0 388 q 62 458 19 438 q 161 478 104 478 q 210 475 185 478 q 264 469 236 472 q 401 658 333 569 q 528 819 468 747 q 636 936 589 890 q 733 1003 703 1003 q 777 988 753 1003 q 828 949 801 972 q 792 892 814 938 q 747 776 771 846 q 698 622 722 706 q 654 453 674 539 q 623 288 635 367 q 611 150 611 210 q 622 67 611 94 q 660 40 633 40 q 739 89 692 40 q 844 247 786 138 l 869 221 q 758 33 826 107 q 611 -40 689 -40 q 517 17 544 -40 q 489 175 489 75 q 493 247 489 207 q 507 347 497 288 q 399 363 446 357 q 308 374 351 368 q 179 129 242 256 q 64 -121 117 3 m 521 415 q 563 581 539 497 q 615 742 588 665 q 668 881 642 819 q 575 785 626 847 q 467 638 524 722 q 353 453 411 553 q 436 435 394 444 q 521 415 478 425 m 815 1039 q 747 1113 783 1078 q 653 1192 710 1149 q 669 1233 656 1219 q 697 1246 682 1246 q 744 1227 718 1246 q 795 1181 771 1208 q 835 1127 819 1153 q 850 1089 850 1101 q 841 1063 850 1079 q 815 1039 832 1046 z "},"":{"ha":876,"x_min":0,"x_max":932,"o":"m 64 -121 q 11 -75 22 -99 q 0 -35 0 -51 q 27 66 0 3 q 100 211 54 129 q 204 382 146 293 q 122 386 161 385 q 22 388 83 388 l 0 388 q 62 458 19 438 q 161 478 104 478 q 210 475 185 478 q 264 469 236 472 q 401 658 333 569 q 528 819 468 747 q 636 936 589 890 q 733 1003 703 1003 q 777 988 753 1003 q 828 949 801 972 q 792 892 814 938 q 747 776 771 846 q 698 622 722 706 q 654 453 674 539 q 623 288 635 367 q 611 150 611 210 q 622 67 611 94 q 660 40 633 40 q 739 89 692 40 q 844 247 786 138 l 869 221 q 758 33 826 107 q 611 -40 689 -40 q 517 17 544 -40 q 489 175 489 75 q 493 247 489 207 q 507 347 497 288 q 399 363 446 357 q 308 374 351 368 q 179 129 242 256 q 64 -121 117 3 m 521 415 q 563 581 539 497 q 615 742 588 665 q 668 881 642 819 q 575 785 626 847 q 467 638 524 722 q 353 453 411 553 q 436 435 394 444 q 521 415 478 425 m 829 1050 q 801 1055 814 1050 q 781 1065 789 1060 q 844 1086 817 1072 q 872 1131 872 1100 q 842 1170 872 1158 q 744 1182 811 1182 q 764 1234 744 1213 q 824 1256 783 1256 q 901 1224 871 1256 q 932 1149 932 1193 q 903 1078 932 1106 q 829 1050 875 1050 z "},"":{"ha":876,"x_min":0,"x_max":985,"o":"m 64 -121 q 11 -75 22 -99 q 0 -35 0 -51 q 27 66 0 3 q 100 211 54 129 q 204 382 146 293 q 122 386 161 385 q 22 388 83 388 l 0 388 q 62 458 19 438 q 161 478 104 478 q 210 475 185 478 q 264 469 236 472 q 401 658 333 569 q 528 819 468 747 q 636 936 589 890 q 733 1003 703 1003 q 777 988 753 1003 q 828 949 801 972 q 792 892 814 938 q 747 776 771 846 q 698 622 722 706 q 654 453 674 539 q 623 288 635 367 q 611 150 611 210 q 622 67 611 94 q 660 40 633 40 q 739 89 692 40 q 844 247 786 138 l 869 221 q 758 33 826 107 q 611 -40 689 -40 q 517 17 544 -40 q 489 175 489 75 q 493 247 489 207 q 507 347 497 288 q 399 363 446 357 q 308 374 351 368 q 179 129 242 256 q 64 -121 117 3 m 521 415 q 563 581 539 497 q 615 742 588 665 q 668 881 642 819 q 575 785 626 847 q 467 638 524 722 q 353 453 411 553 q 436 435 394 444 q 521 415 478 425 m 946 1019 q 911 1095 939 1060 q 826 1131 883 1131 q 746 1108 776 1131 q 700 1063 715 1086 q 685 1085 689 1072 q 681 1108 681 1099 q 726 1188 681 1157 q 829 1219 771 1219 q 922 1197 888 1219 q 970 1144 956 1175 q 985 1088 985 1114 q 975 1047 985 1063 q 946 1019 965 1031 z "},"":{"ha":876,"x_min":0,"x_max":1003,"o":"m 64 -121 q 11 -75 22 -99 q 0 -35 0 -51 q 27 66 0 3 q 100 211 54 129 q 204 382 146 293 q 122 386 161 385 q 22 388 83 388 l 0 388 q 62 458 19 438 q 161 478 104 478 q 210 475 185 478 q 264 469 236 472 q 401 658 333 569 q 528 819 468 747 q 636 936 589 890 q 733 1003 703 1003 q 777 988 753 1003 q 828 949 801 972 q 792 892 814 938 q 747 776 771 846 q 698 622 722 706 q 654 453 674 539 q 623 288 635 367 q 611 150 611 210 q 622 67 611 94 q 660 40 633 40 q 739 89 692 40 q 844 247 786 138 l 869 221 q 758 33 826 107 q 611 -40 689 -40 q 517 17 544 -40 q 489 175 489 75 q 493 247 489 207 q 507 347 497 288 q 399 363 446 357 q 308 374 351 368 q 179 129 242 256 q 64 -121 117 3 m 521 415 q 563 581 539 497 q 615 742 588 665 q 668 881 642 819 q 575 785 626 847 q 467 638 524 722 q 353 453 411 553 q 436 435 394 444 q 521 415 478 425 m 946 1053 q 867 1060 914 1053 q 770 1079 821 1068 q 674 1101 719 1090 q 596 1115 628 1111 q 665 1157 611 1157 q 774 1147 715 1157 q 894 1121 833 1136 q 1003 1088 954 1106 q 946 1053 986 1053 z "},"":{"ha":876,"x_min":0,"x_max":869,"o":"m 64 -121 q 11 -75 22 -99 q 0 -35 0 -51 q 27 66 0 3 q 100 211 54 129 q 204 382 146 293 q 122 386 161 385 q 22 388 83 388 l 0 388 q 62 458 19 438 q 161 478 104 478 q 210 475 185 478 q 264 469 236 472 q 401 658 333 569 q 528 819 468 747 q 636 936 589 890 q 733 1003 703 1003 q 777 988 753 1003 q 828 949 801 972 q 792 892 814 938 q 747 776 771 846 q 698 622 722 706 q 654 453 674 539 q 623 288 635 367 q 611 150 611 210 q 622 67 611 94 q 660 40 633 40 q 739 89 692 40 q 844 247 786 138 l 869 221 q 758 33 826 107 q 611 -40 689 -40 q 517 17 544 -40 q 489 175 489 75 q 493 247 489 207 q 507 347 497 288 q 399 363 446 357 q 308 374 351 368 q 179 129 242 256 q 64 -121 117 3 m 521 415 q 563 581 539 497 q 615 742 588 665 q 668 881 642 819 q 575 785 626 847 q 467 638 524 722 q 353 453 411 553 q 436 435 394 444 q 521 415 478 425 m 715 -212 q 640 -183 668 -212 q 611 -110 611 -154 q 644 -34 611 -64 q 719 0 676 -4 q 690 -34 701 -14 q 679 -79 679 -54 q 694 -119 679 -101 q 738 -137 708 -137 q 780 -130 761 -137 q 818 -108 799 -122 q 788 -185 817 -158 q 715 -212 760 -212 z "},"":{"ha":876,"x_min":0,"x_max":990,"o":"m 64 -121 q 11 -75 22 -99 q 0 -35 0 -51 q 27 66 0 3 q 100 211 54 129 q 204 382 146 293 q 122 386 161 385 q 22 388 83 388 l 0 388 q 62 458 19 438 q 161 478 104 478 q 210 475 185 478 q 264 469 236 472 q 401 658 333 569 q 528 819 468 747 q 636 936 589 890 q 733 1003 703 1003 q 777 988 753 1003 q 828 949 801 972 q 792 892 814 938 q 747 776 771 846 q 698 622 722 706 q 654 453 674 539 q 623 288 635 367 q 611 150 611 210 q 622 67 611 94 q 660 40 633 40 q 739 89 692 40 q 844 247 786 138 l 869 221 q 758 33 826 107 q 611 -40 689 -40 q 517 17 544 -40 q 489 175 489 75 q 493 247 489 207 q 507 347 497 288 q 399 363 446 357 q 308 374 351 368 q 179 129 242 256 q 64 -121 117 3 m 521 415 q 563 581 539 497 q 615 742 588 665 q 668 881 642 819 q 575 785 626 847 q 467 638 524 722 q 353 453 411 553 q 436 435 394 444 q 521 415 478 425 m 813 1047 q 731 1070 757 1047 q 704 1126 704 1093 q 726 1194 704 1158 q 788 1253 749 1229 q 876 1278 826 1278 q 964 1254 938 1278 q 990 1199 990 1231 q 967 1131 990 1167 q 903 1072 943 1096 q 813 1047 863 1047 m 824 1096 q 870 1111 849 1096 q 906 1148 892 1126 q 919 1189 919 1169 q 908 1214 919 1203 q 871 1225 897 1225 q 825 1210 847 1225 q 790 1175 803 1196 q 776 1135 776 1154 q 789 1109 778 1122 q 824 1096 800 1096 z "},"":{"ha":876,"x_min":0,"x_max":1104,"o":"m 64 -121 q 11 -75 22 -99 q 0 -35 0 -51 q 27 66 0 3 q 100 211 54 129 q 204 382 146 293 q 122 386 161 385 q 22 388 83 388 l 0 388 q 62 458 19 438 q 161 478 104 478 q 210 475 185 478 q 264 469 236 472 q 401 658 333 569 q 528 819 468 747 q 636 936 589 890 q 733 1003 703 1003 q 777 988 753 1003 q 828 949 801 972 q 792 892 814 938 q 747 776 771 846 q 698 622 722 706 q 654 453 674 539 q 623 288 635 367 q 611 150 611 210 q 622 67 611 94 q 660 40 633 40 q 739 89 692 40 q 844 247 786 138 l 869 221 q 758 33 826 107 q 611 -40 689 -40 q 517 17 544 -40 q 489 175 489 75 q 493 247 489 207 q 507 347 497 288 q 399 363 446 357 q 308 374 351 368 q 179 129 242 256 q 64 -121 117 3 m 521 415 q 563 581 539 497 q 615 742 588 665 q 668 881 642 819 q 575 785 626 847 q 467 638 524 722 q 353 453 411 553 q 436 435 394 444 q 521 415 478 425 m 813 1047 q 731 1070 757 1047 q 704 1126 704 1093 q 726 1194 704 1158 q 788 1253 749 1229 q 876 1278 826 1278 q 964 1254 938 1278 q 990 1199 990 1231 q 967 1131 990 1167 q 903 1072 943 1096 q 813 1047 863 1047 m 824 1096 q 870 1111 849 1096 q 906 1148 892 1126 q 919 1189 919 1169 q 908 1214 919 1203 q 871 1225 897 1225 q 825 1210 847 1225 q 790 1175 803 1196 q 776 1135 776 1154 q 789 1109 778 1122 q 824 1096 800 1096 m 953 1317 q 927 1340 935 1324 q 919 1363 919 1356 q 933 1399 919 1374 q 969 1453 947 1425 q 1016 1502 992 1482 q 1063 1522 1040 1522 q 1090 1512 1078 1522 q 1104 1474 1101 1501 q 1019 1391 1056 1426 q 953 1317 982 1356 z "},"":{"ha":876,"x_min":0,"x_max":1043,"o":"m 64 -121 q 11 -75 22 -99 q 0 -35 0 -51 q 27 66 0 3 q 100 211 54 129 q 204 382 146 293 q 122 386 161 385 q 22 388 83 388 l 0 388 q 62 458 19 438 q 161 478 104 478 q 210 475 185 478 q 264 469 236 472 q 401 658 333 569 q 528 819 468 747 q 636 936 589 890 q 733 1003 703 1003 q 777 988 753 1003 q 828 949 801 972 q 792 892 814 938 q 747 776 771 846 q 698 622 722 706 q 654 453 674 539 q 623 288 635 367 q 611 150 611 210 q 622 67 611 94 q 660 40 633 40 q 739 89 692 40 q 844 247 786 138 l 869 221 q 758 33 826 107 q 611 -40 689 -40 q 517 17 544 -40 q 489 175 489 75 q 493 247 489 207 q 507 347 497 288 q 399 363 446 357 q 308 374 351 368 q 179 129 242 256 q 64 -121 117 3 m 521 415 q 563 581 539 497 q 615 742 588 665 q 668 881 642 819 q 575 785 626 847 q 467 638 524 722 q 353 453 411 553 q 436 435 394 444 q 521 415 478 425 m 926 1049 q 846 1065 888 1049 q 763 1099 804 1082 q 686 1115 722 1115 q 641 1112 663 1115 q 596 1097 619 1108 q 644 1159 613 1139 q 721 1179 676 1179 q 801 1163 760 1179 q 882 1129 842 1146 q 961 1113 922 1113 q 1043 1126 1003 1113 q 997 1069 1024 1089 q 926 1049 969 1049 z "},"":{"ha":1097,"x_min":-1,"x_max":1196,"o":"m 63 -121 q 10 -75 21 -99 q -1 -36 -1 -51 q 26 65 -1 1 q 99 211 53 129 q 203 382 144 293 q 122 386 156 385 q 64 388 88 388 l -1 388 q 60 458 18 438 q 161 478 103 478 q 210 475 185 478 q 263 469 235 472 q 409 671 336 575 q 547 842 482 767 q 660 960 611 917 q 733 1003 708 1003 q 858 999 792 1003 q 990 991 925 996 q 1110 981 1056 986 q 1196 971 1164 975 q 1147 928 1186 943 q 1053 908 1108 913 q 938 903 999 903 q 863 903 899 903 q 793 906 828 904 q 741 774 771 860 q 685 588 711 689 q 859 572 785 585 q 988 554 933 560 q 938 511 976 526 q 845 491 900 496 q 729 486 790 486 q 689 486 704 486 q 658 488 674 486 q 623 298 636 390 q 610 139 610 206 q 611 114 610 125 q 614 93 613 103 q 716 81 660 86 q 828 72 772 76 q 934 63 885 68 q 1014 50 983 58 q 966 8 1004 22 q 873 -12 928 -7 q 757 -17 818 -17 q 640 -16 697 -17 q 538 -11 582 -15 q 498 65 510 14 q 486 175 486 115 q 492 258 486 215 q 506 347 497 301 q 397 363 444 357 q 307 374 350 368 q 178 129 240 256 q 63 -121 115 3 m 519 415 q 562 581 538 497 q 613 742 586 665 q 667 881 640 819 q 574 785 625 847 q 466 638 522 722 q 351 453 410 553 q 440 433 396 444 q 519 415 485 422 z "},"":{"ha":1097,"x_min":-1,"x_max":1196,"o":"m 63 -121 q 10 -75 21 -99 q -1 -36 -1 -51 q 26 65 -1 1 q 99 211 53 129 q 203 382 144 293 q 122 386 156 385 q 64 388 88 388 l -1 388 q 60 458 18 438 q 161 478 103 478 q 210 475 185 478 q 263 469 235 472 q 409 671 336 575 q 547 842 482 767 q 660 960 611 917 q 733 1003 708 1003 q 858 999 792 1003 q 990 991 925 996 q 1110 981 1056 986 q 1196 971 1164 975 q 1147 928 1186 943 q 1053 908 1108 913 q 938 903 999 903 q 863 903 899 903 q 793 906 828 904 q 741 774 771 860 q 685 588 711 689 q 859 572 785 585 q 988 554 933 560 q 938 511 976 526 q 845 491 900 496 q 729 486 790 486 q 689 486 704 486 q 658 488 674 486 q 623 298 636 390 q 610 139 610 206 q 611 114 610 125 q 614 93 613 103 q 716 81 660 86 q 828 72 772 76 q 934 63 885 68 q 1014 50 983 58 q 966 8 1004 22 q 873 -12 928 -7 q 757 -17 818 -17 q 640 -16 697 -17 q 538 -11 582 -15 q 498 65 510 14 q 486 175 486 115 q 492 258 486 215 q 506 347 497 301 q 397 363 444 357 q 307 374 350 368 q 178 129 240 256 q 63 -121 115 3 m 519 415 q 562 581 538 497 q 613 742 586 665 q 667 881 640 819 q 574 785 625 847 q 466 638 522 722 q 351 453 410 553 q 440 433 396 444 q 519 415 485 422 m 874 1039 q 848 1062 856 1046 q 840 1085 840 1078 q 854 1122 840 1096 q 890 1176 868 1147 q 937 1224 913 1204 q 983 1244 961 1244 q 1010 1234 999 1244 q 1025 1196 1022 1224 q 940 1113 976 1149 q 874 1039 903 1078 z "},"":{"ha":792,"x_min":44,"x_max":888,"o":"m 347 -121 q 174 -71 242 -121 q 76 58 107 -21 q 44 222 44 138 q 78 442 44 332 q 170 653 111 553 q 304 831 229 753 q 465 953 379 908 q 635 999 550 999 q 738 970 696 999 q 779 872 779 942 q 765 779 779 831 q 726 680 750 728 q 671 601 701 632 q 608 571 640 571 q 579 581 594 571 q 551 614 564 590 q 599 672 572 638 q 649 744 625 706 q 688 819 672 782 q 703 883 703 856 q 689 923 703 908 q 640 938 675 938 q 515 892 579 938 q 390 769 450 846 q 283 597 331 692 q 207 401 235 501 q 179 210 179 300 q 199 83 179 143 q 264 -16 219 22 q 381 -54 308 -54 q 530 -12 456 -54 q 666 97 604 29 q 765 243 728 165 l 801 219 q 685 49 753 126 q 531 -74 617 -28 q 347 -121 446 -121 m 736 1038 q 710 1060 718 1044 q 703 1083 703 1076 q 717 1120 703 1094 q 753 1174 731 1146 q 799 1223 775 1203 q 846 1243 824 1243 q 873 1233 861 1243 q 888 1194 885 1222 q 802 1112 839 1147 q 736 1038 765 1076 z "},"":{"ha":792,"x_min":44,"x_max":872,"o":"m 347 -121 q 174 -71 242 -121 q 76 58 107 -21 q 44 222 44 138 q 78 442 44 332 q 170 653 111 553 q 304 831 229 753 q 465 953 379 908 q 635 999 550 999 q 738 970 696 999 q 779 872 779 942 q 765 779 779 831 q 726 680 750 728 q 671 601 701 632 q 608 571 640 571 q 579 581 594 571 q 551 614 564 590 q 599 672 572 638 q 649 744 625 706 q 688 819 672 782 q 703 883 703 856 q 689 923 703 908 q 640 938 675 938 q 515 892 579 938 q 390 769 450 846 q 283 597 331 692 q 207 401 235 501 q 179 210 179 300 q 199 83 179 143 q 264 -16 219 22 q 381 -54 308 -54 q 530 -12 456 -54 q 666 97 604 29 q 765 243 728 165 l 801 219 q 685 49 753 126 q 531 -74 617 -28 q 347 -121 446 -121 m 707 1046 q 663 1063 688 1046 q 617 1106 639 1079 q 581 1160 594 1132 q 567 1213 567 1189 q 574 1241 567 1228 q 600 1263 582 1254 q 647 1189 622 1221 q 707 1126 672 1157 q 784 1165 749 1143 q 849 1210 819 1186 q 866 1192 860 1203 q 872 1169 872 1181 q 853 1127 872 1149 q 805 1087 833 1106 q 749 1057 776 1068 q 707 1046 722 1046 z "},"":{"ha":792,"x_min":44,"x_max":801,"o":"m 347 -121 q 174 -71 242 -121 q 76 58 107 -21 q 44 222 44 138 q 78 442 44 332 q 170 653 111 553 q 304 831 229 753 q 465 953 379 908 q 635 999 550 999 q 738 970 696 999 q 779 872 779 942 q 765 779 779 831 q 726 680 750 728 q 671 601 701 632 q 608 571 640 571 q 579 581 594 571 q 551 614 564 590 q 599 672 572 638 q 649 744 625 706 q 688 819 672 782 q 703 883 703 856 q 689 923 703 908 q 640 938 675 938 q 515 892 579 938 q 390 769 450 846 q 283 597 331 692 q 207 401 235 501 q 179 210 179 300 q 199 83 179 143 q 264 -16 219 22 q 381 -54 308 -54 q 530 -12 456 -54 q 666 97 604 29 q 765 243 728 165 l 801 219 q 685 49 753 126 q 531 -74 617 -28 q 347 -121 446 -121 m 538 -324 q 471 -305 496 -324 q 446 -267 446 -286 q 457 -238 446 -254 q 490 -207 468 -222 q 516 -256 501 -242 q 546 -269 531 -269 q 595 -249 569 -269 q 640 -202 621 -229 q 658 -154 658 -175 q 652 -137 658 -143 q 636 -132 646 -132 q 599 -144 619 -132 q 558 -170 578 -157 q 526 -183 539 -183 q 506 -171 514 -183 q 497 -149 497 -158 q 510 -128 497 -146 q 542 -84 522 -110 q 581 -35 561 -58 q 614 0 600 -11 l 636 0 l 571 -104 q 603 -94 582 -100 q 646 -87 624 -87 q 699 -105 678 -87 q 721 -157 721 -122 q 695 -233 721 -194 q 628 -297 669 -271 q 538 -324 586 -324 z "},"":{"ha":792,"x_min":44,"x_max":894,"o":"m 347 -121 q 174 -71 242 -121 q 76 58 107 -21 q 44 222 44 138 q 78 442 44 332 q 170 653 111 553 q 304 831 229 753 q 465 953 379 908 q 635 999 550 999 q 738 970 696 999 q 779 872 779 942 q 765 779 779 831 q 726 680 750 728 q 671 601 701 632 q 608 571 640 571 q 579 581 594 571 q 551 614 564 590 q 599 672 572 638 q 649 744 625 706 q 688 819 672 782 q 703 883 703 856 q 689 923 703 908 q 640 938 675 938 q 515 892 579 938 q 390 769 450 846 q 283 597 331 692 q 207 401 235 501 q 179 210 179 300 q 199 83 179 143 q 264 -16 219 22 q 381 -54 308 -54 q 530 -12 456 -54 q 666 97 604 29 q 765 243 728 165 l 801 219 q 685 49 753 126 q 531 -74 617 -28 q 347 -121 446 -121 m 860 1032 q 813 1095 838 1069 q 760 1147 789 1121 q 688 1117 722 1135 q 618 1075 654 1099 q 604 1094 608 1082 q 600 1114 600 1107 q 619 1156 600 1135 q 665 1194 638 1176 q 719 1222 693 1211 q 761 1233 746 1233 q 801 1219 778 1233 q 845 1181 824 1204 q 881 1133 867 1158 q 894 1086 894 1107 q 887 1057 894 1072 q 860 1032 879 1042 z "},"":{"ha":792,"x_min":44,"x_max":808,"o":"m 347 -121 q 174 -71 242 -121 q 76 58 107 -21 q 44 222 44 138 q 78 442 44 332 q 170 653 111 553 q 304 831 229 753 q 465 953 379 908 q 635 999 550 999 q 738 970 696 999 q 779 872 779 942 q 765 779 779 831 q 726 680 750 728 q 671 601 701 632 q 608 571 640 571 q 579 581 594 571 q 551 614 564 590 q 599 672 572 638 q 649 744 625 706 q 688 819 672 782 q 703 883 703 856 q 689 923 703 908 q 640 938 675 938 q 515 892 579 938 q 390 769 450 846 q 283 597 331 692 q 207 401 235 501 q 179 210 179 300 q 199 83 179 143 q 264 -16 219 22 q 381 -54 308 -54 q 530 -12 456 -54 q 666 97 604 29 q 765 243 728 165 l 801 219 q 685 49 753 126 q 531 -74 617 -28 q 347 -121 446 -121 m 719 1063 q 675 1077 693 1063 q 657 1118 657 1092 q 689 1169 657 1150 q 753 1189 721 1189 q 795 1175 782 1189 q 808 1139 808 1161 q 781 1085 808 1108 q 719 1063 753 1063 z "},"":{"ha":1876,"x_min":97,"x_max":1928,"o":"m 265 -121 q 173 -108 217 -121 q 97 -51 129 -94 q 117 46 101 -18 q 157 191 133 110 q 207 358 181 272 q 259 523 233 444 q 305 660 285 601 q 335 746 325 719 q 349 779 339 757 q 374 825 358 801 q 409 865 389 849 q 453 881 429 881 q 506 861 476 881 q 419 645 463 764 q 335 401 375 526 q 263 156 296 275 q 210 -61 231 38 q 241 -67 221 -65 q 279 -69 261 -69 q 451 -26 369 -69 q 602 91 533 18 q 722 255 671 164 q 801 442 774 346 q 829 625 829 538 q 791 808 829 738 q 686 910 753 878 q 533 943 619 943 q 371 910 443 943 q 258 822 299 878 q 217 693 217 765 q 219 660 217 678 q 229 626 222 643 q 144 652 169 626 q 118 715 118 678 q 153 814 118 764 q 252 906 189 864 q 399 974 315 949 q 579 1000 482 1000 q 797 948 715 1000 q 916 808 879 896 q 953 611 953 719 q 915 383 953 492 q 809 182 876 274 q 653 22 742 90 q 466 -83 565 -46 q 265 -121 367 -121 m 1613 -121 q 1490 -100 1554 -121 q 1363 -51 1425 -79 q 1250 0 1301 -22 q 1156 -55 1201 -35 q 1065 -75 1110 -75 q 988 -56 1019 -75 q 938 -9 956 -37 q 921 46 921 19 q 947 101 921 76 q 1039 125 972 125 q 1131 115 1081 125 q 1235 90 1181 106 q 1367 247 1300 156 q 1496 436 1435 339 q 1414 431 1456 435 q 1308 418 1372 426 l 1267 413 q 1300 485 1269 460 q 1380 521 1331 511 q 1486 531 1429 531 q 1521 530 1507 531 q 1550 528 1535 529 q 1643 696 1603 617 q 1706 833 1683 775 q 1652 850 1676 842 q 1594 871 1628 858 q 1419 926 1483 911 q 1314 942 1354 942 q 1236 924 1271 942 q 1181 863 1201 907 q 1161 736 1161 818 q 1163 738 1161 746 q 1167 716 1164 729 q 1174 696 1171 703 q 1095 733 1119 706 q 1071 806 1071 761 q 1144 950 1071 900 q 1356 1000 1217 1000 q 1499 987 1432 1000 q 1627 956 1567 974 q 1744 926 1688 939 q 1858 913 1801 913 q 1893 914 1872 913 q 1928 918 1914 915 q 1876 872 1897 888 q 1840 850 1856 857 q 1767 696 1811 782 q 1668 518 1724 610 q 1754 510 1721 514 q 1826 507 1788 507 q 1781 463 1804 476 q 1722 444 1758 449 q 1621 439 1686 440 q 1478 235 1554 333 q 1328 65 1403 138 q 1507 17 1418 39 q 1660 -6 1596 -6 q 1724 2 1694 -6 q 1785 25 1753 10 q 1714 -89 1754 -57 q 1613 -121 1674 -121 m 1054 -29 q 1107 -12 1079 -29 q 1169 32 1135 6 q 1089 61 1126 49 q 1022 74 1051 74 q 980 63 993 74 q 967 38 967 53 q 992 -7 967 15 q 1054 -29 1017 -29 m 1585 1047 q 1541 1064 1565 1047 q 1494 1107 1517 1081 q 1458 1162 1472 1133 q 1444 1214 1444 1190 q 1452 1242 1444 1229 q 1478 1264 1460 1256 q 1525 1190 1500 1222 q 1585 1128 1550 1158 q 1662 1166 1626 1144 q 1726 1211 1697 1188 q 1744 1193 1738 1204 q 1750 1171 1750 1182 q 1731 1128 1750 1150 q 1683 1088 1711 1107 q 1627 1058 1654 1069 q 1585 1047 1600 1047 z "},"":{"ha":956,"x_min":39,"x_max":953,"o":"m 267 -121 q 173 -108 217 -121 q 97 -51 129 -94 q 148 160 117 43 q 214 386 179 276 q 131 380 176 385 q 39 368 85 375 q 115 433 63 415 q 236 456 167 451 q 294 633 267 551 q 335 746 322 714 q 349 779 339 757 q 374 825 358 801 q 409 865 389 849 q 453 881 429 881 q 506 861 476 881 q 428 669 467 772 q 354 458 389 565 q 499 453 428 458 q 608 444 569 447 q 510 399 557 410 q 432 388 464 388 l 332 388 q 262 151 293 267 q 210 -61 231 36 q 237 -64 225 -62 q 263 -65 249 -65 q 435 -26 351 -65 q 590 81 518 13 q 715 236 661 149 q 799 422 769 324 q 829 619 829 521 q 747 865 829 786 q 532 943 664 943 q 370 910 442 943 q 258 821 299 878 q 217 693 217 764 q 219 660 217 678 q 229 626 222 643 q 144 652 169 626 q 118 715 118 678 q 153 814 118 764 q 252 906 189 864 q 398 974 315 949 q 576 1000 481 1000 q 797 946 714 1000 q 916 802 879 892 q 953 604 953 713 q 915 376 953 485 q 809 177 876 268 q 654 19 742 86 q 467 -84 567 -47 q 267 -121 368 -121 z "},"":{"ha":954,"x_min":97,"x_max":953,"o":"m 265 -121 q 173 -108 217 -121 q 97 -51 129 -94 q 117 46 101 -18 q 157 191 133 110 q 207 358 181 272 q 259 523 233 444 q 305 660 285 601 q 335 746 325 719 q 349 779 339 757 q 374 825 358 801 q 409 865 389 849 q 453 881 429 881 q 506 861 476 881 q 419 645 463 764 q 335 401 375 526 q 263 156 296 275 q 210 -61 231 38 q 241 -67 221 -65 q 279 -69 261 -69 q 451 -26 369 -69 q 602 91 533 18 q 722 255 671 164 q 801 442 774 346 q 829 625 829 538 q 791 808 829 738 q 686 910 753 878 q 533 943 619 943 q 371 910 443 943 q 258 822 299 878 q 217 693 217 765 q 219 660 217 678 q 229 626 222 643 q 144 652 169 626 q 118 715 118 678 q 153 814 118 764 q 252 906 189 864 q 399 974 315 949 q 579 1000 482 1000 q 797 948 715 1000 q 916 808 879 896 q 953 611 953 719 q 915 383 953 492 q 809 182 876 274 q 653 22 742 90 q 466 -83 565 -46 q 265 -121 367 -121 m 726 1047 q 683 1064 707 1047 q 636 1107 658 1081 q 600 1162 614 1133 q 586 1214 586 1190 q 594 1242 586 1229 q 619 1264 601 1256 q 667 1190 642 1222 q 726 1128 692 1158 q 803 1166 768 1144 q 868 1211 839 1188 q 885 1193 879 1204 q 892 1171 892 1182 q 872 1128 892 1150 q 824 1088 853 1107 q 769 1058 796 1069 q 726 1047 742 1047 z "},"":{"ha":956,"x_min":39,"x_max":953,"o":"m 267 -121 q 173 -108 217 -121 q 97 -51 129 -94 q 148 160 117 43 q 214 386 179 276 q 131 380 176 385 q 39 368 85 375 q 115 433 63 415 q 236 456 167 451 q 294 633 267 551 q 335 746 322 714 q 349 779 339 757 q 374 825 358 801 q 409 865 389 849 q 453 881 429 881 q 506 861 476 881 q 428 669 467 772 q 354 458 389 565 q 499 453 428 458 q 608 444 569 447 q 510 399 557 410 q 432 388 464 388 l 332 388 q 262 151 293 267 q 210 -61 231 36 q 237 -64 225 -62 q 263 -65 249 -65 q 435 -26 351 -65 q 590 81 518 13 q 715 236 661 149 q 799 422 769 324 q 829 619 829 521 q 747 865 829 786 q 532 943 664 943 q 370 910 442 943 q 258 821 299 878 q 217 693 217 764 q 219 660 217 678 q 229 626 222 643 q 144 652 169 626 q 118 715 118 678 q 153 814 118 764 q 252 906 189 864 q 398 974 315 949 q 576 1000 481 1000 q 797 946 714 1000 q 916 802 879 892 q 953 604 953 713 q 915 376 953 485 q 809 177 876 268 q 654 19 742 86 q 467 -84 567 -47 q 267 -121 368 -121 z "},"":{"ha":1386,"x_min":97,"x_max":1438,"o":"m 265 -121 q 173 -108 217 -121 q 97 -51 129 -94 q 117 46 101 -18 q 157 191 133 110 q 207 358 181 272 q 259 523 233 444 q 305 660 285 601 q 335 746 325 719 q 349 779 339 757 q 374 825 358 801 q 409 865 389 849 q 453 881 429 881 q 506 861 476 881 q 419 645 463 764 q 335 401 375 526 q 263 156 296 275 q 210 -61 231 38 q 241 -67 221 -65 q 279 -69 261 -69 q 451 -26 369 -69 q 602 91 533 18 q 722 255 671 164 q 801 442 774 346 q 829 625 829 538 q 791 808 829 738 q 686 910 753 878 q 533 943 619 943 q 371 910 443 943 q 258 822 299 878 q 217 693 217 765 q 219 660 217 678 q 229 626 222 643 q 144 652 169 626 q 118 715 118 678 q 153 814 118 764 q 252 906 189 864 q 399 974 315 949 q 579 1000 482 1000 q 797 948 715 1000 q 916 808 879 896 q 953 611 953 719 q 915 383 953 492 q 809 182 876 274 q 653 22 742 90 q 466 -83 565 -46 q 265 -121 367 -121 m 938 -389 q 860 -370 889 -389 q 832 -308 832 -351 q 862 -224 832 -261 q 942 -153 892 -186 q 1055 -85 993 -119 q 1179 -8 1117 -50 q 1152 76 1178 36 q 1063 163 1126 117 q 1154 210 1117 178 q 1211 283 1192 243 q 1231 357 1231 322 q 1218 402 1231 382 q 1174 422 1206 422 q 1096 386 1132 422 q 1027 293 1060 350 q 964 171 994 236 l 938 193 q 1002 342 968 275 q 1083 450 1036 410 q 1194 490 1129 490 q 1292 458 1251 490 q 1332 365 1332 426 q 1310 281 1332 322 q 1253 206 1289 240 q 1175 150 1218 172 q 1228 96 1206 126 q 1265 36 1251 65 q 1356 122 1315 75 q 1419 231 1396 169 l 1438 208 q 1376 94 1417 147 q 1279 0 1335 40 q 1283 -20 1282 -10 q 1285 -46 1285 -31 q 1257 -167 1285 -107 q 1180 -278 1229 -228 q 1069 -358 1131 -328 q 938 -389 1007 -389 m 918 -336 q 983 -317 943 -336 q 1063 -263 1022 -299 q 1135 -178 1104 -228 q 1176 -64 1167 -128 q 1072 -126 1125 -97 q 976 -184 1019 -156 q 907 -240 933 -212 q 881 -299 881 -268 q 892 -327 881 -318 q 918 -336 903 -336 m 1267 590 q 1223 607 1247 590 q 1176 650 1199 624 q 1140 705 1154 676 q 1126 757 1126 733 q 1134 785 1126 772 q 1160 807 1142 799 q 1207 733 1182 765 q 1267 671 1232 701 q 1344 709 1308 688 q 1408 754 1379 731 q 1426 736 1419 747 q 1432 714 1432 725 q 1413 672 1432 693 q 1365 631 1393 650 q 1309 601 1336 613 q 1267 590 1282 590 z "},"":{"ha":740,"x_min":-6,"x_max":788,"o":"m 290 -121 q 135 -85 201 -121 q 31 9 68 -50 q -6 140 -6 68 q 21 261 -6 201 q 95 370 47 321 q 208 453 143 419 q 349 499 272 488 q 274 597 299 543 q 249 708 249 651 q 286 849 249 782 q 392 957 324 915 q 550 999 460 999 q 681 958 635 999 q 726 839 726 917 q 707 735 726 785 q 660 656 688 686 q 607 625 633 625 q 570 642 588 625 q 540 682 553 660 q 627 771 592 724 q 663 868 663 818 q 635 931 663 910 q 563 953 607 953 q 458 915 500 953 q 394 817 415 876 q 372 696 372 758 q 394 576 372 636 q 475 471 417 515 q 301 402 375 456 q 188 278 228 349 q 147 138 147 207 q 165 50 147 96 q 222 -27 182 4 q 328 -58 261 -58 q 478 -16 404 -58 q 613 96 551 26 q 713 243 675 165 l 750 219 q 629 47 699 124 q 475 -76 560 -31 q 290 -121 390 -121 m 636 1039 q 610 1062 618 1046 q 603 1085 603 1078 q 617 1122 603 1096 q 653 1176 631 1147 q 699 1224 675 1204 q 746 1244 724 1244 q 773 1234 761 1244 q 788 1196 785 1224 q 702 1113 739 1149 q 636 1039 665 1078 z "},"":{"ha":740,"x_min":-6,"x_max":819,"o":"m 290 -121 q 135 -85 201 -121 q 31 9 68 -50 q -6 140 -6 68 q 21 261 -6 201 q 95 370 47 321 q 208 453 143 419 q 349 499 272 488 q 274 597 299 543 q 249 708 249 651 q 286 849 249 782 q 392 957 324 915 q 550 999 460 999 q 681 958 635 999 q 726 839 726 917 q 707 735 726 785 q 660 656 688 686 q 607 625 633 625 q 570 642 588 625 q 540 682 553 660 q 627 771 592 724 q 663 868 663 818 q 635 931 663 910 q 563 953 607 953 q 458 915 500 953 q 394 817 415 876 q 372 696 372 758 q 394 576 372 636 q 475 471 417 515 q 301 402 375 456 q 188 278 228 349 q 147 138 147 207 q 165 50 147 96 q 222 -27 182 4 q 328 -58 261 -58 q 478 -16 404 -58 q 613 96 551 26 q 713 243 675 165 l 750 219 q 629 47 699 124 q 475 -76 560 -31 q 290 -121 390 -121 m 671 1053 q 579 1075 614 1053 q 530 1128 544 1097 q 515 1185 515 1158 q 526 1226 515 1210 q 554 1253 536 1243 q 589 1177 561 1213 q 674 1142 617 1142 q 754 1164 724 1142 q 800 1210 785 1186 q 815 1188 811 1200 q 819 1164 819 1175 q 774 1085 819 1117 q 671 1053 729 1053 z "},"":{"ha":740,"x_min":-6,"x_max":772,"o":"m 290 -121 q 135 -85 201 -121 q 31 9 68 -50 q -6 140 -6 68 q 21 261 -6 201 q 95 370 47 321 q 208 453 143 419 q 349 499 272 488 q 274 597 299 543 q 249 708 249 651 q 286 849 249 782 q 392 957 324 915 q 550 999 460 999 q 681 958 635 999 q 726 839 726 917 q 707 735 726 785 q 660 656 688 686 q 607 625 633 625 q 570 642 588 625 q 540 682 553 660 q 627 771 592 724 q 663 868 663 818 q 635 931 663 910 q 563 953 607 953 q 458 915 500 953 q 394 817 415 876 q 372 696 372 758 q 394 576 372 636 q 475 471 417 515 q 301 402 375 456 q 188 278 228 349 q 147 138 147 207 q 165 50 147 96 q 222 -27 182 4 q 328 -58 261 -58 q 478 -16 404 -58 q 613 96 551 26 q 713 243 675 165 l 750 219 q 629 47 699 124 q 475 -76 560 -31 q 290 -121 390 -121 m 607 1047 q 563 1064 588 1047 q 517 1107 539 1081 q 481 1162 494 1133 q 467 1214 467 1190 q 474 1242 467 1229 q 500 1264 482 1256 q 547 1190 522 1222 q 607 1128 572 1158 q 684 1166 649 1144 q 749 1211 719 1188 q 766 1193 760 1204 q 772 1171 772 1182 q 753 1128 772 1150 q 705 1088 733 1107 q 649 1058 676 1069 q 607 1047 622 1047 z "},"":{"ha":740,"x_min":-6,"x_max":794,"o":"m 290 -121 q 135 -85 201 -121 q 31 9 68 -50 q -6 140 -6 68 q 21 261 -6 201 q 95 370 47 321 q 208 453 143 419 q 349 499 272 488 q 274 597 299 543 q 249 708 249 651 q 286 849 249 782 q 392 957 324 915 q 550 999 460 999 q 681 958 635 999 q 726 839 726 917 q 707 735 726 785 q 660 656 688 686 q 607 625 633 625 q 570 642 588 625 q 540 682 553 660 q 627 771 592 724 q 663 868 663 818 q 635 931 663 910 q 563 953 607 953 q 458 915 500 953 q 394 817 415 876 q 372 696 372 758 q 394 576 372 636 q 475 471 417 515 q 301 402 375 456 q 188 278 228 349 q 147 138 147 207 q 165 50 147 96 q 222 -27 182 4 q 328 -58 261 -58 q 478 -16 404 -58 q 613 96 551 26 q 713 243 675 165 l 750 219 q 629 47 699 124 q 475 -76 560 -31 q 290 -121 390 -121 m 760 1033 q 713 1097 738 1071 q 660 1149 689 1122 q 588 1118 622 1136 q 518 1076 554 1100 q 504 1096 508 1083 q 500 1115 500 1108 q 519 1157 500 1136 q 565 1195 538 1178 q 619 1224 593 1213 q 661 1235 646 1235 q 701 1220 678 1235 q 745 1183 724 1206 q 781 1134 767 1160 q 794 1088 794 1108 q 787 1058 794 1074 q 760 1033 779 1043 z "},"":{"ha":740,"x_min":-6,"x_max":964,"o":"m 290 -121 q 135 -85 201 -121 q 31 9 68 -50 q -6 140 -6 68 q 21 261 -6 201 q 95 370 47 321 q 208 453 143 419 q 349 499 272 488 q 274 597 299 543 q 249 708 249 651 q 286 849 249 782 q 392 957 324 915 q 550 999 460 999 q 681 958 635 999 q 726 839 726 917 q 707 735 726 785 q 660 656 688 686 q 607 625 633 625 q 570 642 588 625 q 540 682 553 660 q 627 771 592 724 q 663 868 663 818 q 635 931 663 910 q 563 953 607 953 q 458 915 500 953 q 394 817 415 876 q 372 696 372 758 q 394 576 372 636 q 475 471 417 515 q 301 402 375 456 q 188 278 228 349 q 147 138 147 207 q 165 50 147 96 q 222 -27 182 4 q 328 -58 261 -58 q 478 -16 404 -58 q 613 96 551 26 q 713 243 675 165 l 750 219 q 629 47 699 124 q 475 -76 560 -31 q 290 -121 390 -121 m 828 1169 q 802 1189 810 1176 q 794 1215 794 1201 q 807 1251 794 1228 q 839 1297 819 1274 q 881 1338 858 1321 q 922 1354 903 1354 q 949 1344 938 1354 q 964 1306 961 1333 q 923 1269 949 1293 q 872 1217 897 1244 q 828 1169 846 1190 m 760 1033 q 713 1097 738 1071 q 660 1149 689 1122 q 588 1118 622 1136 q 518 1076 554 1100 q 504 1096 508 1083 q 500 1115 500 1108 q 519 1157 500 1136 q 565 1195 538 1178 q 619 1224 593 1213 q 661 1235 646 1235 q 701 1220 678 1235 q 745 1183 724 1206 q 781 1134 767 1160 q 794 1088 794 1108 q 787 1058 794 1074 q 760 1033 779 1043 z "},"":{"ha":740,"x_min":-6,"x_max":794,"o":"m 290 -121 q 135 -85 201 -121 q 31 9 68 -50 q -6 140 -6 68 q 21 261 -6 201 q 95 370 47 321 q 208 453 143 419 q 349 499 272 488 q 274 597 299 543 q 249 708 249 651 q 286 849 249 782 q 392 957 324 915 q 550 999 460 999 q 681 958 635 999 q 726 839 726 917 q 707 735 726 785 q 660 656 688 686 q 607 625 633 625 q 570 642 588 625 q 540 682 553 660 q 627 771 592 724 q 663 868 663 818 q 635 931 663 910 q 563 953 607 953 q 458 915 500 953 q 394 817 415 876 q 372 696 372 758 q 394 576 372 636 q 475 471 417 515 q 301 402 375 456 q 188 278 228 349 q 147 138 147 207 q 165 50 147 96 q 222 -27 182 4 q 328 -58 261 -58 q 478 -16 404 -58 q 613 96 551 26 q 713 243 675 165 l 750 219 q 629 47 699 124 q 475 -76 560 -31 q 290 -121 390 -121 m 760 1033 q 713 1097 738 1071 q 660 1149 689 1122 q 588 1118 622 1136 q 518 1076 554 1100 q 504 1096 508 1083 q 500 1115 500 1108 q 519 1157 500 1136 q 565 1195 538 1178 q 619 1224 593 1213 q 661 1235 646 1235 q 701 1220 678 1235 q 745 1183 724 1206 q 781 1134 767 1160 q 794 1088 794 1108 q 787 1058 794 1074 q 760 1033 779 1043 m 233 -349 q 189 -334 207 -349 q 171 -293 171 -319 q 203 -242 171 -261 q 267 -222 235 -222 q 309 -236 296 -222 q 322 -272 322 -250 q 294 -326 322 -303 q 233 -349 267 -349 z "},"":{"ha":740,"x_min":-6,"x_max":871,"o":"m 290 -121 q 135 -85 201 -121 q 31 9 68 -50 q -6 140 -6 68 q 21 261 -6 201 q 95 370 47 321 q 208 453 143 419 q 349 499 272 488 q 274 597 299 543 q 249 708 249 651 q 286 849 249 782 q 392 957 324 915 q 550 999 460 999 q 681 958 635 999 q 726 839 726 917 q 707 735 726 785 q 660 656 688 686 q 607 625 633 625 q 570 642 588 625 q 540 682 553 660 q 627 771 592 724 q 663 868 663 818 q 635 931 663 910 q 563 953 607 953 q 458 915 500 953 q 394 817 415 876 q 372 696 372 758 q 394 576 372 636 q 475 471 417 515 q 301 402 375 456 q 188 278 228 349 q 147 138 147 207 q 165 50 147 96 q 222 -27 182 4 q 328 -58 261 -58 q 478 -16 404 -58 q 613 96 551 26 q 713 243 675 165 l 750 219 q 629 47 699 124 q 475 -76 560 -31 q 290 -121 390 -121 m 839 1165 q 802 1218 825 1189 q 757 1274 779 1247 q 719 1317 735 1301 q 735 1347 725 1339 q 761 1356 746 1356 q 800 1338 781 1356 q 835 1294 819 1319 q 861 1243 851 1268 q 871 1206 871 1218 q 839 1165 871 1176 m 760 1033 q 713 1097 738 1071 q 660 1149 689 1122 q 588 1118 622 1136 q 518 1076 554 1100 q 504 1096 508 1083 q 500 1115 500 1108 q 519 1157 500 1136 q 565 1195 538 1178 q 619 1224 593 1213 q 661 1235 646 1235 q 701 1220 678 1235 q 745 1183 724 1206 q 781 1134 767 1160 q 794 1088 794 1108 q 787 1058 794 1074 q 760 1033 779 1043 z "},"":{"ha":740,"x_min":-6,"x_max":938,"o":"m 290 -121 q 135 -85 201 -121 q 31 9 68 -50 q -6 140 -6 68 q 21 261 -6 201 q 95 370 47 321 q 208 453 143 419 q 349 499 272 488 q 274 597 299 543 q 249 708 249 651 q 286 849 249 782 q 392 957 324 915 q 550 999 460 999 q 681 958 635 999 q 726 839 726 917 q 707 735 726 785 q 660 656 688 686 q 607 625 633 625 q 570 642 588 625 q 540 682 553 660 q 627 771 592 724 q 663 868 663 818 q 635 931 663 910 q 563 953 607 953 q 458 915 500 953 q 394 817 415 876 q 372 696 372 758 q 394 576 372 636 q 475 471 417 515 q 301 402 375 456 q 188 278 228 349 q 147 138 147 207 q 165 50 147 96 q 222 -27 182 4 q 328 -58 261 -58 q 478 -16 404 -58 q 613 96 551 26 q 713 243 675 165 l 750 219 q 629 47 699 124 q 475 -76 560 -31 q 290 -121 390 -121 m 857 1158 q 831 1162 843 1158 q 811 1169 819 1165 q 860 1190 843 1176 q 878 1226 878 1204 q 847 1271 878 1256 q 750 1286 817 1286 q 769 1338 750 1317 q 829 1360 789 1360 q 907 1327 876 1360 q 938 1246 938 1294 q 915 1183 938 1207 q 857 1158 893 1158 m 760 1033 q 713 1097 738 1071 q 660 1149 689 1122 q 588 1118 622 1136 q 518 1076 554 1100 q 504 1096 508 1083 q 500 1115 500 1108 q 519 1157 500 1136 q 565 1195 538 1178 q 619 1224 593 1213 q 661 1235 646 1235 q 701 1220 678 1235 q 745 1183 724 1206 q 781 1134 767 1160 q 794 1088 794 1108 q 787 1058 794 1074 q 760 1033 779 1043 z "},"":{"ha":740,"x_min":-6,"x_max":925,"o":"m 290 -121 q 135 -85 201 -121 q 31 9 68 -50 q -6 140 -6 68 q 21 261 -6 201 q 95 370 47 321 q 208 453 143 419 q 349 499 272 488 q 274 597 299 543 q 249 708 249 651 q 286 849 249 782 q 392 957 324 915 q 550 999 460 999 q 681 958 635 999 q 726 839 726 917 q 707 735 726 785 q 660 656 688 686 q 607 625 633 625 q 570 642 588 625 q 540 682 553 660 q 627 771 592 724 q 663 868 663 818 q 635 931 663 910 q 563 953 607 953 q 458 915 500 953 q 394 817 415 876 q 372 696 372 758 q 394 576 372 636 q 475 471 417 515 q 301 402 375 456 q 188 278 228 349 q 147 138 147 207 q 165 50 147 96 q 222 -27 182 4 q 328 -58 261 -58 q 478 -16 404 -58 q 613 96 551 26 q 713 243 675 165 l 750 219 q 629 47 699 124 q 475 -76 560 -31 q 290 -121 390 -121 m 671 1053 q 579 1075 614 1053 q 530 1128 544 1097 q 515 1185 515 1158 q 526 1226 515 1210 q 554 1253 536 1243 q 589 1177 561 1213 q 674 1142 617 1142 q 754 1164 724 1142 q 800 1210 785 1186 q 815 1188 811 1200 q 819 1164 819 1175 q 774 1085 819 1117 q 671 1053 729 1053 m 808 1238 q 728 1254 769 1238 q 645 1288 686 1271 q 568 1304 604 1304 q 523 1301 544 1304 q 478 1286 501 1297 q 526 1348 494 1328 q 603 1368 558 1368 q 683 1351 642 1368 q 764 1318 724 1335 q 843 1301 804 1301 q 925 1315 885 1301 q 878 1258 906 1278 q 808 1238 851 1238 z "},"":{"ha":740,"x_min":-6,"x_max":750,"o":"m 290 -121 q 135 -85 201 -121 q 31 9 68 -50 q -6 140 -6 68 q 21 261 -6 201 q 95 370 47 321 q 208 453 143 419 q 349 499 272 488 q 274 597 299 543 q 249 708 249 651 q 286 849 249 782 q 392 957 324 915 q 550 999 460 999 q 681 958 635 999 q 726 839 726 917 q 707 735 726 785 q 660 656 688 686 q 607 625 633 625 q 570 642 588 625 q 540 682 553 660 q 627 771 592 724 q 663 868 663 818 q 635 931 663 910 q 563 953 607 953 q 458 915 500 953 q 394 817 415 876 q 372 696 372 758 q 394 576 372 636 q 475 471 417 515 q 301 402 375 456 q 188 278 228 349 q 147 138 147 207 q 165 50 147 96 q 222 -27 182 4 q 328 -58 261 -58 q 478 -16 404 -58 q 613 96 551 26 q 713 243 675 165 l 750 219 q 629 47 699 124 q 475 -76 560 -31 q 290 -121 390 -121 m 578 1046 q 512 1130 547 1086 q 435 1219 476 1174 q 458 1238 446 1231 q 488 1246 471 1246 q 526 1226 506 1246 q 563 1179 546 1207 q 592 1126 581 1151 q 603 1088 603 1100 q 578 1046 603 1058 m 678 1047 q 633 1125 658 1083 q 575 1206 607 1167 q 594 1231 582 1221 q 622 1242 606 1242 q 658 1225 642 1242 q 687 1184 675 1208 q 706 1135 699 1160 q 713 1096 713 1111 q 701 1060 713 1071 q 678 1047 690 1050 z "},"":{"ha":740,"x_min":-6,"x_max":822,"o":"m 290 -121 q 135 -85 201 -121 q 31 9 68 -50 q -6 140 -6 68 q 21 261 -6 201 q 95 370 47 321 q 208 453 143 419 q 349 499 272 488 q 274 597 299 543 q 249 708 249 651 q 286 849 249 782 q 392 957 324 915 q 550 999 460 999 q 681 958 635 999 q 726 839 726 917 q 707 735 726 785 q 660 656 688 686 q 607 625 633 625 q 570 642 588 625 q 540 682 553 660 q 627 771 592 724 q 663 868 663 818 q 635 931 663 910 q 563 953 607 953 q 458 915 500 953 q 394 817 415 876 q 372 696 372 758 q 394 576 372 636 q 475 471 417 515 q 301 402 375 456 q 188 278 228 349 q 147 138 147 207 q 165 50 147 96 q 222 -27 182 4 q 328 -58 261 -58 q 478 -16 404 -58 q 613 96 551 26 q 713 243 675 165 l 750 219 q 629 47 699 124 q 475 -76 560 -31 q 290 -121 390 -121 m 736 1046 q 696 1058 714 1046 q 678 1093 678 1069 q 709 1140 678 1121 q 771 1160 740 1160 q 807 1150 792 1160 q 822 1114 822 1140 q 795 1068 822 1090 q 736 1046 768 1046 m 536 1074 q 495 1085 514 1074 q 476 1121 476 1096 q 508 1167 476 1147 q 569 1188 539 1188 q 606 1178 592 1188 q 619 1143 619 1168 q 594 1097 619 1119 q 536 1074 568 1074 z "},"":{"ha":740,"x_min":-6,"x_max":750,"o":"m 290 -121 q 135 -85 201 -121 q 31 9 68 -50 q -6 140 -6 68 q 21 261 -6 201 q 95 370 47 321 q 208 453 143 419 q 349 499 272 488 q 274 597 299 543 q 249 708 249 651 q 286 849 249 782 q 392 957 324 915 q 550 999 460 999 q 681 958 635 999 q 726 839 726 917 q 707 735 726 785 q 660 656 688 686 q 607 625 633 625 q 570 642 588 625 q 540 682 553 660 q 627 771 592 724 q 663 868 663 818 q 635 931 663 910 q 563 953 607 953 q 458 915 500 953 q 394 817 415 876 q 372 696 372 758 q 394 576 372 636 q 475 471 417 515 q 301 402 375 456 q 188 278 228 349 q 147 138 147 207 q 165 50 147 96 q 222 -27 182 4 q 328 -58 261 -58 q 478 -16 404 -58 q 613 96 551 26 q 713 243 675 165 l 750 219 q 629 47 699 124 q 475 -76 560 -31 q 290 -121 390 -121 m 619 1064 q 575 1078 593 1064 q 557 1119 557 1093 q 589 1171 557 1151 q 653 1190 621 1190 q 695 1176 682 1190 q 708 1140 708 1163 q 681 1087 708 1110 q 619 1064 653 1064 z "},"":{"ha":740,"x_min":-6,"x_max":750,"o":"m 290 -121 q 135 -85 201 -121 q 31 9 68 -50 q -6 140 -6 68 q 21 261 -6 201 q 95 370 47 321 q 208 453 143 419 q 349 499 272 488 q 274 597 299 543 q 249 708 249 651 q 286 849 249 782 q 392 957 324 915 q 550 999 460 999 q 681 958 635 999 q 726 839 726 917 q 707 735 726 785 q 660 656 688 686 q 607 625 633 625 q 570 642 588 625 q 540 682 553 660 q 627 771 592 724 q 663 868 663 818 q 635 931 663 910 q 563 953 607 953 q 458 915 500 953 q 394 817 415 876 q 372 696 372 758 q 394 576 372 636 q 475 471 417 515 q 301 402 375 456 q 188 278 228 349 q 147 138 147 207 q 165 50 147 96 q 222 -27 182 4 q 328 -58 261 -58 q 478 -16 404 -58 q 613 96 551 26 q 713 243 675 165 l 750 219 q 629 47 699 124 q 475 -76 560 -31 q 290 -121 390 -121 m 233 -349 q 189 -334 207 -349 q 171 -293 171 -319 q 203 -242 171 -261 q 267 -222 235 -222 q 309 -236 296 -222 q 322 -272 322 -250 q 294 -326 322 -303 q 233 -349 267 -349 z "},"":{"ha":740,"x_min":-6,"x_max":750,"o":"m 290 -121 q 135 -85 201 -121 q 31 9 68 -50 q -6 140 -6 68 q 21 261 -6 201 q 95 370 47 321 q 208 453 143 419 q 349 499 272 488 q 274 597 299 543 q 249 708 249 651 q 286 849 249 782 q 392 957 324 915 q 550 999 460 999 q 681 958 635 999 q 726 839 726 917 q 707 735 726 785 q 660 656 688 686 q 607 625 633 625 q 570 642 588 625 q 540 682 553 660 q 627 771 592 724 q 663 868 663 818 q 635 931 663 910 q 563 953 607 953 q 458 915 500 953 q 394 817 415 876 q 372 696 372 758 q 394 576 372 636 q 475 471 417 515 q 301 402 375 456 q 188 278 228 349 q 147 138 147 207 q 165 50 147 96 q 222 -27 182 4 q 328 -58 261 -58 q 478 -16 404 -58 q 613 96 551 26 q 713 243 675 165 l 750 219 q 629 47 699 124 q 475 -76 560 -31 q 290 -121 390 -121 m 625 1039 q 556 1113 593 1078 q 463 1192 519 1149 q 478 1233 465 1219 q 507 1246 492 1246 q 554 1227 528 1246 q 605 1181 581 1208 q 644 1127 629 1153 q 660 1089 660 1101 q 651 1063 660 1079 q 625 1039 642 1046 z "},"":{"ha":740,"x_min":-6,"x_max":750,"o":"m 290 -121 q 135 -85 201 -121 q 31 9 68 -50 q -6 140 -6 68 q 21 261 -6 201 q 95 370 47 321 q 208 453 143 419 q 349 499 272 488 q 274 597 299 543 q 249 708 249 651 q 286 849 249 782 q 392 957 324 915 q 550 999 460 999 q 681 958 635 999 q 726 839 726 917 q 707 735 726 785 q 660 656 688 686 q 607 625 633 625 q 570 642 588 625 q 540 682 553 660 q 627 771 592 724 q 663 868 663 818 q 635 931 663 910 q 563 953 607 953 q 458 915 500 953 q 394 817 415 876 q 372 696 372 758 q 394 576 372 636 q 475 471 417 515 q 301 402 375 456 q 188 278 228 349 q 147 138 147 207 q 165 50 147 96 q 222 -27 182 4 q 328 -58 261 -58 q 478 -16 404 -58 q 613 96 551 26 q 713 243 675 165 l 750 219 q 629 47 699 124 q 475 -76 560 -31 q 290 -121 390 -121 m 639 1050 q 611 1055 624 1050 q 590 1065 599 1060 q 654 1086 626 1072 q 682 1131 682 1100 q 651 1170 682 1158 q 554 1182 621 1182 q 574 1234 554 1213 q 633 1256 593 1256 q 711 1224 681 1256 q 742 1149 742 1193 q 713 1078 742 1106 q 639 1050 685 1050 z "},"":{"ha":740,"x_min":-6,"x_max":794,"o":"m 290 -121 q 135 -85 201 -121 q 31 9 68 -50 q -6 140 -6 68 q 21 261 -6 201 q 95 370 47 321 q 208 453 143 419 q 349 499 272 488 q 274 597 299 543 q 249 708 249 651 q 286 849 249 782 q 392 957 324 915 q 550 999 460 999 q 681 958 635 999 q 726 839 726 917 q 707 735 726 785 q 660 656 688 686 q 607 625 633 625 q 570 642 588 625 q 540 682 553 660 q 627 771 592 724 q 663 868 663 818 q 635 931 663 910 q 563 953 607 953 q 458 915 500 953 q 394 817 415 876 q 372 696 372 758 q 394 576 372 636 q 475 471 417 515 q 301 402 375 456 q 188 278 228 349 q 147 138 147 207 q 165 50 147 96 q 222 -27 182 4 q 328 -58 261 -58 q 478 -16 404 -58 q 613 96 551 26 q 713 243 675 165 l 750 219 q 629 47 699 124 q 475 -76 560 -31 q 290 -121 390 -121 m 756 1019 q 721 1095 749 1060 q 636 1131 693 1131 q 556 1108 586 1131 q 510 1063 525 1086 q 494 1085 499 1072 q 490 1108 490 1099 q 535 1188 490 1157 q 639 1219 581 1219 q 731 1197 697 1219 q 780 1144 765 1175 q 794 1088 794 1114 q 785 1047 794 1063 q 756 1019 775 1031 z "},"":{"ha":740,"x_min":-6,"x_max":813,"o":"m 290 -121 q 135 -85 201 -121 q 31 9 68 -50 q -6 140 -6 68 q 21 261 -6 201 q 95 370 47 321 q 208 453 143 419 q 349 499 272 488 q 274 597 299 543 q 249 708 249 651 q 286 849 249 782 q 392 957 324 915 q 550 999 460 999 q 681 958 635 999 q 726 839 726 917 q 707 735 726 785 q 660 656 688 686 q 607 625 633 625 q 570 642 588 625 q 540 682 553 660 q 627 771 592 724 q 663 868 663 818 q 635 931 663 910 q 563 953 607 953 q 458 915 500 953 q 394 817 415 876 q 372 696 372 758 q 394 576 372 636 q 475 471 417 515 q 301 402 375 456 q 188 278 228 349 q 147 138 147 207 q 165 50 147 96 q 222 -27 182 4 q 328 -58 261 -58 q 478 -16 404 -58 q 613 96 551 26 q 713 243 675 165 l 750 219 q 629 47 699 124 q 475 -76 560 -31 q 290 -121 390 -121 m 756 1053 q 677 1060 724 1053 q 580 1079 631 1068 q 483 1101 529 1090 q 406 1115 438 1111 q 475 1157 421 1157 q 584 1147 525 1157 q 703 1121 643 1136 q 813 1088 764 1106 q 756 1053 796 1053 z "},"":{"ha":740,"x_min":-6,"x_max":750,"o":"m 290 -121 q 135 -85 201 -121 q 31 9 68 -50 q -6 140 -6 68 q 21 261 -6 201 q 95 370 47 321 q 208 453 143 419 q 349 499 272 488 q 274 597 299 543 q 249 708 249 651 q 286 849 249 782 q 392 957 324 915 q 550 999 460 999 q 681 958 635 999 q 726 839 726 917 q 707 735 726 785 q 660 656 688 686 q 607 625 633 625 q 570 642 588 625 q 540 682 553 660 q 627 771 592 724 q 663 868 663 818 q 635 931 663 910 q 563 953 607 953 q 458 915 500 953 q 394 817 415 876 q 372 696 372 758 q 394 576 372 636 q 475 471 417 515 q 301 402 375 456 q 188 278 228 349 q 147 138 147 207 q 165 50 147 96 q 222 -27 182 4 q 328 -58 261 -58 q 478 -16 404 -58 q 613 96 551 26 q 713 243 675 165 l 750 219 q 629 47 699 124 q 475 -76 560 -31 q 290 -121 390 -121 m 531 -251 q 455 -222 483 -251 q 426 -149 426 -193 q 459 -73 426 -103 q 535 -39 492 -43 q 506 -73 517 -53 q 494 -118 494 -93 q 509 -158 494 -140 q 553 -176 524 -176 q 595 -169 576 -176 q 633 -147 614 -161 q 603 -224 632 -197 q 531 -251 575 -251 z "},"":{"ha":740,"x_min":-6,"x_max":853,"o":"m 290 -121 q 135 -85 201 -121 q 31 9 68 -50 q -6 140 -6 68 q 21 261 -6 201 q 95 370 47 321 q 208 453 143 419 q 349 499 272 488 q 274 597 299 543 q 249 708 249 651 q 286 849 249 782 q 392 957 324 915 q 550 999 460 999 q 681 958 635 999 q 726 839 726 917 q 707 735 726 785 q 660 656 688 686 q 607 625 633 625 q 570 642 588 625 q 540 682 553 660 q 627 771 592 724 q 663 868 663 818 q 635 931 663 910 q 563 953 607 953 q 458 915 500 953 q 394 817 415 876 q 372 696 372 758 q 394 576 372 636 q 475 471 417 515 q 301 402 375 456 q 188 278 228 349 q 147 138 147 207 q 165 50 147 96 q 222 -27 182 4 q 328 -58 261 -58 q 478 -16 404 -58 q 613 96 551 26 q 713 243 675 165 l 750 219 q 629 47 699 124 q 475 -76 560 -31 q 290 -121 390 -121 m 736 1049 q 656 1065 697 1049 q 573 1099 614 1082 q 496 1115 532 1115 q 451 1112 472 1115 q 406 1097 429 1108 q 454 1159 422 1139 q 531 1179 486 1179 q 610 1163 569 1179 q 692 1129 651 1146 q 771 1113 732 1113 q 853 1126 813 1113 q 806 1069 833 1089 q 736 1049 779 1049 z "},"":{"ha":813,"x_min":44,"x_max":928,"o":"m 331 -121 q 188 -80 253 -121 q 83 40 122 -39 q 44 228 44 118 q 78 444 44 335 q 169 653 111 554 q 303 831 228 753 q 462 953 378 908 q 631 999 546 999 q 728 976 692 999 q 780 915 764 953 q 796 835 796 878 q 778 738 796 786 q 731 657 761 689 q 665 625 701 625 q 635 635 649 625 q 607 671 621 644 q 653 719 628 685 q 699 797 679 754 q 718 872 718 839 q 701 919 718 900 q 643 938 683 938 q 515 891 581 938 q 389 767 449 844 q 281 595 329 690 q 206 401 233 500 q 178 213 178 301 q 233 16 178 86 q 364 -54 288 -54 q 469 -18 421 -54 q 553 77 517 18 q 613 206 590 136 q 640 342 635 275 q 569 352 606 349 q 492 356 532 356 q 447 355 469 356 q 400 353 425 354 q 440 424 413 401 q 511 447 467 447 q 595 434 553 447 q 681 406 638 421 q 767 381 725 390 l 753 338 q 712 210 728 261 q 688 124 696 160 q 676 60 679 89 q 674 1 674 32 q 675 -56 674 -26 q 678 -129 676 -86 q 616 -105 636 -124 q 590 -61 596 -86 q 583 -12 583 -36 q 583 1 583 -6 q 585 15 583 8 q 473 -83 536 -44 q 331 -121 410 -121 m 779 1053 q 688 1075 722 1053 q 638 1128 653 1097 q 624 1185 624 1158 q 634 1226 624 1210 q 663 1253 644 1243 q 697 1177 669 1213 q 782 1142 725 1142 q 863 1164 832 1142 q 908 1210 893 1186 q 924 1188 919 1200 q 928 1164 928 1175 q 883 1085 928 1117 q 779 1053 838 1053 z "},"":{"ha":813,"x_min":44,"x_max":881,"o":"m 331 -121 q 188 -80 253 -121 q 83 40 122 -39 q 44 228 44 118 q 78 444 44 335 q 169 653 111 554 q 303 831 228 753 q 462 953 378 908 q 631 999 546 999 q 728 976 692 999 q 780 915 764 953 q 796 835 796 878 q 778 738 796 786 q 731 657 761 689 q 665 625 701 625 q 635 635 649 625 q 607 671 621 644 q 653 719 628 685 q 699 797 679 754 q 718 872 718 839 q 701 919 718 900 q 643 938 683 938 q 515 891 581 938 q 389 767 449 844 q 281 595 329 690 q 206 401 233 500 q 178 213 178 301 q 233 16 178 86 q 364 -54 288 -54 q 469 -18 421 -54 q 553 77 517 18 q 613 206 590 136 q 640 342 635 275 q 569 352 606 349 q 492 356 532 356 q 447 355 469 356 q 400 353 425 354 q 440 424 413 401 q 511 447 467 447 q 595 434 553 447 q 681 406 638 421 q 767 381 725 390 l 753 338 q 712 210 728 261 q 688 124 696 160 q 676 60 679 89 q 674 1 674 32 q 675 -56 674 -26 q 678 -129 676 -86 q 616 -105 636 -124 q 590 -61 596 -86 q 583 -12 583 -36 q 583 1 583 -6 q 585 15 583 8 q 473 -83 536 -44 q 331 -121 410 -121 m 715 1047 q 672 1064 696 1047 q 625 1107 647 1081 q 589 1162 603 1133 q 575 1214 575 1190 q 583 1242 575 1229 q 608 1264 590 1256 q 656 1190 631 1222 q 715 1128 681 1158 q 792 1166 757 1144 q 857 1211 828 1188 q 874 1193 868 1204 q 881 1171 881 1182 q 861 1128 881 1150 q 813 1088 842 1107 q 758 1058 785 1069 q 715 1047 731 1047 z "},"":{"ha":813,"x_min":44,"x_max":903,"o":"m 331 -121 q 188 -80 253 -121 q 83 40 122 -39 q 44 228 44 118 q 78 444 44 335 q 169 653 111 554 q 303 831 228 753 q 462 953 378 908 q 631 999 546 999 q 728 976 692 999 q 780 915 764 953 q 796 835 796 878 q 778 738 796 786 q 731 657 761 689 q 665 625 701 625 q 635 635 649 625 q 607 671 621 644 q 653 719 628 685 q 699 797 679 754 q 718 872 718 839 q 701 919 718 900 q 643 938 683 938 q 515 891 581 938 q 389 767 449 844 q 281 595 329 690 q 206 401 233 500 q 178 213 178 301 q 233 16 178 86 q 364 -54 288 -54 q 469 -18 421 -54 q 553 77 517 18 q 613 206 590 136 q 640 342 635 275 q 569 352 606 349 q 492 356 532 356 q 447 355 469 356 q 400 353 425 354 q 440 424 413 401 q 511 447 467 447 q 595 434 553 447 q 681 406 638 421 q 767 381 725 390 l 753 338 q 712 210 728 261 q 688 124 696 160 q 676 60 679 89 q 674 1 674 32 q 675 -56 674 -26 q 678 -129 676 -86 q 616 -105 636 -124 q 590 -61 596 -86 q 583 -12 583 -36 q 583 1 583 -6 q 585 15 583 8 q 473 -83 536 -44 q 331 -121 410 -121 m 868 1033 q 822 1097 846 1071 q 768 1149 797 1122 q 697 1118 731 1136 q 626 1076 663 1100 q 613 1096 617 1083 q 608 1115 608 1108 q 627 1157 608 1136 q 674 1195 646 1178 q 728 1224 701 1213 q 769 1235 754 1235 q 809 1220 786 1235 q 853 1183 832 1206 q 889 1134 875 1160 q 903 1088 903 1108 q 895 1058 903 1074 q 868 1033 888 1043 z "},"":{"ha":813,"x_min":44,"x_max":796,"o":"m 331 -121 q 188 -80 253 -121 q 83 40 122 -39 q 44 228 44 118 q 78 444 44 335 q 169 653 111 554 q 303 831 228 753 q 462 953 378 908 q 631 999 546 999 q 728 976 692 999 q 780 915 764 953 q 796 835 796 878 q 778 738 796 786 q 731 657 761 689 q 665 625 701 625 q 635 635 649 625 q 607 671 621 644 q 653 719 628 685 q 699 797 679 754 q 718 872 718 839 q 701 919 718 900 q 643 938 683 938 q 515 891 581 938 q 389 767 449 844 q 281 595 329 690 q 206 401 233 500 q 178 213 178 301 q 233 16 178 86 q 364 -54 288 -54 q 469 -18 421 -54 q 553 77 517 18 q 613 206 590 136 q 640 342 635 275 q 569 352 606 349 q 492 356 532 356 q 447 355 469 356 q 400 353 425 354 q 440 424 413 401 q 511 447 467 447 q 595 434 553 447 q 681 406 638 421 q 767 381 725 390 l 753 338 q 712 210 728 261 q 688 124 696 160 q 676 60 679 89 q 674 1 674 32 q 675 -56 674 -26 q 678 -129 676 -86 q 616 -105 636 -124 q 590 -61 596 -86 q 583 -12 583 -36 q 583 1 583 -6 q 585 15 583 8 q 473 -83 536 -44 q 331 -121 410 -121 m 279 -390 q 251 -363 261 -379 q 242 -329 242 -347 q 254 -268 242 -301 q 287 -210 267 -235 q 329 -186 307 -186 q 360 -200 347 -186 q 374 -232 374 -214 q 322 -304 340 -269 q 279 -390 304 -339 z "},"":{"ha":813,"x_min":44,"x_max":817,"o":"m 331 -121 q 188 -80 253 -121 q 83 40 122 -39 q 44 228 44 118 q 78 444 44 335 q 169 653 111 554 q 303 831 228 753 q 462 953 378 908 q 631 999 546 999 q 728 976 692 999 q 780 915 764 953 q 796 835 796 878 q 778 738 796 786 q 731 657 761 689 q 665 625 701 625 q 635 635 649 625 q 607 671 621 644 q 653 719 628 685 q 699 797 679 754 q 718 872 718 839 q 701 919 718 900 q 643 938 683 938 q 515 891 581 938 q 389 767 449 844 q 281 595 329 690 q 206 401 233 500 q 178 213 178 301 q 233 16 178 86 q 364 -54 288 -54 q 469 -18 421 -54 q 553 77 517 18 q 613 206 590 136 q 640 342 635 275 q 569 352 606 349 q 492 356 532 356 q 447 355 469 356 q 400 353 425 354 q 440 424 413 401 q 511 447 467 447 q 595 434 553 447 q 681 406 638 421 q 767 381 725 390 l 753 338 q 712 210 728 261 q 688 124 696 160 q 676 60 679 89 q 674 1 674 32 q 675 -56 674 -26 q 678 -129 676 -86 q 616 -105 636 -124 q 590 -61 596 -86 q 583 -12 583 -36 q 583 1 583 -6 q 585 15 583 8 q 473 -83 536 -44 q 331 -121 410 -121 m 728 1064 q 683 1078 701 1064 q 665 1119 665 1093 q 697 1171 665 1151 q 761 1190 729 1190 q 803 1176 790 1190 q 817 1140 817 1163 q 789 1087 817 1110 q 728 1064 761 1064 z "},"":{"ha":922,"x_min":100,"x_max":963,"o":"m 100 -121 q 130 33 113 -42 q 171 189 147 108 q 226 366 194 269 q 298 582 257 463 q 390 856 339 701 q 400 883 393 863 q 407 922 407 904 q 389 942 407 942 q 321 919 354 942 q 265 861 288 897 q 243 782 243 825 q 243 763 243 772 q 244 743 243 753 q 172 764 197 746 q 147 813 147 782 q 170 885 147 851 q 229 945 193 919 q 308 985 265 971 q 389 1000 350 1000 q 478 976 454 1000 q 503 924 503 953 q 499 893 503 908 q 492 864 496 878 q 433 676 458 756 q 390 533 408 596 q 353 413 371 469 q 317 296 336 357 q 274 157 297 235 q 217 -26 250 79 q 164 -99 201 -78 q 100 -121 126 -121 m 703 -121 q 606 -87 632 -114 q 581 8 581 -60 q 594 114 581 47 q 628 264 607 181 q 660 384 643 322 q 697 509 678 446 q 736 633 717 572 q 774 748 756 693 q 810 847 793 803 q 839 924 826 892 q 855 953 844 935 q 885 987 865 972 q 939 1001 906 1001 q 901 892 921 953 q 861 760 882 831 q 820 615 840 690 q 781 464 800 540 q 747 314 763 388 q 710 113 725 207 q 696 -47 696 18 q 698 -87 696 -69 q 703 -121 700 -104 m 154 382 q 176 440 154 418 q 237 472 199 461 q 325 488 275 483 q 429 492 375 492 q 656 483 532 492 q 914 475 779 475 q 858 433 889 449 q 782 410 828 418 q 665 401 736 403 q 490 399 594 399 q 366 397 429 399 q 247 391 303 394 q 154 382 192 388 m 203 585 q 251 642 206 618 q 365 677 296 665 q 508 689 435 689 q 748 687 638 689 q 963 678 858 685 q 911 631 956 646 q 778 611 867 615 q 547 607 689 607 q 339 602 417 607 q 203 585 261 597 z "},"":{"ha":921,"x_min":100,"x_max":939,"o":"m 100 -121 q 119 -19 108 -71 q 145 94 129 32 q 185 238 161 157 q 244 425 210 318 q 199 421 224 424 q 154 417 175 418 q 188 485 154 461 q 275 519 221 508 q 285 550 281 539 q 294 578 289 561 q 311 624 300 594 q 341 710 322 654 q 390 856 360 765 q 400 883 393 863 q 407 922 407 904 q 403 938 407 933 q 389 942 400 942 q 333 917 361 942 q 281 853 304 892 q 243 774 257 815 q 229 701 229 733 q 232 676 229 690 q 243 639 235 663 q 159 665 185 639 q 133 731 133 690 q 162 825 133 778 q 235 912 190 872 q 331 976 281 951 q 425 1000 382 1000 q 486 976 469 1000 q 503 924 503 953 q 499 893 503 908 q 492 864 496 878 l 390 531 q 424 532 407 532 q 460 532 442 532 q 588 529 528 532 q 703 521 647 526 q 762 713 738 638 q 805 837 786 788 q 839 924 824 886 q 855 953 844 935 q 885 987 865 972 q 939 1001 906 1001 q 895 873 921 953 q 843 699 869 793 q 793 514 817 606 q 848 512 813 514 q 914 510 883 510 q 838 456 871 467 q 776 446 804 446 q 749 324 761 382 q 728 215 736 265 q 703 60 711 126 q 696 -47 696 -6 q 698 -87 696 -69 q 703 -121 700 -104 q 606 -87 632 -114 q 581 8 581 -60 q 585 79 581 40 q 603 171 590 118 q 633 289 614 222 q 681 444 653 356 q 540 443 596 444 q 443 440 485 442 q 360 435 401 439 q 353 411 358 429 q 333 347 347 393 q 292 213 319 301 q 217 -26 264 124 q 164 -99 201 -78 q 100 -121 126 -121 m 811 1033 q 765 1097 789 1071 q 711 1149 740 1122 q 640 1118 674 1136 q 569 1076 606 1100 q 556 1096 560 1083 q 551 1115 551 1108 q 570 1157 551 1136 q 617 1195 589 1178 q 671 1224 644 1213 q 713 1235 697 1235 q 752 1220 729 1235 q 797 1183 775 1206 q 832 1134 818 1160 q 846 1088 846 1108 q 838 1058 846 1074 q 811 1033 831 1043 z "},"":{"ha":1310,"x_min":-25,"x_max":1465,"o":"m -25 -122 q 14 -35 -19 -62 q 100 0 47 -8 q 214 8 153 8 q 262 135 239 61 q 306 294 285 210 q 348 467 328 379 q 386 638 368 556 q 421 789 404 721 q 453 901 438 857 q 327 896 382 900 q 224 885 272 892 q 124 868 175 878 q 211 968 139 938 q 432 999 283 999 q 585 993 506 999 q 731 981 664 988 q 835 968 797 974 q 746 913 788 924 q 674 903 704 903 q 592 903 628 903 q 524 901 557 903 q 502 786 514 854 q 476 640 490 718 q 447 485 461 563 q 419 340 433 407 q 394 228 406 272 q 351 96 376 156 q 294 6 326 36 q 443 -8 368 0 q 608 -19 518 -17 q 503 -84 553 -71 q 421 -97 453 -97 q 266 -98 328 -97 q 158 -101 204 -99 q 70 -108 113 -103 q -25 -122 28 -114 m 843 -119 q 767 -106 807 -119 q 701 -53 728 -93 q 674 68 674 -12 q 687 178 674 124 q 725 270 700 233 q 788 307 750 307 q 842 292 807 307 q 802 169 815 226 q 789 68 789 113 q 813 -19 789 13 q 875 -51 836 -51 q 937 -22 908 -51 q 993 85 965 8 q 1038 228 1014 144 q 1085 407 1061 313 q 1129 596 1108 501 q 1167 772 1150 690 q 1193 908 1183 853 q 1076 903 1126 907 q 983 893 1025 900 q 896 876 940 886 q 965 969 906 942 q 1146 997 1025 997 q 1267 992 1204 997 q 1383 979 1329 986 q 1465 967 1436 972 q 1403 919 1443 929 q 1339 910 1364 910 q 1293 909 1317 910 q 1258 908 1269 908 q 1272 881 1268 896 q 1276 854 1276 867 q 1267 776 1276 836 q 1240 628 1257 715 q 1199 444 1222 542 q 1147 254 1175 347 q 1085 88 1118 161 q 1008 -38 1047 7 q 928 -101 969 -83 q 843 -119 886 -119 z "},"":{"ha":699,"x_min":-25,"x_max":835,"o":"m -25 -122 q 14 -35 -19 -62 q 100 0 47 -8 q 214 8 153 8 q 262 135 239 61 q 306 294 285 210 q 348 467 328 379 q 386 638 368 556 q 421 789 404 721 q 453 901 438 857 q 327 896 382 900 q 224 885 272 892 q 124 868 175 878 q 211 968 139 938 q 432 999 283 999 q 585 993 506 999 q 731 981 664 988 q 835 968 797 974 q 746 913 788 924 q 674 903 704 903 q 592 903 628 903 q 524 901 557 903 q 502 786 514 854 q 476 640 490 718 q 447 485 461 563 q 419 340 433 407 q 394 228 406 272 q 351 96 376 156 q 294 6 326 36 q 443 -8 368 0 q 608 -19 518 -17 q 503 -84 553 -71 q 421 -97 453 -97 q 266 -98 328 -97 q 158 -101 204 -99 q 70 -108 113 -103 q -25 -122 28 -114 m 526 1038 q 501 1060 508 1044 q 493 1083 493 1076 q 507 1120 493 1094 q 543 1174 521 1146 q 590 1223 565 1203 q 636 1243 614 1243 q 663 1233 651 1243 q 678 1194 675 1222 q 592 1112 629 1147 q 526 1038 556 1076 z "},"":{"ha":699,"x_min":-25,"x_max":835,"o":"m -25 -122 q 14 -35 -19 -62 q 100 0 47 -8 q 214 8 153 8 q 262 135 239 61 q 306 294 285 210 q 348 467 328 379 q 386 638 368 556 q 421 789 404 721 q 453 901 438 857 q 327 896 382 900 q 224 885 272 892 q 124 868 175 878 q 211 968 139 938 q 432 999 283 999 q 585 993 506 999 q 731 981 664 988 q 835 968 797 974 q 746 913 788 924 q 674 903 704 903 q 592 903 628 903 q 524 901 557 903 q 502 786 514 854 q 476 640 490 718 q 447 485 461 563 q 419 340 433 407 q 394 228 406 272 q 351 96 376 156 q 294 6 326 36 q 443 -8 368 0 q 608 -19 518 -17 q 503 -84 553 -71 q 421 -97 453 -97 q 266 -98 328 -97 q 158 -101 204 -99 q 70 -108 113 -103 q -25 -122 28 -114 m 561 1051 q 469 1074 504 1051 q 420 1126 435 1096 q 406 1183 406 1157 q 416 1225 406 1208 q 444 1251 426 1242 q 479 1176 451 1211 q 564 1140 507 1140 q 644 1163 614 1140 q 690 1208 675 1185 q 706 1186 701 1199 q 710 1163 710 1174 q 665 1083 710 1115 q 561 1051 619 1051 z "},"":{"ha":699,"x_min":-25,"x_max":835,"o":"m -25 -122 q 14 -35 -19 -62 q 100 0 47 -8 q 214 8 153 8 q 262 135 239 61 q 306 294 285 210 q 348 467 328 379 q 386 638 368 556 q 421 789 404 721 q 453 901 438 857 q 327 896 382 900 q 224 885 272 892 q 124 868 175 878 q 211 968 139 938 q 432 999 283 999 q 585 993 506 999 q 731 981 664 988 q 835 968 797 974 q 746 913 788 924 q 674 903 704 903 q 592 903 628 903 q 524 901 557 903 q 502 786 514 854 q 476 640 490 718 q 447 485 461 563 q 419 340 433 407 q 394 228 406 272 q 351 96 376 156 q 294 6 326 36 q 443 -8 368 0 q 608 -19 518 -17 q 503 -84 553 -71 q 421 -97 453 -97 q 266 -98 328 -97 q 158 -101 204 -99 q 70 -108 113 -103 q -25 -122 28 -114 m 650 1032 q 603 1095 628 1069 q 550 1147 579 1121 q 478 1117 513 1135 q 408 1075 444 1099 q 394 1094 399 1082 q 390 1114 390 1107 q 409 1156 390 1135 q 456 1194 428 1176 q 510 1222 483 1211 q 551 1233 536 1233 q 591 1219 568 1233 q 635 1181 614 1204 q 671 1133 657 1158 q 685 1086 685 1107 q 677 1057 685 1072 q 650 1032 669 1042 z "},"":{"ha":699,"x_min":-25,"x_max":835,"o":"m -25 -122 q 14 -35 -19 -62 q 100 0 47 -8 q 214 8 153 8 q 262 135 239 61 q 306 294 285 210 q 348 467 328 379 q 386 638 368 556 q 421 789 404 721 q 453 901 438 857 q 327 896 382 900 q 224 885 272 892 q 124 868 175 878 q 211 968 139 938 q 432 999 283 999 q 585 993 506 999 q 731 981 664 988 q 835 968 797 974 q 746 913 788 924 q 674 903 704 903 q 592 903 628 903 q 524 901 557 903 q 502 786 514 854 q 476 640 490 718 q 447 485 461 563 q 419 340 433 407 q 394 228 406 272 q 351 96 376 156 q 294 6 326 36 q 443 -8 368 0 q 608 -19 518 -17 q 503 -84 553 -71 q 421 -97 453 -97 q 266 -98 328 -97 q 158 -101 204 -99 q 70 -108 113 -103 q -25 -122 28 -114 m 468 1044 q 402 1128 438 1085 q 325 1218 367 1172 q 349 1237 336 1229 q 378 1244 361 1244 q 416 1225 396 1244 q 453 1178 436 1206 q 482 1124 471 1150 q 493 1086 493 1099 q 468 1044 493 1057 m 568 1046 q 523 1124 549 1082 q 465 1204 497 1165 q 484 1230 472 1219 q 513 1240 496 1240 q 549 1224 532 1240 q 577 1183 565 1207 q 596 1134 589 1158 q 603 1094 603 1110 q 592 1059 603 1069 q 568 1046 581 1049 z "},"":{"ha":699,"x_min":-25,"x_max":835,"o":"m -25 -122 q 14 -35 -19 -62 q 100 0 47 -8 q 214 8 153 8 q 262 135 239 61 q 306 294 285 210 q 348 467 328 379 q 386 638 368 556 q 421 789 404 721 q 453 901 438 857 q 327 896 382 900 q 224 885 272 892 q 124 868 175 878 q 211 968 139 938 q 432 999 283 999 q 585 993 506 999 q 731 981 664 988 q 835 968 797 974 q 746 913 788 924 q 674 903 704 903 q 592 903 628 903 q 524 901 557 903 q 502 786 514 854 q 476 640 490 718 q 447 485 461 563 q 419 340 433 407 q 394 228 406 272 q 351 96 376 156 q 294 6 326 36 q 443 -8 368 0 q 608 -19 518 -17 q 503 -84 553 -71 q 421 -97 453 -97 q 266 -98 328 -97 q 158 -101 204 -99 q 70 -108 113 -103 q -25 -122 28 -114 m 626 1044 q 586 1056 604 1044 q 568 1092 568 1068 q 599 1139 568 1119 q 661 1158 631 1158 q 697 1149 682 1158 q 713 1113 713 1139 q 685 1067 713 1089 q 626 1044 658 1044 m 426 1072 q 385 1083 404 1072 q 367 1119 367 1094 q 398 1166 367 1146 q 460 1186 429 1186 q 496 1176 482 1186 q 510 1142 510 1167 q 484 1095 510 1118 q 426 1072 458 1072 z "},"":{"ha":699,"x_min":-25,"x_max":835,"o":"m -25 -122 q 14 -35 -19 -62 q 100 0 47 -8 q 214 8 153 8 q 262 135 239 61 q 306 294 285 210 q 348 467 328 379 q 386 638 368 556 q 421 789 404 721 q 453 901 438 857 q 327 896 382 900 q 224 885 272 892 q 124 868 175 878 q 211 968 139 938 q 432 999 283 999 q 585 993 506 999 q 731 981 664 988 q 835 968 797 974 q 746 913 788 924 q 674 903 704 903 q 592 903 628 903 q 524 901 557 903 q 502 786 514 854 q 476 640 490 718 q 447 485 461 563 q 419 340 433 407 q 394 228 406 272 q 351 96 376 156 q 294 6 326 36 q 443 -8 368 0 q 608 -19 518 -17 q 503 -84 553 -71 q 421 -97 453 -97 q 266 -98 328 -97 q 158 -101 204 -99 q 70 -108 113 -103 q -25 -122 28 -114 m 510 1063 q 465 1077 483 1063 q 447 1118 447 1092 q 479 1169 447 1150 q 543 1189 511 1189 q 585 1175 572 1189 q 599 1139 599 1161 q 571 1085 599 1108 q 510 1063 543 1063 z "},"":{"ha":699,"x_min":-25,"x_max":835,"o":"m -25 -122 q 14 -35 -19 -62 q 100 0 47 -8 q 214 8 153 8 q 262 135 239 61 q 306 294 285 210 q 348 467 328 379 q 386 638 368 556 q 421 789 404 721 q 453 901 438 857 q 327 896 382 900 q 224 885 272 892 q 124 868 175 878 q 211 968 139 938 q 432 999 283 999 q 585 993 506 999 q 731 981 664 988 q 835 968 797 974 q 746 913 788 924 q 674 903 704 903 q 592 903 628 903 q 524 901 557 903 q 502 786 514 854 q 476 640 490 718 q 447 485 461 563 q 419 340 433 407 q 394 228 406 272 q 351 96 376 156 q 294 6 326 36 q 443 -8 368 0 q 608 -19 518 -17 q 503 -84 553 -71 q 421 -97 453 -97 q 266 -98 328 -97 q 158 -101 204 -99 q 70 -108 113 -103 q -25 -122 28 -114 m 179 -318 q 135 -303 153 -318 q 117 -262 117 -289 q 149 -211 117 -231 q 213 -192 181 -192 q 255 -206 242 -192 q 268 -242 268 -219 q 240 -295 268 -272 q 179 -318 213 -318 z "},"":{"ha":699,"x_min":-25,"x_max":835,"o":"m -25 -122 q 14 -35 -19 -62 q 100 0 47 -8 q 214 8 153 8 q 262 135 239 61 q 306 294 285 210 q 348 467 328 379 q 386 638 368 556 q 421 789 404 721 q 453 901 438 857 q 327 896 382 900 q 224 885 272 892 q 124 868 175 878 q 211 968 139 938 q 432 999 283 999 q 585 993 506 999 q 731 981 664 988 q 835 968 797 974 q 746 913 788 924 q 674 903 704 903 q 592 903 628 903 q 524 901 557 903 q 502 786 514 854 q 476 640 490 718 q 447 485 461 563 q 419 340 433 407 q 394 228 406 272 q 351 96 376 156 q 294 6 326 36 q 443 -8 368 0 q 608 -19 518 -17 q 503 -84 553 -71 q 421 -97 453 -97 q 266 -98 328 -97 q 158 -101 204 -99 q 70 -108 113 -103 q -25 -122 28 -114 m 515 1038 q 447 1112 483 1076 q 353 1190 410 1147 q 369 1231 356 1218 q 397 1244 382 1244 q 444 1226 418 1244 q 495 1179 471 1207 q 535 1126 519 1151 q 550 1088 550 1100 q 541 1061 550 1078 q 515 1038 532 1044 z "},"":{"ha":699,"x_min":-25,"x_max":835,"o":"m -25 -122 q 14 -35 -19 -62 q 100 0 47 -8 q 214 8 153 8 q 262 135 239 61 q 306 294 285 210 q 348 467 328 379 q 386 638 368 556 q 421 789 404 721 q 453 901 438 857 q 327 896 382 900 q 224 885 272 892 q 124 868 175 878 q 211 968 139 938 q 432 999 283 999 q 585 993 506 999 q 731 981 664 988 q 835 968 797 974 q 746 913 788 924 q 674 903 704 903 q 592 903 628 903 q 524 901 557 903 q 502 786 514 854 q 476 640 490 718 q 447 485 461 563 q 419 340 433 407 q 394 228 406 272 q 351 96 376 156 q 294 6 326 36 q 443 -8 368 0 q 608 -19 518 -17 q 503 -84 553 -71 q 421 -97 453 -97 q 266 -98 328 -97 q 158 -101 204 -99 q 70 -108 113 -103 q -25 -122 28 -114 m 529 1049 q 501 1053 514 1049 q 481 1064 489 1058 q 544 1085 517 1071 q 572 1129 572 1099 q 542 1169 572 1157 q 444 1181 511 1181 q 464 1233 444 1211 q 524 1254 483 1254 q 601 1223 571 1254 q 632 1147 632 1192 q 603 1076 632 1104 q 529 1049 575 1049 z "},"":{"ha":699,"x_min":-25,"x_max":835,"o":"m -25 -122 q 14 -35 -19 -62 q 100 0 47 -8 q 214 8 153 8 q 262 135 239 61 q 306 294 285 210 q 348 467 328 379 q 386 638 368 556 q 421 789 404 721 q 453 901 438 857 q 327 896 382 900 q 224 885 272 892 q 124 868 175 878 q 211 968 139 938 q 432 999 283 999 q 585 993 506 999 q 731 981 664 988 q 835 968 797 974 q 746 913 788 924 q 674 903 704 903 q 592 903 628 903 q 524 901 557 903 q 502 786 514 854 q 476 640 490 718 q 447 485 461 563 q 419 340 433 407 q 394 228 406 272 q 351 96 376 156 q 294 6 326 36 q 443 -8 368 0 q 608 -19 518 -17 q 503 -84 553 -71 q 421 -97 453 -97 q 266 -98 328 -97 q 158 -101 204 -99 q 70 -108 113 -103 q -25 -122 28 -114 m 646 1018 q 611 1094 639 1058 q 526 1129 583 1129 q 446 1107 476 1129 q 400 1061 415 1085 q 385 1084 389 1071 q 381 1107 381 1097 q 426 1187 381 1156 q 529 1218 471 1218 q 622 1196 588 1218 q 670 1143 656 1174 q 685 1086 685 1113 q 675 1045 685 1061 q 646 1018 665 1029 z "},"":{"ha":699,"x_min":-25,"x_max":835,"o":"m -25 -122 q 14 -35 -19 -62 q 100 0 47 -8 q 214 8 153 8 q 262 135 239 61 q 306 294 285 210 q 348 467 328 379 q 386 638 368 556 q 421 789 404 721 q 453 901 438 857 q 327 896 382 900 q 224 885 272 892 q 124 868 175 878 q 211 968 139 938 q 432 999 283 999 q 585 993 506 999 q 731 981 664 988 q 835 968 797 974 q 746 913 788 924 q 674 903 704 903 q 592 903 628 903 q 524 901 557 903 q 502 786 514 854 q 476 640 490 718 q 447 485 461 563 q 419 340 433 407 q 394 228 406 272 q 351 96 376 156 q 294 6 326 36 q 443 -8 368 0 q 608 -19 518 -17 q 503 -84 553 -71 q 421 -97 453 -97 q 266 -98 328 -97 q 158 -101 204 -99 q 70 -108 113 -103 q -25 -122 28 -114 m 646 1051 q 567 1059 614 1051 q 470 1078 521 1067 q 374 1099 419 1089 q 296 1114 328 1110 q 365 1156 311 1156 q 474 1145 415 1156 q 594 1119 533 1135 q 703 1086 654 1104 q 646 1051 686 1051 z "},"":{"ha":699,"x_min":-25,"x_max":835,"o":"m -25 -122 q 14 -35 -19 -62 q 100 0 47 -8 q 214 8 153 8 q 262 135 239 61 q 306 294 285 210 q 348 467 328 379 q 386 638 368 556 q 421 789 404 721 q 453 901 438 857 q 327 896 382 900 q 224 885 272 892 q 124 868 175 878 q 211 968 139 938 q 432 999 283 999 q 585 993 506 999 q 731 981 664 988 q 835 968 797 974 q 746 913 788 924 q 674 903 704 903 q 592 903 628 903 q 524 901 557 903 q 502 786 514 854 q 476 640 490 718 q 447 485 461 563 q 419 340 433 407 q 394 228 406 272 q 351 96 376 156 q 294 6 326 36 q 443 -8 368 0 q 608 -19 518 -17 q 503 -84 553 -71 q 421 -97 453 -97 q 266 -98 328 -97 q 158 -101 204 -99 q 70 -108 113 -103 q -25 -122 28 -114 m 279 -286 q 203 -257 232 -286 q 175 -183 175 -228 q 208 -108 175 -137 q 283 -74 240 -78 q 254 -108 265 -87 q 243 -153 243 -128 q 258 -193 243 -175 q 301 -211 272 -211 q 344 -203 325 -211 q 382 -182 363 -196 q 352 -259 381 -232 q 279 -286 324 -286 z "},"":{"ha":699,"x_min":-25,"x_max":835,"o":"m -25 -122 q 14 -35 -19 -62 q 100 0 47 -8 q 214 8 153 8 q 262 135 239 61 q 306 294 285 210 q 348 467 328 379 q 386 638 368 556 q 421 789 404 721 q 453 901 438 857 q 327 896 382 900 q 224 885 272 892 q 124 868 175 878 q 211 968 139 938 q 432 999 283 999 q 585 993 506 999 q 731 981 664 988 q 835 968 797 974 q 746 913 788 924 q 674 903 704 903 q 592 903 628 903 q 524 901 557 903 q 502 786 514 854 q 476 640 490 718 q 447 485 461 563 q 419 340 433 407 q 394 228 406 272 q 351 96 376 156 q 294 6 326 36 q 443 -8 368 0 q 608 -19 518 -17 q 503 -84 553 -71 q 421 -97 453 -97 q 266 -98 328 -97 q 158 -101 204 -99 q 70 -108 113 -103 q -25 -122 28 -114 m 626 1047 q 546 1064 588 1047 q 463 1097 504 1081 q 386 1114 422 1114 q 341 1110 363 1114 q 296 1096 319 1107 q 344 1158 313 1138 q 421 1178 376 1178 q 501 1161 460 1178 q 582 1128 542 1144 q 661 1111 622 1111 q 743 1125 703 1111 q 697 1067 724 1088 q 626 1047 669 1047 z "},"":{"ha":611,"x_min":-25,"x_max":767,"o":"m 144 -119 q 69 -106 108 -119 q 2 -53 29 -93 q -25 68 -25 -12 q -12 178 -25 124 q 26 270 1 233 q 89 307 51 307 q 143 292 108 307 q 103 169 117 226 q 90 68 90 113 q 114 -19 90 13 q 176 -51 138 -51 q 238 -22 210 -51 q 294 85 267 8 q 339 228 315 144 q 386 407 363 313 q 431 596 410 501 q 468 772 451 690 q 494 908 485 853 q 377 903 428 907 q 284 893 326 900 q 197 876 242 886 q 267 969 207 942 q 447 997 326 997 q 568 992 506 997 q 684 979 631 986 q 767 967 738 972 q 705 919 744 929 q 640 910 665 910 q 594 909 618 910 q 560 908 571 908 q 574 881 569 896 q 578 854 578 867 q 568 776 578 836 q 541 628 558 715 q 500 444 524 542 q 448 254 476 347 q 386 88 419 161 q 310 -38 349 7 q 229 -101 271 -83 q 144 -119 188 -119 m 693 1033 q 647 1097 671 1071 q 593 1149 622 1122 q 522 1118 556 1136 q 451 1076 488 1100 q 438 1096 442 1083 q 433 1115 433 1108 q 452 1157 433 1136 q 499 1195 471 1178 q 553 1224 526 1213 q 594 1235 579 1235 q 634 1220 611 1235 q 678 1183 657 1206 q 714 1134 700 1160 q 728 1088 728 1108 q 720 1058 728 1074 q 693 1033 713 1043 z "},"":{"ha":885,"x_min":60,"x_max":896,"o":"m 753 -121 q 677 -87 719 -121 q 587 3 635 -53 q 493 125 539 58 q 406 259 447 192 q 336 382 365 326 l 210 -26 q 174 -74 200 -60 q 118 -92 149 -89 q 60 -96 88 -96 q 99 -3 79 -53 q 142 115 118 46 q 199 283 165 185 q 282 522 233 382 q 400 856 331 663 q 410 883 403 865 q 417 915 417 900 q 410 935 417 928 q 389 942 404 942 q 326 916 356 942 q 274 852 297 890 q 237 774 250 814 q 224 703 224 733 q 238 639 224 671 q 152 665 178 639 q 126 729 126 690 q 156 824 126 776 q 230 912 185 872 q 326 976 275 951 q 419 1000 376 1000 q 481 974 467 1000 q 496 919 496 949 q 493 890 496 904 q 486 864 490 876 l 383 531 q 419 556 399 540 q 479 601 439 571 q 629 729 557 663 q 763 866 701 796 q 868 1004 824 936 q 890 966 885 989 q 896 929 896 943 q 860 835 896 886 q 767 731 825 785 q 642 624 710 676 q 506 525 574 571 q 383 444 438 479 q 469 315 428 376 q 560 195 510 254 q 677 73 610 136 q 839 -62 744 10 q 801 -103 826 -86 q 753 -121 776 -121 m 350 -360 q 322 -333 332 -349 q 313 -299 313 -317 q 325 -237 313 -271 q 358 -180 338 -204 q 400 -156 378 -156 q 431 -169 418 -156 q 444 -201 444 -183 q 393 -274 411 -239 q 350 -360 375 -308 z "},"":{"ha":1458,"x_min":-89,"x_max":1614,"o":"m 607 -121 q 492 -100 556 -121 q 360 -50 428 -79 q 229 6 293 -21 q 154 -53 194 -32 q 68 -74 114 -74 q -16 -52 19 -74 q -70 0 -51 -31 q -89 56 -89 31 q -64 104 -89 83 q 25 125 -39 125 q 108 117 63 125 q 200 97 153 110 q 259 228 232 153 q 313 385 286 303 q 365 547 339 468 q 258 613 296 571 q 221 699 221 656 q 235 753 221 726 q 275 799 249 781 q 338 818 301 818 q 315 768 319 796 q 310 724 310 740 q 331 646 310 678 q 382 596 351 614 q 438 748 408 675 q 505 877 468 821 q 587 967 542 933 q 689 1000 632 1000 q 756 987 721 1000 q 817 942 792 974 q 843 850 843 910 q 823 749 843 803 q 760 645 803 694 q 649 563 717 596 q 486 528 582 531 q 480 528 483 528 q 474 528 476 528 q 418 365 447 447 q 356 208 389 283 q 283 75 322 133 q 403 40 338 60 q 535 8 469 21 q 651 -6 601 -6 q 713 2 685 -6 q 774 25 742 10 q 705 -87 746 -53 q 607 -121 664 -121 m 54 -22 q 113 -6 90 -22 q 157 33 135 10 q 76 59 114 49 q 11 69 39 69 q -27 60 -15 69 q -39 36 -39 50 q -11 -4 -39 14 q 54 -22 17 -22 m 489 574 q 597 613 550 578 q 678 696 644 647 q 728 795 711 744 q 746 883 746 846 q 732 933 746 919 q 700 946 718 946 q 624 894 660 946 q 555 759 588 843 q 489 574 522 675 m 992 -119 q 916 -106 956 -119 q 849 -53 876 -93 q 822 68 822 -12 q 835 178 822 124 q 874 270 849 233 q 936 307 899 307 q 990 292 956 307 q 951 169 964 226 q 938 68 938 113 q 961 -19 938 13 q 1024 -51 985 -51 q 1085 -22 1057 -51 q 1142 85 1114 8 q 1186 228 1163 144 q 1233 407 1210 313 q 1278 596 1257 501 q 1315 772 1299 690 q 1342 908 1332 853 q 1224 903 1275 907 q 1131 893 1174 900 q 1044 876 1089 886 q 1114 969 1054 942 q 1294 997 1174 997 q 1415 992 1353 997 q 1531 979 1478 986 q 1614 967 1585 972 q 1552 919 1592 929 q 1488 910 1513 910 q 1442 909 1465 910 q 1407 908 1418 908 q 1421 881 1417 896 q 1425 854 1425 867 q 1415 776 1425 836 q 1388 628 1406 715 q 1347 444 1371 542 q 1295 254 1324 347 q 1233 88 1267 161 q 1157 -38 1196 7 q 1076 -101 1118 -83 q 992 -119 1035 -119 z "},"":{"ha":847,"x_min":-89,"x_max":914,"o":"m 607 -121 q 492 -100 556 -121 q 360 -50 428 -79 q 229 6 293 -21 q 154 -53 194 -32 q 68 -74 114 -74 q -16 -52 19 -74 q -70 0 -51 -31 q -89 56 -89 31 q -64 104 -89 83 q 25 125 -39 125 q 108 117 63 125 q 200 97 153 110 q 259 228 232 153 q 313 385 286 303 q 365 547 339 468 q 258 613 296 571 q 221 699 221 656 q 235 753 221 726 q 275 799 249 781 q 338 818 301 818 q 315 768 319 796 q 310 724 310 740 q 331 646 310 678 q 382 596 351 614 q 438 748 408 675 q 505 877 468 821 q 587 967 542 933 q 689 1000 632 1000 q 756 987 721 1000 q 817 942 792 974 q 843 850 843 910 q 823 749 843 803 q 760 645 803 694 q 649 563 717 596 q 486 528 582 531 q 480 528 483 528 q 474 528 476 528 q 418 365 447 447 q 356 208 389 283 q 283 75 322 133 q 403 40 338 60 q 535 8 469 21 q 651 -6 601 -6 q 713 2 685 -6 q 774 25 742 10 q 705 -87 746 -53 q 607 -121 664 -121 m 54 -22 q 113 -6 90 -22 q 157 33 135 10 q 76 59 114 49 q 11 69 39 69 q -27 60 -15 69 q -39 36 -39 50 q -11 -4 -39 14 q 54 -22 17 -22 m 489 574 q 597 613 550 578 q 678 696 644 647 q 728 795 711 744 q 746 883 746 846 q 732 933 746 919 q 700 946 718 946 q 624 894 660 946 q 555 759 588 843 q 489 574 522 675 m 763 1039 q 737 1062 744 1046 q 729 1085 729 1078 q 743 1122 729 1096 q 779 1176 757 1147 q 826 1224 801 1204 q 872 1244 850 1244 q 899 1234 888 1244 q 914 1196 911 1224 q 828 1113 865 1149 q 763 1039 792 1078 z "},"":{"ha":847,"x_min":-89,"x_max":1043,"o":"m 607 -121 q 492 -100 556 -121 q 360 -50 428 -79 q 229 6 293 -21 q 154 -53 194 -32 q 68 -74 114 -74 q -16 -52 19 -74 q -70 0 -51 -31 q -89 56 -89 31 q -64 104 -89 83 q 25 125 -39 125 q 108 117 63 125 q 200 97 153 110 q 259 228 232 153 q 313 385 286 303 q 365 547 339 468 q 258 613 296 571 q 221 699 221 656 q 235 753 221 726 q 275 799 249 781 q 338 818 301 818 q 315 768 319 796 q 310 724 310 740 q 331 646 310 678 q 382 596 351 614 q 438 748 408 675 q 505 877 468 821 q 587 967 542 933 q 689 1000 632 1000 q 756 987 721 1000 q 817 942 792 974 q 843 850 843 910 q 823 749 843 803 q 760 645 803 694 q 649 563 717 596 q 486 528 582 531 q 480 528 483 528 q 474 528 476 528 q 418 365 447 447 q 356 208 389 283 q 283 75 322 133 q 403 40 338 60 q 535 8 469 21 q 651 -6 601 -6 q 713 2 685 -6 q 774 25 742 10 q 705 -87 746 -53 q 607 -121 664 -121 m 54 -22 q 113 -6 90 -22 q 157 33 135 10 q 76 59 114 49 q 11 69 39 69 q -27 60 -15 69 q -39 36 -39 50 q -11 -4 -39 14 q 54 -22 17 -22 m 489 574 q 597 613 550 578 q 678 696 644 647 q 728 795 711 744 q 746 883 746 846 q 732 933 746 919 q 700 946 718 946 q 624 894 660 946 q 555 759 588 843 q 489 574 522 675 m 928 771 q 900 783 914 771 q 886 817 886 794 q 907 877 886 844 q 958 933 928 910 q 1014 957 988 957 q 1043 946 1029 957 q 994 865 1018 910 q 954 779 971 819 q 928 771 944 771 z "},"":{"ha":847,"x_min":-89,"x_max":843,"o":"m 607 -121 q 492 -100 556 -121 q 360 -50 428 -79 q 229 6 293 -21 q 154 -53 194 -32 q 68 -74 114 -74 q -16 -52 19 -74 q -70 0 -51 -31 q -89 56 -89 31 q -64 104 -89 83 q 25 125 -39 125 q 108 117 63 125 q 200 97 153 110 q 259 228 232 153 q 313 385 286 303 q 365 547 339 468 q 258 613 296 571 q 221 699 221 656 q 235 753 221 726 q 275 799 249 781 q 338 818 301 818 q 315 768 319 796 q 310 724 310 740 q 331 646 310 678 q 382 596 351 614 q 438 748 408 675 q 505 877 468 821 q 587 967 542 933 q 689 1000 632 1000 q 756 987 721 1000 q 817 942 792 974 q 843 850 843 910 q 823 749 843 803 q 760 645 803 694 q 649 563 717 596 q 486 528 582 531 q 480 528 483 528 q 474 528 476 528 q 418 365 447 447 q 356 208 389 283 q 283 75 322 133 q 403 40 338 60 q 535 8 469 21 q 651 -6 601 -6 q 713 2 685 -6 q 774 25 742 10 q 705 -87 746 -53 q 607 -121 664 -121 m 54 -22 q 113 -6 90 -22 q 157 33 135 10 q 76 59 114 49 q 11 69 39 69 q -27 60 -15 69 q -39 36 -39 50 q -11 -4 -39 14 q 54 -22 17 -22 m 489 574 q 597 613 550 578 q 678 696 644 647 q 728 795 711 744 q 746 883 746 846 q 732 933 746 919 q 700 946 718 946 q 624 894 660 946 q 555 759 588 843 q 489 574 522 675 m 233 -342 q 206 -315 215 -331 q 196 -281 196 -299 q 208 -219 196 -253 q 241 -162 221 -186 q 283 -137 261 -137 q 315 -151 301 -137 q 328 -183 328 -165 q 276 -256 294 -221 q 233 -342 258 -290 z "},"":{"ha":847,"x_min":-89,"x_max":843,"o":"m 607 -121 q 492 -100 556 -121 q 360 -50 428 -79 q 229 6 293 -21 q 154 -53 194 -32 q 68 -74 114 -74 q -16 -52 19 -74 q -70 0 -51 -31 q -89 56 -89 31 q -64 104 -89 83 q 25 125 -39 125 q 108 117 63 125 q 200 97 153 110 q 259 228 232 153 q 313 385 286 303 q 365 547 339 468 q 258 613 296 571 q 221 699 221 656 q 235 753 221 726 q 275 799 249 781 q 338 818 301 818 q 315 768 319 796 q 310 724 310 740 q 331 646 310 678 q 382 596 351 614 q 438 748 408 675 q 505 877 468 821 q 587 967 542 933 q 689 1000 632 1000 q 756 987 721 1000 q 817 942 792 974 q 843 850 843 910 q 823 749 843 803 q 760 645 803 694 q 649 563 717 596 q 486 528 582 531 q 480 528 483 528 q 474 528 476 528 q 418 365 447 447 q 356 208 389 283 q 283 75 322 133 q 403 40 338 60 q 535 8 469 21 q 651 -6 601 -6 q 713 2 685 -6 q 774 25 742 10 q 705 -87 746 -53 q 607 -121 664 -121 m 54 -22 q 113 -6 90 -22 q 157 33 135 10 q 76 59 114 49 q 11 69 39 69 q -27 60 -15 69 q -39 36 -39 50 q -11 -4 -39 14 q 54 -22 17 -22 m 489 574 q 597 613 550 578 q 678 696 644 647 q 728 795 711 744 q 746 883 746 846 q 732 933 746 919 q 700 946 718 946 q 624 894 660 946 q 555 759 588 843 q 489 574 522 675 m 689 319 q 644 336 656 319 q 632 371 632 353 q 647 402 632 386 q 682 428 661 418 q 721 439 703 439 q 751 431 736 439 q 767 399 767 424 q 757 369 767 388 q 730 335 747 350 q 689 319 713 319 z "},"":{"ha":1163,"x_min":-89,"x_max":1219,"o":"m 607 -121 q 492 -100 556 -121 q 360 -50 428 -79 q 229 6 293 -21 q 154 -53 194 -32 q 68 -74 114 -74 q -16 -52 19 -74 q -70 0 -51 -31 q -89 56 -89 31 q -64 104 -89 83 q 25 125 -39 125 q 108 117 63 125 q 200 97 153 110 q 259 228 232 153 q 313 385 286 303 q 365 547 339 468 q 258 613 296 571 q 221 699 221 656 q 235 753 221 726 q 275 799 249 781 q 338 818 301 818 q 315 768 319 796 q 310 724 310 740 q 331 646 310 678 q 382 596 351 614 q 438 748 408 675 q 505 877 468 821 q 587 967 542 933 q 689 1000 632 1000 q 756 987 721 1000 q 817 942 792 974 q 843 850 843 910 q 823 749 843 803 q 760 645 803 694 q 649 563 717 596 q 486 528 582 531 q 480 528 483 528 q 474 528 476 528 q 418 365 447 447 q 356 208 389 283 q 283 75 322 133 q 403 40 338 60 q 535 8 469 21 q 651 -6 601 -6 q 713 2 685 -6 q 774 25 742 10 q 705 -87 746 -53 q 607 -121 664 -121 m 54 -22 q 113 -6 90 -22 q 157 33 135 10 q 76 59 114 49 q 11 69 39 69 q -27 60 -15 69 q -39 36 -39 50 q -11 -4 -39 14 q 54 -22 17 -22 m 489 574 q 597 613 550 578 q 678 696 644 647 q 728 795 711 744 q 746 883 746 846 q 732 933 746 919 q 700 946 718 946 q 624 894 660 946 q 555 759 588 843 q 489 574 522 675 m 661 -389 q 597 -366 621 -389 q 574 -307 574 -343 q 624 -196 574 -253 q 751 -92 674 -139 q 799 -67 775 -79 q 847 -46 822 -56 q 891 82 871 11 q 926 236 911 153 q 902 197 915 217 q 878 157 889 178 l 854 194 q 899 292 879 242 q 936 387 918 343 q 974 458 954 431 q 1019 486 993 486 q 1051 472 1039 486 q 1063 435 1063 457 q 1056 378 1063 419 q 1036 278 1049 338 q 1005 149 1024 218 q 963 8 986 79 q 1041 57 1003 31 q 1117 124 1079 83 q 1194 231 1156 165 l 1219 214 q 1128 76 1176 125 q 1031 1 1079 28 q 940 -54 983 -26 q 867 -215 910 -137 q 773 -340 825 -292 q 661 -389 721 -389 m 646 -322 q 718 -271 671 -322 q 815 -118 765 -219 q 676 -213 722 -165 q 629 -299 629 -261 q 634 -317 629 -312 q 646 -322 639 -322 m 1040 589 q 992 602 1014 589 q 971 642 971 615 q 989 684 971 665 q 1033 714 1007 703 q 1085 725 1060 725 q 1125 713 1108 725 q 1142 676 1142 701 q 1111 615 1142 642 q 1040 589 1081 589 z "},"":{"ha":849,"x_min":-89,"x_max":774,"o":"m 607 -121 q 492 -100 556 -121 q 360 -50 428 -79 q 229 6 293 -21 q 154 -53 194 -32 q 68 -74 114 -74 q -16 -52 19 -74 q -70 0 -51 -31 q -89 56 -89 31 q -64 104 -89 83 q 25 125 -39 125 q 108 117 63 125 q 200 97 153 110 q 255 215 228 144 q 309 370 282 286 q 363 540 336 454 q 452 780 408 689 q 538 919 496 871 q 621 983 579 967 q 704 1000 663 1000 q 572 797 624 922 q 469 518 519 671 q 426 390 449 454 q 380 267 403 326 q 333 160 357 208 q 283 75 308 111 q 403 40 338 60 q 535 8 469 21 q 651 -6 601 -6 q 713 2 685 -6 q 774 25 742 10 q 705 -87 746 -53 q 607 -121 664 -121 m 54 -22 q 113 -6 90 -22 q 157 33 135 10 q 76 59 114 49 q 11 69 39 69 q -27 60 -15 69 q -39 36 -39 50 q -11 -4 -39 14 q 54 -22 17 -22 m 182 456 q 252 531 192 503 q 413 571 313 558 q 642 583 514 583 q 701 582 669 583 q 747 579 732 581 q 729 536 747 550 q 666 516 711 522 q 536 503 621 510 q 406 492 460 497 q 302 478 353 486 q 182 456 251 469 z "},"":{"ha":1547,"x_min":78,"x_max":1703,"o":"m 78 -121 q 125 31 99 -51 q 186 226 151 114 q 267 492 221 338 q 372 856 313 646 q 378 876 374 860 q 382 910 382 893 q 378 925 382 921 q 364 929 375 929 q 308 906 335 929 q 259 847 281 882 q 226 773 238 811 q 214 704 214 735 q 228 639 214 671 q 142 665 167 639 q 117 729 117 690 q 146 824 117 776 q 220 912 175 872 q 315 976 265 951 q 404 1000 364 1000 q 484 965 453 1000 q 535 868 515 929 q 569 729 556 807 q 596 565 583 651 q 622 388 613 454 q 638 283 632 322 q 649 218 644 244 q 660 158 654 192 q 694 299 676 225 q 729 450 711 374 q 765 599 747 526 q 800 736 782 672 q 835 849 818 800 q 869 928 853 899 q 909 976 882 950 q 982 1001 936 1001 q 928 847 958 939 q 868 647 899 754 q 809 427 838 539 q 758 210 781 315 q 723 19 736 106 q 710 -121 710 -67 q 626 -97 658 -121 q 576 -1 593 -72 q 560 78 571 22 q 535 209 549 133 q 506 368 521 285 q 476 531 490 451 q 451 674 463 611 q 433 771 440 738 q 326 385 371 543 q 249 128 282 228 q 189 -25 215 29 q 136 -100 163 -79 q 78 -121 110 -121 m 1081 -119 q 1005 -106 1044 -119 q 938 -53 965 -93 q 911 68 911 -12 q 924 178 911 124 q 963 270 938 233 q 1025 307 988 307 q 1079 292 1044 307 q 1040 169 1053 226 q 1026 68 1026 113 q 1050 -19 1026 13 q 1113 -51 1074 -51 q 1174 -22 1146 -51 q 1231 85 1203 8 q 1275 228 1251 144 q 1322 407 1299 313 q 1367 596 1346 501 q 1404 772 1388 690 q 1431 908 1421 853 q 1313 903 1364 907 q 1220 893 1263 900 q 1133 876 1178 886 q 1203 969 1143 942 q 1383 997 1263 997 q 1504 992 1442 997 q 1620 979 1567 986 q 1703 967 1674 972 q 1641 919 1681 929 q 1576 910 1601 910 q 1531 909 1554 910 q 1496 908 1507 908 q 1510 881 1506 896 q 1514 854 1514 867 q 1504 776 1514 836 q 1477 628 1494 715 q 1436 444 1460 542 q 1384 254 1413 347 q 1322 88 1356 161 q 1246 -38 1285 7 q 1165 -101 1207 -83 q 1081 -119 1124 -119 z "},"":{"ha":936,"x_min":78,"x_max":982,"o":"m 78 -121 q 125 31 99 -51 q 186 226 151 114 q 267 492 221 338 q 372 856 313 646 q 378 876 374 860 q 382 910 382 893 q 378 925 382 921 q 364 929 375 929 q 308 906 335 929 q 259 847 281 882 q 226 773 238 811 q 214 704 214 735 q 228 639 214 671 q 142 665 167 639 q 117 729 117 690 q 146 824 117 776 q 220 912 175 872 q 315 976 265 951 q 404 1000 364 1000 q 484 965 453 1000 q 535 868 515 929 q 569 729 556 807 q 596 565 583 651 q 622 388 613 454 q 638 283 632 322 q 649 218 644 244 q 660 158 654 192 q 694 299 676 225 q 729 450 711 374 q 765 599 747 526 q 800 736 782 672 q 835 849 818 800 q 869 928 853 899 q 909 976 882 950 q 982 1001 936 1001 q 928 847 958 939 q 868 647 899 754 q 809 427 838 539 q 758 210 781 315 q 723 19 736 106 q 710 -121 710 -67 q 626 -97 658 -121 q 576 -1 593 -72 q 560 78 571 22 q 535 209 549 133 q 506 368 521 285 q 476 531 490 451 q 451 674 463 611 q 433 771 440 738 q 326 385 371 543 q 249 128 282 228 q 189 -25 215 29 q 136 -100 163 -79 q 78 -121 110 -121 m 717 1039 q 691 1062 699 1046 q 683 1085 683 1078 q 697 1122 683 1096 q 733 1176 711 1147 q 780 1224 756 1204 q 826 1244 804 1244 q 853 1234 842 1244 q 868 1196 865 1224 q 783 1113 819 1149 q 717 1039 746 1078 z "},"":{"ha":936,"x_min":78,"x_max":982,"o":"m 78 -121 q 125 31 99 -51 q 186 226 151 114 q 267 492 221 338 q 372 856 313 646 q 378 876 374 860 q 382 910 382 893 q 378 925 382 921 q 364 929 375 929 q 308 906 335 929 q 259 847 281 882 q 226 773 238 811 q 214 704 214 735 q 228 639 214 671 q 142 665 167 639 q 117 729 117 690 q 146 824 117 776 q 220 912 175 872 q 315 976 265 951 q 404 1000 364 1000 q 484 965 453 1000 q 535 868 515 929 q 569 729 556 807 q 596 565 583 651 q 622 388 613 454 q 638 283 632 322 q 649 218 644 244 q 660 158 654 192 q 694 299 676 225 q 729 450 711 374 q 765 599 747 526 q 800 736 782 672 q 835 849 818 800 q 869 928 853 899 q 909 976 882 950 q 982 1001 936 1001 q 928 847 958 939 q 868 647 899 754 q 809 427 838 539 q 758 210 781 315 q 723 19 736 106 q 710 -121 710 -67 q 626 -97 658 -121 q 576 -1 593 -72 q 560 78 571 22 q 535 209 549 133 q 506 368 521 285 q 476 531 490 451 q 451 674 463 611 q 433 771 440 738 q 326 385 371 543 q 249 128 282 228 q 189 -25 215 29 q 136 -100 163 -79 q 78 -121 110 -121 m 688 1047 q 644 1064 668 1047 q 597 1107 619 1081 q 561 1162 575 1133 q 547 1214 547 1190 q 555 1242 547 1229 q 581 1264 563 1256 q 628 1190 603 1222 q 688 1128 653 1158 q 765 1166 729 1144 q 829 1211 800 1188 q 847 1193 840 1204 q 853 1171 853 1182 q 833 1128 853 1150 q 785 1088 814 1107 q 730 1058 757 1069 q 688 1047 703 1047 z "},"":{"ha":936,"x_min":78,"x_max":982,"o":"m 78 -121 q 125 31 99 -51 q 186 226 151 114 q 267 492 221 338 q 372 856 313 646 q 378 876 374 860 q 382 910 382 893 q 378 925 382 921 q 364 929 375 929 q 308 906 335 929 q 259 847 281 882 q 226 773 238 811 q 214 704 214 735 q 228 639 214 671 q 142 665 167 639 q 117 729 117 690 q 146 824 117 776 q 220 912 175 872 q 315 976 265 951 q 404 1000 364 1000 q 484 965 453 1000 q 535 868 515 929 q 569 729 556 807 q 596 565 583 651 q 622 388 613 454 q 638 283 632 322 q 649 218 644 244 q 660 158 654 192 q 694 299 676 225 q 729 450 711 374 q 765 599 747 526 q 800 736 782 672 q 835 849 818 800 q 869 928 853 899 q 909 976 882 950 q 982 1001 936 1001 q 928 847 958 939 q 868 647 899 754 q 809 427 838 539 q 758 210 781 315 q 723 19 736 106 q 710 -121 710 -67 q 626 -97 658 -121 q 576 -1 593 -72 q 560 78 571 22 q 535 209 549 133 q 506 368 521 285 q 476 531 490 451 q 451 674 463 611 q 433 771 440 738 q 326 385 371 543 q 249 128 282 228 q 189 -25 215 29 q 136 -100 163 -79 q 78 -121 110 -121 m 326 -326 q 299 -299 308 -315 q 289 -265 289 -283 q 301 -204 289 -237 q 334 -147 314 -171 q 376 -122 354 -122 q 408 -136 394 -122 q 421 -168 421 -150 q 369 -240 388 -206 q 326 -326 351 -275 z "},"":{"ha":969,"x_min":125,"x_max":953,"o":"m 347 -339 q 284 -329 308 -339 q 260 -307 260 -319 q 290 -292 260 -292 q 469 -235 393 -292 q 603 -72 544 -179 q 707 183 661 35 q 757 359 735 278 q 795 510 779 440 q 820 642 811 581 q 829 757 829 703 q 803 865 829 822 q 714 908 776 908 q 611 873 657 908 q 530 781 565 838 q 469 663 494 725 q 429 546 444 600 q 328 181 372 350 q 251 -137 283 13 q 169 -117 204 -137 q 135 -56 135 -96 q 149 31 135 -29 q 188 173 164 92 q 241 344 213 254 q 297 524 269 435 q 346 686 325 613 q 371 781 361 738 q 385 859 381 825 q 389 914 389 893 q 368 942 389 942 q 316 917 342 942 q 269 853 290 892 q 234 774 247 815 q 221 701 221 733 q 224 676 221 690 q 235 639 226 663 q 151 665 176 639 q 125 731 125 690 q 153 825 125 778 q 227 912 182 872 q 323 976 272 951 q 417 1000 374 1000 q 478 976 461 1000 q 494 924 494 953 q 485 854 494 897 q 460 771 475 811 q 582 924 510 864 q 756 983 654 983 q 901 928 850 983 q 953 772 953 872 q 942 636 953 710 q 914 484 932 563 q 874 328 896 406 q 828 176 851 250 q 751 -24 794 69 q 651 -187 708 -117 q 519 -299 594 -258 q 347 -339 444 -339 z "},"":{"ha":1236,"x_min":78,"x_max":1293,"o":"m 78 -121 q 125 31 99 -51 q 186 226 151 114 q 267 492 221 338 q 372 856 313 646 q 378 876 374 860 q 382 910 382 893 q 378 925 382 921 q 364 929 375 929 q 308 906 335 929 q 259 847 281 882 q 226 773 238 811 q 214 704 214 735 q 228 639 214 671 q 142 665 167 639 q 117 729 117 690 q 146 824 117 776 q 220 912 175 872 q 315 976 265 951 q 404 1000 364 1000 q 484 965 453 1000 q 535 868 515 929 q 569 729 556 807 q 596 565 583 651 q 622 388 613 454 q 638 283 632 322 q 649 218 644 244 q 660 158 654 192 q 694 299 676 225 q 729 450 711 374 q 765 599 747 526 q 800 736 782 672 q 835 849 818 800 q 869 928 853 899 q 909 976 882 950 q 982 1001 936 1001 q 928 847 958 939 q 868 647 899 754 q 809 427 838 539 q 758 210 781 315 q 723 19 736 106 q 710 -121 710 -67 q 626 -97 658 -121 q 576 -1 593 -72 q 560 78 571 22 q 535 209 549 133 q 506 368 521 285 q 476 531 490 451 q 451 674 463 611 q 433 771 440 738 q 326 385 371 543 q 249 128 282 228 q 189 -25 215 29 q 136 -100 163 -79 q 78 -121 110 -121 m 735 -389 q 671 -366 694 -389 q 647 -307 647 -343 q 697 -196 647 -253 q 825 -92 747 -139 q 872 -67 849 -79 q 921 -46 896 -56 q 965 82 944 11 q 1000 236 985 153 q 976 197 989 217 q 951 157 963 178 l 928 194 q 972 292 953 242 q 1010 387 992 343 q 1047 458 1028 431 q 1093 486 1067 486 q 1124 472 1113 486 q 1136 435 1136 457 q 1129 378 1136 419 q 1110 278 1122 338 q 1078 149 1097 218 q 1036 8 1060 79 q 1115 57 1076 31 q 1191 124 1153 83 q 1268 231 1229 165 l 1293 214 q 1201 76 1250 125 q 1105 1 1153 28 q 1014 -54 1057 -26 q 941 -215 983 -137 q 847 -340 899 -292 q 735 -389 794 -389 m 719 -322 q 792 -271 744 -322 q 889 -118 839 -219 q 749 -213 796 -165 q 703 -299 703 -261 q 708 -317 703 -312 q 719 -322 713 -322 m 1114 589 q 1066 602 1088 589 q 1044 642 1044 615 q 1063 684 1044 665 q 1107 714 1081 703 q 1158 725 1133 725 q 1199 713 1182 725 q 1215 676 1215 701 q 1185 615 1215 642 q 1114 589 1154 589 z "},"":{"ha":936,"x_min":78,"x_max":982,"o":"m 78 -121 q 125 31 99 -51 q 186 226 151 114 q 267 492 221 338 q 372 856 313 646 q 378 876 374 860 q 382 910 382 893 q 378 925 382 921 q 364 929 375 929 q 308 906 335 929 q 259 847 281 882 q 226 773 238 811 q 214 704 214 735 q 228 639 214 671 q 142 665 167 639 q 117 729 117 690 q 146 824 117 776 q 220 912 175 872 q 315 976 265 951 q 404 1000 364 1000 q 484 965 453 1000 q 535 868 515 929 q 569 729 556 807 q 596 565 583 651 q 622 388 613 454 q 638 283 632 322 q 649 218 644 244 q 660 158 654 192 q 694 299 676 225 q 729 450 711 374 q 765 599 747 526 q 800 736 782 672 q 835 849 818 800 q 869 928 853 899 q 909 976 882 950 q 982 1001 936 1001 q 928 847 958 939 q 868 647 899 754 q 809 427 838 539 q 758 210 781 315 q 723 19 736 106 q 710 -121 710 -67 q 626 -97 658 -121 q 576 -1 593 -72 q 560 78 571 22 q 535 209 549 133 q 506 368 521 285 q 476 531 490 451 q 451 674 463 611 q 433 771 440 738 q 326 385 371 543 q 249 128 282 228 q 189 -25 215 29 q 136 -100 163 -79 q 78 -121 110 -121 m 817 1049 q 736 1065 778 1049 q 653 1099 694 1082 q 576 1115 613 1115 q 531 1112 553 1115 q 486 1097 510 1108 q 535 1159 503 1139 q 611 1179 567 1179 q 691 1163 650 1179 q 772 1129 732 1146 q 851 1113 813 1113 q 933 1126 893 1113 q 887 1069 914 1089 q 817 1049 860 1049 z "},"":{"ha":910,"x_min":44,"x_max":917,"o":"m 336 -121 q 189 -78 256 -121 q 83 42 122 -36 q 44 228 44 119 q 78 444 44 335 q 169 652 111 553 q 306 830 228 751 q 472 953 383 908 q 653 999 560 999 q 694 993 667 999 q 747 960 721 988 q 728 962 739 961 q 707 963 718 963 q 561 917 635 963 q 421 796 488 872 q 302 623 354 719 q 219 422 250 526 q 189 219 189 318 q 208 85 189 147 q 271 -16 228 22 q 385 -54 314 -54 q 528 -8 461 -54 q 649 115 594 38 q 742 287 703 192 q 801 483 781 382 q 822 675 822 583 q 817 762 822 715 q 798 842 811 808 q 760 875 785 875 q 708 845 736 875 q 654 769 681 815 q 608 673 628 724 q 579 582 588 622 q 512 613 532 592 q 492 663 492 633 q 518 746 492 700 q 587 834 544 792 q 676 904 629 876 q 763 932 722 932 q 830 902 804 932 q 869 825 856 872 q 889 724 883 778 q 894 625 894 671 q 860 366 894 483 q 766 158 825 249 q 634 6 707 68 q 484 -89 561 -57 q 336 -121 407 -121 m 765 1039 q 740 1062 747 1046 q 732 1085 732 1078 q 746 1122 732 1096 q 782 1176 760 1147 q 828 1224 804 1204 q 875 1244 853 1244 q 902 1234 890 1244 q 917 1196 914 1224 q 831 1113 868 1149 q 765 1039 794 1078 z "},"":{"ha":910,"x_min":44,"x_max":949,"o":"m 336 -121 q 189 -78 256 -121 q 83 42 122 -36 q 44 228 44 119 q 78 444 44 335 q 169 652 111 553 q 306 830 228 751 q 472 953 383 908 q 653 999 560 999 q 694 993 667 999 q 747 960 721 988 q 728 962 739 961 q 707 963 718 963 q 561 917 635 963 q 421 796 488 872 q 302 623 354 719 q 219 422 250 526 q 189 219 189 318 q 208 85 189 147 q 271 -16 228 22 q 385 -54 314 -54 q 528 -8 461 -54 q 649 115 594 38 q 742 287 703 192 q 801 483 781 382 q 822 675 822 583 q 817 762 822 715 q 798 842 811 808 q 760 875 785 875 q 708 845 736 875 q 654 769 681 815 q 608 673 628 724 q 579 582 588 622 q 512 613 532 592 q 492 663 492 633 q 518 746 492 700 q 587 834 544 792 q 676 904 629 876 q 763 932 722 932 q 830 902 804 932 q 869 825 856 872 q 889 724 883 778 q 894 625 894 671 q 860 366 894 483 q 766 158 825 249 q 634 6 707 68 q 484 -89 561 -57 q 336 -121 407 -121 m 800 1053 q 708 1075 743 1053 q 659 1128 674 1097 q 644 1185 644 1158 q 655 1226 644 1210 q 683 1253 665 1243 q 718 1177 690 1213 q 803 1142 746 1142 q 883 1164 853 1142 q 929 1210 914 1186 q 944 1188 940 1200 q 949 1164 949 1175 q 903 1085 949 1117 q 800 1053 858 1053 z "},"":{"ha":910,"x_min":44,"x_max":924,"o":"m 336 -121 q 189 -78 256 -121 q 83 42 122 -36 q 44 228 44 119 q 78 444 44 335 q 169 652 111 553 q 306 830 228 751 q 472 953 383 908 q 653 999 560 999 q 694 993 667 999 q 747 960 721 988 q 728 962 739 961 q 707 963 718 963 q 561 917 635 963 q 421 796 488 872 q 302 623 354 719 q 219 422 250 526 q 189 219 189 318 q 208 85 189 147 q 271 -16 228 22 q 385 -54 314 -54 q 528 -8 461 -54 q 649 115 594 38 q 742 287 703 192 q 801 483 781 382 q 822 675 822 583 q 817 762 822 715 q 798 842 811 808 q 760 875 785 875 q 708 845 736 875 q 654 769 681 815 q 608 673 628 724 q 579 582 588 622 q 512 613 532 592 q 492 663 492 633 q 518 746 492 700 q 587 834 544 792 q 676 904 629 876 q 763 932 722 932 q 830 902 804 932 q 869 825 856 872 q 889 724 883 778 q 894 625 894 671 q 860 366 894 483 q 766 158 825 249 q 634 6 707 68 q 484 -89 561 -57 q 336 -121 407 -121 m 889 1033 q 842 1097 867 1071 q 789 1149 818 1122 q 717 1118 751 1136 q 647 1076 683 1100 q 633 1096 638 1083 q 629 1115 629 1108 q 648 1157 629 1136 q 694 1195 667 1178 q 749 1224 722 1213 q 790 1235 775 1235 q 830 1220 807 1235 q 874 1183 853 1206 q 910 1134 896 1160 q 924 1088 924 1108 q 916 1058 924 1074 q 889 1033 908 1043 z "},"":{"ha":910,"x_min":44,"x_max":1093,"o":"m 336 -121 q 189 -78 256 -121 q 83 42 122 -36 q 44 228 44 119 q 78 444 44 335 q 169 652 111 553 q 306 830 228 751 q 472 953 383 908 q 653 999 560 999 q 694 993 667 999 q 747 960 721 988 q 728 962 739 961 q 707 963 718 963 q 561 917 635 963 q 421 796 488 872 q 302 623 354 719 q 219 422 250 526 q 189 219 189 318 q 208 85 189 147 q 271 -16 228 22 q 385 -54 314 -54 q 528 -8 461 -54 q 649 115 594 38 q 742 287 703 192 q 801 483 781 382 q 822 675 822 583 q 817 762 822 715 q 798 842 811 808 q 760 875 785 875 q 708 845 736 875 q 654 769 681 815 q 608 673 628 724 q 579 582 588 622 q 512 613 532 592 q 492 663 492 633 q 518 746 492 700 q 587 834 544 792 q 676 904 629 876 q 763 932 722 932 q 830 902 804 932 q 869 825 856 872 q 889 724 883 778 q 894 625 894 671 q 860 366 894 483 q 766 158 825 249 q 634 6 707 68 q 484 -89 561 -57 q 336 -121 407 -121 m 957 1169 q 931 1189 939 1176 q 924 1215 924 1201 q 936 1251 924 1228 q 968 1297 949 1274 q 1010 1338 988 1321 q 1051 1354 1032 1354 q 1078 1344 1067 1354 q 1093 1306 1090 1333 q 1052 1269 1078 1293 q 1001 1217 1026 1244 q 957 1169 975 1190 m 889 1033 q 842 1097 867 1071 q 789 1149 818 1122 q 717 1118 751 1136 q 647 1076 683 1100 q 633 1096 638 1083 q 629 1115 629 1108 q 648 1157 629 1136 q 694 1195 667 1178 q 749 1224 722 1213 q 790 1235 775 1235 q 830 1220 807 1235 q 874 1183 853 1206 q 910 1134 896 1160 q 924 1088 924 1108 q 916 1058 924 1074 q 889 1033 908 1043 z "},"":{"ha":910,"x_min":44,"x_max":924,"o":"m 336 -121 q 189 -78 256 -121 q 83 42 122 -36 q 44 228 44 119 q 78 444 44 335 q 169 652 111 553 q 306 830 228 751 q 472 953 383 908 q 653 999 560 999 q 694 993 667 999 q 747 960 721 988 q 728 962 739 961 q 707 963 718 963 q 561 917 635 963 q 421 796 488 872 q 302 623 354 719 q 219 422 250 526 q 189 219 189 318 q 208 85 189 147 q 271 -16 228 22 q 385 -54 314 -54 q 528 -8 461 -54 q 649 115 594 38 q 742 287 703 192 q 801 483 781 382 q 822 675 822 583 q 817 762 822 715 q 798 842 811 808 q 760 875 785 875 q 708 845 736 875 q 654 769 681 815 q 608 673 628 724 q 579 582 588 622 q 512 613 532 592 q 492 663 492 633 q 518 746 492 700 q 587 834 544 792 q 676 904 629 876 q 763 932 722 932 q 830 902 804 932 q 869 825 856 872 q 889 724 883 778 q 894 625 894 671 q 860 366 894 483 q 766 158 825 249 q 634 6 707 68 q 484 -89 561 -57 q 336 -121 407 -121 m 889 1033 q 842 1097 867 1071 q 789 1149 818 1122 q 717 1118 751 1136 q 647 1076 683 1100 q 633 1096 638 1083 q 629 1115 629 1108 q 648 1157 629 1136 q 694 1195 667 1178 q 749 1224 722 1213 q 790 1235 775 1235 q 830 1220 807 1235 q 874 1183 853 1206 q 910 1134 896 1160 q 924 1088 924 1108 q 916 1058 924 1074 q 889 1033 908 1043 m 265 -351 q 221 -337 239 -351 q 203 -296 203 -322 q 235 -244 203 -264 q 299 -225 267 -225 q 341 -239 328 -225 q 354 -275 354 -253 q 326 -328 354 -306 q 265 -351 299 -351 z "},"":{"ha":910,"x_min":44,"x_max":1000,"o":"m 336 -121 q 189 -78 256 -121 q 83 42 122 -36 q 44 228 44 119 q 78 444 44 335 q 169 652 111 553 q 306 830 228 751 q 472 953 383 908 q 653 999 560 999 q 694 993 667 999 q 747 960 721 988 q 728 962 739 961 q 707 963 718 963 q 561 917 635 963 q 421 796 488 872 q 302 623 354 719 q 219 422 250 526 q 189 219 189 318 q 208 85 189 147 q 271 -16 228 22 q 385 -54 314 -54 q 528 -8 461 -54 q 649 115 594 38 q 742 287 703 192 q 801 483 781 382 q 822 675 822 583 q 817 762 822 715 q 798 842 811 808 q 760 875 785 875 q 708 845 736 875 q 654 769 681 815 q 608 673 628 724 q 579 582 588 622 q 512 613 532 592 q 492 663 492 633 q 518 746 492 700 q 587 834 544 792 q 676 904 629 876 q 763 932 722 932 q 830 902 804 932 q 869 825 856 872 q 889 724 883 778 q 894 625 894 671 q 860 366 894 483 q 766 158 825 249 q 634 6 707 68 q 484 -89 561 -57 q 336 -121 407 -121 m 968 1165 q 931 1218 954 1189 q 886 1274 908 1247 q 849 1317 864 1301 q 865 1347 854 1339 q 890 1356 875 1356 q 929 1338 910 1356 q 965 1294 949 1319 q 990 1243 981 1268 q 1000 1206 1000 1218 q 968 1165 1000 1176 m 889 1033 q 842 1097 867 1071 q 789 1149 818 1122 q 717 1118 751 1136 q 647 1076 683 1100 q 633 1096 638 1083 q 629 1115 629 1108 q 648 1157 629 1136 q 694 1195 667 1178 q 749 1224 722 1213 q 790 1235 775 1235 q 830 1220 807 1235 q 874 1183 853 1206 q 910 1134 896 1160 q 924 1088 924 1108 q 916 1058 924 1074 q 889 1033 908 1043 z "},"":{"ha":910,"x_min":44,"x_max":1067,"o":"m 336 -121 q 189 -78 256 -121 q 83 42 122 -36 q 44 228 44 119 q 78 444 44 335 q 169 652 111 553 q 306 830 228 751 q 472 953 383 908 q 653 999 560 999 q 694 993 667 999 q 747 960 721 988 q 728 962 739 961 q 707 963 718 963 q 561 917 635 963 q 421 796 488 872 q 302 623 354 719 q 219 422 250 526 q 189 219 189 318 q 208 85 189 147 q 271 -16 228 22 q 385 -54 314 -54 q 528 -8 461 -54 q 649 115 594 38 q 742 287 703 192 q 801 483 781 382 q 822 675 822 583 q 817 762 822 715 q 798 842 811 808 q 760 875 785 875 q 708 845 736 875 q 654 769 681 815 q 608 673 628 724 q 579 582 588 622 q 512 613 532 592 q 492 663 492 633 q 518 746 492 700 q 587 834 544 792 q 676 904 629 876 q 763 932 722 932 q 830 902 804 932 q 869 825 856 872 q 889 724 883 778 q 894 625 894 671 q 860 366 894 483 q 766 158 825 249 q 634 6 707 68 q 484 -89 561 -57 q 336 -121 407 -121 m 986 1158 q 960 1162 972 1158 q 940 1169 949 1165 q 990 1190 972 1176 q 1007 1226 1007 1204 q 976 1271 1007 1256 q 879 1286 946 1286 q 899 1338 879 1317 q 958 1360 918 1360 q 1036 1327 1006 1360 q 1067 1246 1067 1294 q 1044 1183 1067 1207 q 986 1158 1022 1158 m 889 1033 q 842 1097 867 1071 q 789 1149 818 1122 q 717 1118 751 1136 q 647 1076 683 1100 q 633 1096 638 1083 q 629 1115 629 1108 q 648 1157 629 1136 q 694 1195 667 1178 q 749 1224 722 1213 q 790 1235 775 1235 q 830 1220 807 1235 q 874 1183 853 1206 q 910 1134 896 1160 q 924 1088 924 1108 q 916 1058 924 1074 q 889 1033 908 1043 z "},"":{"ha":910,"x_min":44,"x_max":1054,"o":"m 336 -121 q 189 -78 256 -121 q 83 42 122 -36 q 44 228 44 119 q 78 444 44 335 q 169 652 111 553 q 306 830 228 751 q 472 953 383 908 q 653 999 560 999 q 694 993 667 999 q 747 960 721 988 q 728 962 739 961 q 707 963 718 963 q 561 917 635 963 q 421 796 488 872 q 302 623 354 719 q 219 422 250 526 q 189 219 189 318 q 208 85 189 147 q 271 -16 228 22 q 385 -54 314 -54 q 528 -8 461 -54 q 649 115 594 38 q 742 287 703 192 q 801 483 781 382 q 822 675 822 583 q 817 762 822 715 q 798 842 811 808 q 760 875 785 875 q 708 845 736 875 q 654 769 681 815 q 608 673 628 724 q 579 582 588 622 q 512 613 532 592 q 492 663 492 633 q 518 746 492 700 q 587 834 544 792 q 676 904 629 876 q 763 932 722 932 q 830 902 804 932 q 869 825 856 872 q 889 724 883 778 q 894 625 894 671 q 860 366 894 483 q 766 158 825 249 q 634 6 707 68 q 484 -89 561 -57 q 336 -121 407 -121 m 800 1053 q 708 1075 743 1053 q 659 1128 674 1097 q 644 1185 644 1158 q 655 1226 644 1210 q 683 1253 665 1243 q 718 1177 690 1213 q 803 1142 746 1142 q 883 1164 853 1142 q 929 1210 914 1186 q 944 1188 940 1200 q 949 1164 949 1175 q 903 1085 949 1117 q 800 1053 858 1053 m 938 1238 q 857 1254 899 1238 q 774 1288 815 1271 q 697 1304 733 1304 q 652 1301 674 1304 q 607 1286 631 1297 q 656 1348 624 1328 q 732 1368 688 1368 q 812 1351 771 1368 q 893 1318 853 1335 q 972 1301 933 1301 q 1054 1315 1014 1301 q 1008 1258 1035 1278 q 938 1238 981 1238 z "},"":{"ha":910,"x_min":44,"x_max":894,"o":"m 336 -121 q 189 -78 256 -121 q 83 42 122 -36 q 44 228 44 119 q 78 444 44 335 q 169 652 111 553 q 306 830 228 751 q 472 953 383 908 q 653 999 560 999 q 694 993 667 999 q 747 960 721 988 q 728 962 739 961 q 707 963 718 963 q 561 917 635 963 q 421 796 488 872 q 302 623 354 719 q 219 422 250 526 q 189 219 189 318 q 208 85 189 147 q 271 -16 228 22 q 385 -54 314 -54 q 528 -8 461 -54 q 649 115 594 38 q 742 287 703 192 q 801 483 781 382 q 822 675 822 583 q 817 762 822 715 q 798 842 811 808 q 760 875 785 875 q 708 845 736 875 q 654 769 681 815 q 608 673 628 724 q 579 582 588 622 q 512 613 532 592 q 492 663 492 633 q 518 746 492 700 q 587 834 544 792 q 676 904 629 876 q 763 932 722 932 q 830 902 804 932 q 869 825 856 872 q 889 724 883 778 q 894 625 894 671 q 860 366 894 483 q 766 158 825 249 q 634 6 707 68 q 484 -89 561 -57 q 336 -121 407 -121 m 707 1046 q 641 1130 676 1086 q 564 1219 606 1174 q 588 1238 575 1231 q 617 1246 600 1246 q 655 1226 635 1246 q 692 1179 675 1207 q 721 1126 710 1151 q 732 1088 732 1100 q 707 1046 732 1058 m 807 1047 q 762 1125 788 1083 q 704 1206 736 1167 q 723 1231 711 1221 q 751 1242 735 1242 q 788 1225 771 1242 q 816 1184 804 1208 q 835 1135 828 1160 q 842 1096 842 1111 q 831 1060 842 1071 q 807 1047 819 1050 z "},"":{"ha":910,"x_min":44,"x_max":951,"o":"m 336 -121 q 189 -78 256 -121 q 83 42 122 -36 q 44 228 44 119 q 78 444 44 335 q 169 652 111 553 q 306 830 228 751 q 472 953 383 908 q 653 999 560 999 q 694 993 667 999 q 747 960 721 988 q 728 962 739 961 q 707 963 718 963 q 561 917 635 963 q 421 796 488 872 q 302 623 354 719 q 219 422 250 526 q 189 219 189 318 q 208 85 189 147 q 271 -16 228 22 q 385 -54 314 -54 q 528 -8 461 -54 q 649 115 594 38 q 742 287 703 192 q 801 483 781 382 q 822 675 822 583 q 817 762 822 715 q 798 842 811 808 q 760 875 785 875 q 708 845 736 875 q 654 769 681 815 q 608 673 628 724 q 579 582 588 622 q 512 613 532 592 q 492 663 492 633 q 518 746 492 700 q 587 834 544 792 q 676 904 629 876 q 763 932 722 932 q 830 902 804 932 q 869 825 856 872 q 889 724 883 778 q 894 625 894 671 q 860 366 894 483 q 766 158 825 249 q 634 6 707 68 q 484 -89 561 -57 q 336 -121 407 -121 m 865 1046 q 825 1058 843 1046 q 807 1093 807 1069 q 838 1140 807 1121 q 900 1160 869 1160 q 936 1150 921 1160 q 951 1114 951 1140 q 924 1068 951 1090 q 865 1046 897 1046 m 665 1074 q 624 1085 643 1074 q 606 1121 606 1096 q 637 1167 606 1147 q 699 1188 668 1188 q 735 1178 721 1188 q 749 1143 749 1168 q 723 1097 749 1119 q 665 1074 697 1074 z "},"":{"ha":910,"x_min":44,"x_max":1064,"o":"m 336 -121 q 189 -78 256 -121 q 83 42 122 -36 q 44 228 44 119 q 78 444 44 335 q 169 652 111 553 q 306 830 228 751 q 472 953 383 908 q 653 999 560 999 q 694 993 667 999 q 747 960 721 988 q 728 962 739 961 q 707 963 718 963 q 561 917 635 963 q 421 796 488 872 q 302 623 354 719 q 219 422 250 526 q 189 219 189 318 q 208 85 189 147 q 271 -16 228 22 q 385 -54 314 -54 q 528 -8 461 -54 q 649 115 594 38 q 742 287 703 192 q 801 483 781 382 q 822 675 822 583 q 817 762 822 715 q 798 842 811 808 q 760 875 785 875 q 708 845 736 875 q 654 769 681 815 q 608 673 628 724 q 579 582 588 622 q 512 613 532 592 q 492 663 492 633 q 518 746 492 700 q 587 834 544 792 q 676 904 629 876 q 763 932 722 932 q 830 902 804 932 q 869 825 856 872 q 889 724 883 778 q 894 625 894 671 q 860 366 894 483 q 766 158 825 249 q 634 6 707 68 q 484 -89 561 -57 q 336 -121 407 -121 m 865 1046 q 825 1058 843 1046 q 807 1093 807 1069 q 838 1140 807 1121 q 900 1160 869 1160 q 936 1150 921 1160 q 951 1114 951 1140 q 924 1068 951 1090 q 865 1046 897 1046 m 665 1074 q 624 1085 643 1074 q 606 1121 606 1096 q 637 1167 606 1147 q 699 1188 668 1188 q 735 1178 721 1188 q 749 1143 749 1168 q 723 1097 749 1119 q 665 1074 697 1074 m 1007 1238 q 928 1245 975 1238 q 831 1264 882 1253 q 735 1285 781 1275 q 657 1300 689 1296 q 726 1342 672 1342 q 835 1331 776 1342 q 955 1306 894 1321 q 1064 1272 1015 1290 q 1007 1238 1047 1238 z "},"":{"ha":910,"x_min":44,"x_max":1035,"o":"m 336 -121 q 189 -78 256 -121 q 83 42 122 -36 q 44 228 44 119 q 78 444 44 335 q 169 652 111 553 q 306 830 228 751 q 472 953 383 908 q 653 999 560 999 q 694 993 667 999 q 747 960 721 988 q 728 962 739 961 q 707 963 718 963 q 561 917 635 963 q 421 796 488 872 q 302 623 354 719 q 219 422 250 526 q 189 219 189 318 q 208 85 189 147 q 271 -16 228 22 q 385 -54 314 -54 q 528 -8 461 -54 q 649 115 594 38 q 742 287 703 192 q 801 483 781 382 q 822 675 822 583 q 817 762 822 715 q 798 842 811 808 q 760 875 785 875 q 708 845 736 875 q 654 769 681 815 q 608 673 628 724 q 579 582 588 622 q 512 613 532 592 q 492 663 492 633 q 518 746 492 700 q 587 834 544 792 q 676 904 629 876 q 763 932 722 932 q 830 902 804 932 q 869 825 856 872 q 889 724 883 778 q 894 625 894 671 q 860 366 894 483 q 766 158 825 249 q 634 6 707 68 q 484 -89 561 -57 q 336 -121 407 -121 m 749 1064 q 704 1078 722 1064 q 686 1119 686 1093 q 718 1171 686 1151 q 782 1190 750 1190 q 824 1176 811 1190 q 838 1140 838 1163 q 810 1087 838 1110 q 749 1064 782 1064 m 978 1232 q 899 1240 946 1232 q 802 1258 853 1247 q 706 1280 751 1269 q 628 1294 660 1290 q 697 1336 643 1336 q 806 1326 747 1336 q 926 1300 865 1315 q 1035 1267 986 1285 q 978 1232 1018 1232 z "},"":{"ha":910,"x_min":44,"x_max":894,"o":"m 336 -121 q 189 -78 256 -121 q 83 42 122 -36 q 44 228 44 119 q 78 444 44 335 q 169 652 111 553 q 306 830 228 751 q 472 953 383 908 q 653 999 560 999 q 694 993 667 999 q 747 960 721 988 q 728 962 739 961 q 707 963 718 963 q 561 917 635 963 q 421 796 488 872 q 302 623 354 719 q 219 422 250 526 q 189 219 189 318 q 208 85 189 147 q 271 -16 228 22 q 385 -54 314 -54 q 528 -8 461 -54 q 649 115 594 38 q 742 287 703 192 q 801 483 781 382 q 822 675 822 583 q 817 762 822 715 q 798 842 811 808 q 760 875 785 875 q 708 845 736 875 q 654 769 681 815 q 608 673 628 724 q 579 582 588 622 q 512 613 532 592 q 492 663 492 633 q 518 746 492 700 q 587 834 544 792 q 676 904 629 876 q 763 932 722 932 q 830 902 804 932 q 869 825 856 872 q 889 724 883 778 q 894 625 894 671 q 860 366 894 483 q 766 158 825 249 q 634 6 707 68 q 484 -89 561 -57 q 336 -121 407 -121 m 265 -351 q 221 -337 239 -351 q 203 -296 203 -322 q 235 -244 203 -264 q 299 -225 267 -225 q 341 -239 328 -225 q 354 -275 354 -253 q 326 -328 354 -306 q 265 -351 299 -351 z "}}}
